<?xml version="1.0" encoding="utf-8"?>
<!-- Generator: Adobe Illustrator 24.1.0, SVG Export Plug-In . SVG Version: 6.00 Build 0)  -->
<svg version="1.1" id="Layer_1" xmlns="http://www.w3.org/2000/svg" xmlns:xlink="http://www.w3.org/1999/xlink" x="0px" y="0px"
	 viewBox="0 0 209.9 201.8" style="enable-background:new 0 0 209.9 201.8;" xml:space="preserve">
   <style>
        path {
            fill: #120B1A;
        }
        @media (prefers-color-scheme: dark) {
            path { fill: #f4f1ee; }
        }
    </style>
<g id="Layer_2_1_">
	<g id="iconos">
		<g class="st0">
			<path class="st1" d="M79.8,106.4c0-1.2,0-2.3,0-3.3c0-8.7,0-17.3,0-26c-0.2-0.8,0.4-1.6,1.2-1.8c0,0,0.1,0,0.1,0
				c7.7-2.3,15.4-4.7,23.1-7c1-0.3,2.1-0.2,3.2,0.1c4.1,1.1,8.2,2.4,12.4,3.7c0-0.6,0.1-1.1,0.1-1.5c0-9.2,0-18.4,0-27.6
				c-0.2-1.1,0.5-2.1,1.6-2.2c0,0,0.1,0,0.1,0c7.7-2.2,15.3-4.6,22.9-6.9c0.8-0.2,1.6-0.2,2.4,0c3.9,1.1,7.8,2.3,11.7,3.4
				c0.4,0.1,0.8,0.2,1.3,0.3v-3.8c0-8.3,0-16.6,0-24.9c0-1.1,0.2-1.6,1.4-2c7.6-2.2,15.1-4.4,22.7-6.7c0.5-0.2,1.1-0.2,1.6-0.1
				c7.9,2.4,15.7,4.8,23.6,7.2c0.2,0.1,0.4,0.2,0.6,0.3c0,0.5,0,1.1,0,1.7c0,44.3,0,88.5,0,132.8c0.1,0.9-0.4,1.8-1.3,2.1
				c-15,6.1-30.1,12.2-45.1,18.4c-15.7,6.4-31.5,12.9-47.2,19.3c-16.2,6.6-32.5,13.2-48.7,19.8c-0.8,0.3-1.8,0.3-2.6,0
				c-20.1-8.9-40.2-17.7-60.3-26.6c-4.5-2-4.6-1.9-4.6-6.9c0-5.4,0-10.9,0-16.3c-0.1-1.1,0.6-2.1,1.7-2.3
				c11.8-4.3,23.5-8.7,35.3-12.9c1.3-0.3,2.2-1.5,2-2.9c-0.1-7.1,0-14.2-0.1-21.3c0-1.6,0.5-2.1,2-2.5c7.5-2.2,15-4.4,22.5-6.7
				c1.6-0.5,3.3-0.5,4.9,0c3.5,1.2,7.1,2.2,10.6,3.2C79.1,106.4,79.4,106.4,79.8,106.4z M68.3,195.2c5.6-2.3,10.8-4.5,16.2-6.6
				c16.6-6.8,33.1-13.5,49.7-20.3c22.9-9.3,45.8-18.7,68.7-28.1c0.9-0.3,1.5-1.2,1.4-2.2c0-40.9,0-81.8,0-122.7c0-0.5,0-0.9-0.1-1.4
				c-0.2,0-0.5,0-0.7,0.1c-4.7,1.6-9.4,3.2-14.1,4.7c-1.4,0.4-1.7,1-1.7,2.4c0,36.7,0,73.3-0.1,110c0.2,1.2-0.6,2.3-1.8,2.6
				c-10.9,4.3-21.8,8.7-32.7,13.1c-18.8,7.5-37.7,15.1-56.6,22.6c-9.1,3.6-18.1,7.2-27.2,10.9c-0.5,0.2-1.1,0.8-1.1,1.2
				C68.3,186,68.3,190.5,68.3,195.2z M148.4,131.7c5.9-2.1,11.5-4.2,17.1-6.2c0.9-0.2,1.5-1.1,1.4-2c0-24.8,0-49.6,0-74.4v-2
				c-5.7,1.8-11.1,3.6-16.5,5.3c-1.3,0.2-2.2,1.3-2,2.6c0,0,0,0,0,0.1c0.1,22.4,0.1,44.8,0,67.2L148.4,131.7z M10.4,152.2
				c0.8,0.4,1.3,0.6,1.8,0.8c17.1,7.2,34.1,14.5,51.1,21.7c1.6,0.8,3.5,0.8,5.2,0c13.7-5.6,27.4-11,41.1-16.5
				c20.8-8.3,41.6-16.6,62.4-24.9c2.1-0.9,4.3-1.7,6.5-2.5c-1.9-0.6-3.8-1-5.8-1.2c-1.2-0.1-2.3,0-3.5,0.4
				c-14.6,5.1-29.1,10.5-43.8,15.4c-19.3,6.5-38.7,12.6-58,18.8c-0.8,0.2-1.6,0.2-2.4-0.1c-8.2-3.5-16.5-7.1-24.7-10.7
				c-0.9-0.3-1.4-1.1-1.2-2c0.1-3.2,0-6.4,0-9.8L10.4,152.2z M127.2,81.8c-0.6,0.1-1,0.2-1.4,0.3c-5.3,1.7-10.5,3.4-15.8,5
				c-1,0.1-1.8,1-1.6,2.1c0,0,0,0.1,0,0.1c0,18.3,0,36.5,0,54.8c0,0.4,0.1,0.8,0.1,1.3c6.1-2.1,12.1-4.1,18-6.2
				c0.4-0.1,0.6-1,0.6-1.5c0-17.7,0-35.5,0-53.3L127.2,81.8z M181.6,116.5h0.4V19.2l-16.4-5.5v25.5c1.8,0.6,3.6,1,5.2,1.7
				c0.6,0.3,1.1,0.8,1.2,1.5c0.5,3.3,0.9,6.7,1.3,10.1c1.3,10.1,2.6,20.2,3.9,30.2c1.2,9.4,2.4,18.8,3.6,28.2
				C181.1,112.8,181.3,114.6,181.6,116.5z M62.6,194.3c0-4.6,0-8.9,0-13.1c0-0.4-0.7-1-1.1-1.2c-18-7.7-36-15.4-54-23
				c-0.6-0.2-1.1-0.4-1.8-0.7c0,4,0.1,7.7,0,11.5c-0.1,1,0.5,1.9,1.4,2.2c14.5,6.3,29,12.7,43.4,19L62.6,194.3z M125.4,73.5
				c1.7,0.5,3.4,1.2,5.2,1.6c1.1,0.2,1.9,1.1,1.9,2.2c1.3,7.5,2.6,14.9,3.9,22.3c1.9,10.8,3.8,21.7,5.6,32.5
				c0.1,0.4,0.2,0.8,0.3,1.2c0.3-6.3,0.3-12.6,0.3-18.8c0-19.9,0-39.9,0-59.8c0.2-0.9-0.4-1.7-1.3-1.9c0,0,0,0,0,0
				c-2.2-0.7-4.4-1.5-6.7-2.2c-3.1-1-6.1-2-9.3-3L125.4,73.5z M68.4,158.2c6.3-1.9,12.3-3.8,18.3-5.6c0.9-0.3,0.9-0.8,0.9-1.5
				c0-10.9,0-21.8,0-32.8c0-0.6-0.1-1.2-0.1-1.9c-6,1.9-11.7,3.8-17.5,5.6c-1.1,0.1-1.9,1.2-1.7,2.2c0,10.3,0,20.6,0,30.9
				L68.4,158.2z M102.7,147.3c0-0.7,0.1-0.9,0.1-1.1c0-19,0-38,0-57c0.1-0.8-0.5-1.6-1.3-1.7c-4.9-1.6-9.8-3.3-14.7-4.9
				c-0.5-0.2-1-0.3-1.6-0.4c0,7,0,13.9,0,20.7c0,1.7-0.6,3.8,0.2,4.9s3,1.4,4.7,1.8c1.9,0.4,2.7,1.4,3.2,3.3
				c2.9,11.2,5.9,22.4,8.9,33.6C102.4,146.7,102.5,147,102.7,147.3L102.7,147.3z M62.7,157.3v-1.7c0-9.5,0-18.9,0-28.4
				c0-1.5,0.5-3.3-0.2-4.3s-2.6-1.2-4.1-1.7c-4.6-1.6-9.2-3.1-14-4.7v1.9c0,9,0.1,18-0.1,26.9c-0.1,3,0.6,4.8,3.6,5.4
				c0.4,0.1,0.8,0.3,1.1,0.5L62.7,157.3z M50.4,112.8c5,1.7,9.7,3.2,14.3,4.7c0.4,0.1,0.9,0.1,1.3,0c4.9-1.6,9.7-3.1,15-4.8
				c-3.4-1-6.5-1.6-9.5-2.8c-3.7-1.5-7.9-1.5-11.6,0C57,111.1,53.9,111.8,50.4,112.8z M120.4,78.1c-0.2-0.2-0.2-0.3-0.3-0.3
				c-4.7-1.3-9.3-2.7-14-4c-0.3-0.1-0.6-0.1-0.9,0c-4.6,1.4-9.2,2.8-13.8,4.2c0.2,0.2,0.3,0.3,0.4,0.4c4.4,1.4,8.7,2.9,13.1,4.3
				c0.4,0.1,0.8,0.1,1.2,0C110.8,81.2,115.5,79.6,120.4,78.1L120.4,78.1z M160,43.5c-0.6-0.2-0.9-0.4-1.3-0.5c-3.6-1-7.1-2-10.6-3.1
				c-1.6-0.5-3.4-0.5-5,0c-3.1,1-6.3,1.9-9.4,2.8c-0.6,0.2-1.3,0.4-2.3,0.8c4.3,1.4,8.1,2.7,11.9,4c1.3,0.5,2.8,0.5,4.2,0
				C151.5,46.2,155.6,44.9,160,43.5z M171.2,9.8c4.6,1.6,8.8,3,13,4.4c0.6,0.2,1.3,0.2,1.9,0c3.6-1.2,7.1-2.4,10.6-3.6l1.8-0.6
				l-12.7-3.8c-0.4-0.2-0.8-0.2-1.2-0.2C180.3,7.1,175.9,8.4,171.2,9.8L171.2,9.8z"/>
		</g>
	</g>
</g>
</svg>
