<?xml version="1.0" encoding="UTF-8" standalone="no"?>
<!DOCTYPE svg PUBLIC "-//W3C//DTD SVG 1.1//EN" "http://www.w3.org/Graphics/SVG/1.1/DTD/svg11.dtd">
<svg width="100%" height="100%" viewBox="0 0 32 32" version="1.1" xmlns="http://www.w3.org/2000/svg" xmlns:xlink="http://www.w3.org/1999/xlink" xml:space="preserve" xmlns:serif="http://www.serif.com/" style="fill-rule:evenodd;clip-rule:evenodd;stroke-linejoin:round;stroke-miterlimit:2;">
    <g transform="matrix(1,0,0,1,-4,-4)">
        <g id="Cv4fqa.tif_2_">
            <g>
                <path d="M30,36L10.1,36C9.8,36 9.5,35.9 9.2,35.9C8.5,35.8 7.9,35.5 7.3,35.2C6.7,34.8 6.1,34.4 5.7,33.8C5.4,33.5 5.2,33.1 5,32.7C4.7,32.2 4.5,31.7 4.4,31.2C4.1,30.8 4,30.4 4,30L4,9.6C4,9.2 4.1,8.9 4.2,8.6C4.3,8.1 4.5,7.7 4.8,7.3C5.1,6.8 5.4,6.4 5.8,6C6,5.7 6.2,5.6 6.4,5.4C6.7,5.1 7,4.9 7.4,4.7C7.8,4.5 8.2,4.3 8.7,4.2C9.2,4.1 9.7,4 10.2,4L29.4,4C29.7,4 30.1,4 30.4,4.1C30.8,4.1 31.1,4.2 31.4,4.3C31.9,4.4 32.3,4.6 32.7,4.9C33.2,5.2 33.6,5.5 34,5.9C34.2,6.1 34.4,6.3 34.5,6.5C34.8,6.7 35,7 35.2,7.3C35.4,7.7 35.6,8.2 35.8,8.7C35.9,9.2 36,9.7 36,10.2L36,30.2C36,30.4 35.9,30.7 35.9,30.9C35.8,31.5 35.5,32.1 35.2,32.7C34.9,33.2 34.6,33.6 34.2,34C34.1,34.1 33.9,34.3 33.8,34.4C33.5,34.7 33.1,34.9 32.7,35.1C32.2,35.4 31.8,35.5 31.2,35.7C30.8,35.9 30.4,36 30,36ZM9.8,26.5L16.7,26.5C17,26.5 17.2,26.4 17.5,26.4C18.1,26.3 18.6,26 19.1,25.7C19.4,25.5 19.6,25.3 19.8,25C20,24.8 20.2,24.5 20.3,24.2C20.4,23.9 20.5,23.7 20.5,23.4L20.5,22.8C20.5,22.5 20.4,22.2 20.4,22C20.4,21.7 20.3,21.4 20.1,21.1C19.9,20.8 19.7,20.4 19.4,20.2C19.2,20 19,19.9 18.8,19.8C18.6,19.7 18.4,19.6 18.2,19.5C18.5,19.3 18.8,19.1 19.1,18.9C19.4,18.6 19.7,18.2 19.8,17.8C19.9,17.5 19.9,17.2 19.9,16.9L19.9,16.5C19.9,16.1 19.7,15.7 19.6,15.4C19.3,14.8 18.7,14.4 18.1,14.2C17.8,14.1 17.4,14 17,14C16.7,14 16.3,13.9 16,13.9L9.9,13.9C9.8,17.9 9.8,22.2 9.8,26.5ZM31.5,23.2L29.3,23.2C29.3,23.2 29.2,23.2 29.2,23.3C29,23.8 28.7,24.1 28.2,24.3C28,24.4 27.7,24.5 27.4,24.5C27,24.5 26.6,24.5 26.2,24.4C25.7,24.2 25.3,23.9 25.1,23.4C25,23.1 24.9,22.9 24.9,22.6L31.5,22.6L31.5,22C31.5,21.6 31.5,21.3 31.4,20.9C31.4,20.6 31.3,20.4 31.3,20.1C31.2,19.6 31,19.1 30.8,18.7C30.6,18.5 30.5,18.2 30.3,18C30.2,17.9 30,17.7 29.9,17.6C29.7,17.4 29.4,17.2 29.1,17.1C28.8,17 28.5,16.9 28.1,16.8C27.9,16.8 27.7,16.7 27.4,16.7C27.1,16.7 26.8,16.7 26.4,16.8C26.1,16.9 25.7,16.9 25.4,17C25.1,17.1 24.8,17.2 24.5,17.4C24.1,17.6 23.8,17.9 23.5,18.3C23.2,18.7 23,19.1 22.8,19.5C22.6,20 22.5,20.5 22.5,21.1C22.5,21.6 22.5,22.1 22.6,22.6C22.7,23.2 22.9,23.7 23.2,24.2C23.5,24.6 23.8,25 24.2,25.3C24.7,25.7 25.3,25.9 25.9,26.1C26.4,26.2 26.8,26.3 27.3,26.3L27.9,26.3C28.2,26.3 28.4,26.2 28.7,26.1C29.2,26 29.7,25.7 30.1,25.4C30.3,25.2 30.6,25 30.8,24.8C31.1,24.5 31.3,24.1 31.5,23.7C31.3,23.5 31.4,23.4 31.5,23.2ZM27,15.5L29.5,15.5C29.7,15.5 29.9,15.4 30,15.2C30.1,15 30.2,14.8 30.1,14.6C30,14.4 29.8,14.2 29.5,14.2L24.4,14.2C24,14.2 23.8,14.5 23.8,14.8C23.8,15.2 24.1,15.4 24.4,15.4C25.3,15.5 26.2,15.5 27,15.5Z" style="fill:rgb(244,241,238);fill-rule:nonzero;"/>
                <path d="M13,24.5L13,20.7L15.4,20.7C15.9,20.7 16.3,20.8 16.7,21.1C16.9,21.3 17.1,21.5 17.2,21.7C17.3,21.9 17.3,22.2 17.4,22.4C17.4,22.9 17.3,23.3 17,23.7C16.7,24.1 16.3,24.3 15.8,24.4C15.6,24.4 15.4,24.5 15.3,24.5L13,24.5Z" style="fill:rgb(244,241,238);fill-rule:nonzero;"/>
                <path d="M13,18.7L13,15.5L14.9,15.5C15.2,15.5 15.5,15.5 15.9,15.7C16.4,15.9 16.7,16.2 16.8,16.7C16.9,17.1 16.9,17.5 16.7,17.8C16.5,18.2 16.2,18.4 15.9,18.5C15.7,18.6 15.4,18.6 15.1,18.6L13.1,18.6L13,18.7Z" style="fill:rgb(244,241,238);fill-rule:nonzero;"/>
                <path d="M29,20.7L24.9,20.7C24.9,20.4 25,20.1 25.1,19.8C25.3,19.5 25.5,19.2 25.9,19C26.1,18.9 26.4,18.8 26.7,18.8L27.1,18.8C27.5,18.8 27.9,18.9 28.3,19.2C28.6,19.4 28.7,19.7 28.8,20C28.9,20.2 29,20.4 29,20.7Z" style="fill:rgb(244,241,238);fill-rule:nonzero;"/>
            </g>
        </g>
    </g>
</svg>
