<?xml version="1.0" encoding="UTF-8" standalone="no"?>
<!DOCTYPE svg PUBLIC "-//W3C//DTD SVG 1.1//EN" "http://www.w3.org/Graphics/SVG/1.1/DTD/svg11.dtd">
<svg width="100%" height="100%" viewBox="0 0 32 32" version="1.1" xmlns="http://www.w3.org/2000/svg" xmlns:xlink="http://www.w3.org/1999/xlink" xml:space="preserve" xmlns:serif="http://www.serif.com/" style="fill-rule:evenodd;clip-rule:evenodd;stroke-linejoin:round;stroke-miterlimit:2;">
    <g transform="matrix(1,0,0,1,-4.040192,-3.934315)">
        <g>
            <path d="M36,19.1L36,21.1C35.8,23.4 35.2,25.6 34,27.7C32.8,29.9 31.1,31.8 29,33.2C27.8,34 26.5,34.6 25.2,35.1C24.8,35.2 24.4,35.1 24.1,34.8C23.9,34.5 23.7,34.2 23.7,33.8L23.7,29C23.7,28.6 23.7,28.1 23.6,27.7C23.6,27.5 23.5,27.3 23.4,27.1C23.6,27.1 23.8,27 24,27C25.2,26.7 26.4,26.3 27.4,25.7C28.9,24.8 30,23.6 30.6,22C31,21 31.1,19.9 31,18.9C31,18 30.8,17.1 30.5,16.2C30.2,15.3 29.7,14.5 29,13.8C29.5,12.6 29.6,11.3 29.2,10.1C29.1,9.8 28.9,9.5 28.7,9.2C28.7,9.1 28.6,9.1 28.5,9.1C27.2,9.1 26.1,9.5 25,10.2C24.6,10.5 24.2,10.8 23.9,11.1C23.9,11.1 23.8,11.2 23.8,11.1C22.9,10.8 22,10.7 21.1,10.6C20.3,10.5 19.4,10.5 18.6,10.6C17.7,10.7 16.9,10.8 16.1,11.1L15.9,11.1C14.9,10.1 13.7,9.4 12.4,9.1C12.1,9 11.7,9 11.4,9C11.3,9 11.3,9 11.2,9.1C10.8,9.6 10.6,10.2 10.6,10.8C10.5,11.6 10.5,12.4 10.8,13.2C10.9,13.4 11,13.6 11.1,13.8C11,13.9 10.9,14.1 10.7,14.2C9.8,15.3 9.2,16.6 9,18C8.8,19.1 8.9,20.3 9.2,21.4C9.6,23 10.6,24.3 11.9,25.3C13,26.1 14.1,26.6 15.4,26.9C15.8,27 16.2,27.1 16.7,27.2C16.5,27.6 16.4,28.1 16.4,28.6L16.4,29.2C16.4,29.3 16.4,29.3 16.3,29.4C15.8,29.6 15.3,29.6 14.9,29.6C14.1,29.6 13.4,29.4 12.7,29C12.2,28.7 11.8,28.3 11.5,27.9C11,27.1 10.3,26.6 9.4,26.4C9.1,26.3 8.9,26.3 8.6,26.4C8.5,26.4 8.4,26.4 8.4,26.5C8.2,26.6 8.2,26.7 8.3,26.9C8.4,27.1 8.6,27.2 8.7,27.3C8.9,27.5 9.1,27.6 9.3,27.8C9.8,28.3 10.1,28.9 10.4,29.5C10.8,30.4 11.5,31.1 12.4,31.6C13.3,32.1 14.3,32.2 15.4,32.1C15.7,32.1 16.1,32 16.4,32L16.4,34.2C16.4,34.7 16.2,35.1 15.8,35.3C15.5,35.5 15.2,35.5 14.9,35.4C11.1,34.1 8.2,31.7 6.2,28.2C5.2,26.5 4.6,24.7 4.3,22.8C4,21.1 4,19.8 4.1,18.6C4.3,15.8 5.2,13.3 6.8,10.9C8.4,8.6 10.5,6.8 13,5.5C14.5,4.8 16.1,4.3 17.7,4.1C18.9,3.9 20.1,3.9 21.4,4C24.5,4.3 27.3,5.3 29.7,7.2C32.5,9.4 34.4,12.1 35.4,15.5C35.7,16.7 35.9,17.9 36,19.1Z" style="fill:rgb(244,241,238);fill-rule:nonzero;"/>
        </g>
    </g>
</svg>
