<!-- Generator: Adobe Illustrator 24.1.0, SVG Export Plug-In  -->
<svg version="1.1" xmlns="http://www.w3.org/2000/svg" xmlns:xlink="http://www.w3.org/1999/xlink" x="0px" y="0px" width="40px"
	 height="40px" viewBox="0 0 40 40" style="enable-background:new 0 0 40 40;" xml:space="preserve">
<style type="text/css">
	.st0{fill:#FFFFFF;}
	.st1{fill:#2F9C93;}
	.st2{fill:#5B5B5F;}
	.st3{fill:#434040;}
</style>
<defs>
</defs>
<g id="Ryoma_copy">
	<g>
		<circle class="st0" cx="20" cy="20" r="20"/>
		<g>
			<path class="st1" d="M11.81,19.62c-2.46-0.91-1.29-2.86-1.29-2.86C12.97,18.55,11.81,19.62,11.81,19.62z"/>
			<path class="st1" d="M10.17,24.29c2.27-1.38,0.9-4.05,0.9-4.05C8.85,21.68,10.17,24.29,10.17,24.29z"/>
			<path class="st1" d="M4.6,23.4c-0.05-0.73,0.14-1.46,0.56-2.06c0.7-1.04,3.48-0.57,3.48-0.57C7.36,23.83,4.6,23.4,4.6,23.4z"/>
			<path class="st2" d="M14.25,19.03l-2.51,0.08c0.09-1.57-0.82-2.52-1.96-3.38c-0.5,0.66-0.54,1.32-0.27,1.92
				c0.26,0.58,0.7,1.08,1.03,1.57c-0.61,0.18-1.33,0.42-2.06,0.6c-0.38,0.09-0.78,0.08-1.17,0.11c-0.53,0.04-1.09,0-1.6,0.14
				c-1.23,0.34-2,1.48-1.81,2.6c0.03,0.17,0.26,0.43,0.4,0.43c1.6,0,3.07-0.7,3.73-2.36c0.07-0.17,0.18-0.37,0.33-0.43
				c0.42-0.18,0.86-0.3,1.39-0.47c-0.79,1.49-1.07,2.92-0.3,4.48c1.61-1.55,1.95-3.07,1.06-4.67l3.21-0.24 M4.2,22.77
				c-0.03-0.73,0.09-1.39,0.7-1.87c0.71-0.56,1.48-0.84,2.44-0.66c-0.63,0.46-1.19,0.88-1.75,1.3c-0.02,0.01,0.05,0.13,0.12,0.3
				l2.08-1.34C7.22,21.98,5.97,22.74,4.2,22.77z M10.06,20.14c-0.07,0.83-0.14,1.59-0.2,2.34c0,0.02,0.06,0.04,0.2,0.13
				c0.11-0.87,0.21-1.68,0.31-2.52c0.63,0.97,0.24,2.67-0.81,3.61C9.1,22.8,9.3,21.14,10.06,20.14L10.06,20.14z M9.9,16.19
				c0.83,0.71,1.48,1.51,1.6,2.83l-1.09-1.74l-0.17,0.08l0.76,1.49C10.05,18.67,9.41,17.19,9.9,16.19L9.9,16.19z"/>
			<path class="st2" d="M13.74,19.37c0.07-0.01,0.05,0.07-0.01,0.07l-3.22,0.24l0.05-0.06c0.4,0.73,0.6,1.54,0.41,2.37
				c-0.21,0.92-0.82,1.69-1.48,2.34c-0.02,0.02-0.08,0.04-0.09,0c-0.35-0.7-0.5-1.49-0.43-2.27c0.08-0.79,0.37-1.53,0.74-2.22
				l0.06,0.04c-0.34,0.11-0.68,0.21-1.02,0.33c-0.17,0.06-0.38,0.11-0.5,0.26c-0.09,0.13-0.16,0.27-0.22,0.41
				c-0.21,0.5-0.53,0.94-0.93,1.3c-0.69,0.61-1.59,0.91-2.5,0.95c-0.19,0.01-0.36,0.04-0.51-0.09c-0.15-0.12-0.24-0.3-0.25-0.5
				c-0.04-0.45,0.06-0.91,0.29-1.3c0.23-0.39,0.56-0.72,0.96-0.94c0.5-0.28,1.03-0.35,1.59-0.37c0.65-0.02,1.34-0.02,1.97-0.18
				c0.63-0.16,1.26-0.37,1.88-0.55l-0.04,0.06c-0.38-0.56-0.87-1.09-1.1-1.74c-0.22-0.63-0.05-1.27,0.34-1.79
				c0.02-0.02,0.06-0.03,0.08-0.02c0.55,0.41,1.09,0.87,1.47,1.45c0.37,0.58,0.55,1.26,0.51,1.95l-0.05-0.03l2.51-0.08
				c0.07-0.01,0.05,0.07-0.01,0.07l-2.5,0.08c-0.02,0-0.05,0-0.05-0.03c0.04-0.69-0.14-1.38-0.53-1.96c-0.38-0.56-0.9-1-1.43-1.4
				l0.08-0.02c-0.4,0.55-0.55,1.2-0.28,1.84c0.25,0.6,0.69,1.09,1.05,1.61c0.02,0.03-0.02,0.05-0.04,0.05
				c-0.66,0.2-1.32,0.41-1.99,0.58c-0.62,0.15-1.29,0.14-1.93,0.16c-0.58,0.02-1.13,0.11-1.62,0.43c-0.4,0.26-0.72,0.63-0.91,1.08
				c-0.09,0.21-0.14,0.44-0.16,0.67c-0.02,0.22-0.02,0.48,0.1,0.67c0.06,0.1,0.16,0.21,0.28,0.23c0.12,0.01,0.24,0,0.36-0.01
				c0.23-0.02,0.46-0.05,0.68-0.1c0.9-0.2,1.72-0.71,2.24-1.49c0.13-0.2,0.24-0.41,0.34-0.63c0.08-0.2,0.17-0.42,0.35-0.53
				s0.43-0.18,0.63-0.24c0.27-0.09,0.55-0.17,0.82-0.26c0.02-0.01,0.08,0,0.06,0.04c-0.36,0.68-0.66,1.42-0.73,2.21
				c-0.07,0.78,0.08,1.56,0.43,2.26H9.41c0.65-0.63,1.25-1.39,1.46-2.3c0.18-0.81-0.01-1.62-0.41-2.33
				c-0.02-0.03,0.03-0.06,0.05-0.06C11.59,19.52,12.66,19.45,13.74,19.37L13.74,19.37z"/>
			<path class="st2" d="M14.11,19.65c0.07,0,0.01,0.07-0.04,0.07C14,19.72,14.06,19.65,14.11,19.65z"/>
			<path class="st2" d="M7.82,20.52l-2.08,1.34c-0.02,0.02-0.07,0.03-0.09-0.01c-0.03-0.08-0.15-0.24-0.1-0.33
				c0.03-0.07,0.2-0.15,0.26-0.2l0.28-0.21c0.4-0.3,0.81-0.6,1.22-0.9l0.01,0.06c-0.81-0.14-1.58,0.05-2.25,0.54
				c-0.32,0.21-0.56,0.52-0.7,0.88c-0.12,0.34-0.14,0.71-0.12,1.06l-0.05-0.03c0.77-0.02,1.56-0.17,2.22-0.59
				c0.6-0.39,1.06-0.97,1.31-1.65c0.02-0.04,0.12-0.04,0.1,0.01c-0.27,0.7-0.75,1.3-1.38,1.7c-0.68,0.42-1.47,0.58-2.26,0.59
				c-0.02,0-0.05,0-0.05-0.03c-0.02-0.4,0.01-0.81,0.16-1.18c0.15-0.36,0.42-0.63,0.74-0.85c0.67-0.49,1.5-0.68,2.31-0.53
				c0.03,0.01,0.05,0.03,0.02,0.06c-0.36,0.26-0.71,0.52-1.06,0.78c-0.16,0.12-0.33,0.24-0.49,0.37c-0.06,0.04-0.18,0.11-0.17,0.17
				c0,0.07,0.08,0.18,0.1,0.24l-0.09-0.01l2.08-1.34C7.8,20.45,7.89,20.48,7.82,20.52z"/>
			<path class="st2" d="M10.1,20.16c-0.38,0.54-0.62,1.17-0.7,1.83c-0.07,0.57-0.05,1.19,0.22,1.71H9.52
				c0.9-0.83,1.52-2.45,0.8-3.59l0.1-0.03c-0.1,0.84-0.21,1.68-0.31,2.52c0,0.03-0.07,0.05-0.09,0.03
				c-0.11-0.07-0.22-0.09-0.21-0.22c0.02-0.24,0.04-0.48,0.06-0.71c0.04-0.52,0.09-1.04,0.14-1.56c0-0.04,0.11-0.06,0.1-0.01
				c-0.04,0.45-0.08,0.91-0.12,1.36c-0.02,0.22-0.04,0.44-0.05,0.65c-0.01,0.07-0.06,0.26-0.01,0.32c0.05,0.04,0.11,0.08,0.18,0.11
				l-0.09,0.03c0.11-0.84,0.21-1.68,0.31-2.52c0-0.03,0.08-0.06,0.1-0.03c0.73,1.16,0.11,2.81-0.81,3.65
				c-0.02,0.02-0.08,0.04-0.09,0c-0.27-0.54-0.29-1.19-0.21-1.78c0.08-0.65,0.33-1.28,0.71-1.81C10.04,20.09,10.14,20.1,10.1,20.16z
				"/>
			<path class="st2" d="M9.95,16.19c-0.24,0.5-0.21,1.1,0,1.61c0.19,0.47,0.57,0.91,1.08,1.02l-0.08,0.06
				c-0.25-0.5-0.51-1-0.76-1.49c-0.01-0.02,0.01-0.04,0.03-0.05l0.17-0.08c0.02-0.01,0.06-0.02,0.07,0.01l1.09,1.74l-0.1,0.04
				c-0.05-0.58-0.23-1.14-0.53-1.63c-0.29-0.44-0.65-0.84-1.06-1.18c-0.04-0.04,0.05-0.09,0.08-0.06c0.41,0.35,0.79,0.74,1.07,1.19
				c0.3,0.5,0.49,1.06,0.54,1.65c0,0.04-0.08,0.07-0.1,0.04l-1.09-1.74l0.07,0.01l-0.17,0.08l0.03-0.05l0.76,1.49
				c0.03,0.04-0.05,0.06-0.08,0.06c-1.1-0.23-1.57-1.76-1.12-2.7C9.87,16.14,9.98,16.14,9.95,16.19z"/>
			<path class="st3" d="M32.33,30.74c-0.07,0.03-0.14,0.04-0.21,0.04c-0.49-0.04-1.72-0.22-2.91-2.13l-5.64-9.07
				c3.96-0.5,6.16-3.08,6.16-6.66c0-4-2.8-6.63-7.7-6.63H15.8v1.06h5.01c5.01,0,6.83,2.37,6.83,5.56s-1.82,5.7-6.83,5.7H15.8V6.28
				h-4.1v0.35c0,0,2,0,2,2.13v19.88c0,2.09-2,2.09-2,2.09v0.35h6.13v-0.35c0,0-2.03,0-2.03-2.09v-8.96h5.97l7.11,11.41h3.44
				L32.33,30.74z"/>
		</g>
	</g>
</g>
</svg>
