<?xml version="1.0" encoding="utf-8"?>
<!-- Generator: Adobe Illustrator 24.1.0, SVG Export Plug-In . SVG Version: 6.00 Build 0)  -->
<svg version="1.1" id="Layer_1" xmlns="http://www.w3.org/2000/svg" xmlns:xlink="http://www.w3.org/1999/xlink" x="0px" y="0px"
	 viewBox="0 0 40 40.4" style="enable-background:new 0 0 40 40.4;" xml:space="preserve">
<style type="text/css">
	.st0{fill:#663399;}
</style>
<g id="_x33_lPDRk_2_">
	<g>
		<path class="st0" d="M20.1,36c-2.4,0-4.7-0.5-6.9-1.5c-0.1,0-0.2,0-0.3,0c-2.7,0.6-5.4,1.2-8.1,1.8c-0.2,0-0.3,0-0.2-0.2
			c0.3-1.6,0.5-3.2,0.8-4.8c0.2-1.2,0.4-2.3,0.6-3.5c0-0.1,0-0.2,0-0.2c-1-1.8-1.6-3.8-1.8-5.9c-0.4-3.8,0.4-7.3,2.5-10.5
			c2.4-3.7,5.8-6,10.1-6.9c5.3-1.1,10,0.2,14,3.8c2.6,2.3,4.2,5.2,4.9,8.5c1,4.8,0,9.3-3,13.2c-2.4,3.1-5.5,5-9.3,5.8
			C22.2,35.9,21.1,36.1,20.1,36z M7.8,32.9c0.1,0,0.1,0,0.1,0c1.8-0.4,3.6-0.8,5.3-1.3c0.2,0,0.3,0,0.4,0c2.1,1.1,4.4,1.7,6.8,1.6
			c0.9,0,1.8-0.2,2.7-0.4c7-1.7,11.3-8.7,9.8-15.7C31.4,10.4,24.9,6,18.1,7c-3,0.4-5.5,1.8-7.6,3.9c-3.2,3.3-4.4,7.9-3.3,12.3
			C7.5,24.6,8,25.8,8.8,27c0,0.1,0.1,0.2,0.1,0.2c-0.3,1.6-0.6,3.2-0.9,4.9C7.9,32.4,7.8,32.6,7.8,32.9z"/>
		<path class="st0" d="M14.8,12.3c0.2,0,0.3,0,0.5,0c0.3,0,0.5,0.1,0.6,0.4c0.1,0.2,0.2,0.4,0.3,0.6c0.3,0.8,0.6,1.7,0.9,2.5
			c0,0.1,0.1,0.2,0.1,0.3c0.1,0.2,0.1,0.5,0,0.7c-0.2,0.5-0.6,0.8-1,1.2c-0.1,0.1-0.1,0.1-0.2,0.2c-0.2,0.2-0.3,0.4-0.1,0.7
			c0.4,0.6,0.7,1.1,1.1,1.7c1.1,1.5,2.5,2.6,4.2,3.3c0.4,0.2,0.6,0.1,0.9-0.2c0.4-0.5,0.9-1,1.3-1.5c0.2-0.2,0.4-0.3,0.6-0.2
			c0.2,0,0.3,0.1,0.5,0.2c1,0.5,1.9,1,2.9,1.5c0.3,0.2,0.4,0.4,0.4,0.7c0,0.5-0.2,1.1-0.4,1.6c-0.1,0.1-0.2,0.3-0.3,0.4
			c-0.6,0.7-1.4,1.2-2.4,1.3c-0.8,0.1-1.6,0.1-2.3-0.2c-1.5-0.5-2.9-1-4.2-1.8c-1.5-1-2.8-2.3-3.9-3.8c-0.7-1-1.4-1.9-1.9-3
			c-0.4-0.8-0.6-1.6-0.7-2.4c-0.1-1.5,0.5-2.8,1.6-3.8c0.3-0.3,0.6-0.4,1-0.4C14.6,12.3,14.7,12.3,14.8,12.3
			C14.8,12.3,14.8,12.3,14.8,12.3z"/>
	</g>
</g>
</svg>
