<svg xmlns="http://www.w3.org/2000/svg" viewBox="0 0 209.85 201.75"><defs><style>.cls-1{opacity:0.8;}.cls-2{fill:#f4f1ee;}</style></defs><g id="Layer_2" data-name="Layer 2"><g id="iconos"><g class="cls-1"><path class="cls-2" d="M79.75,106.41c0-1.17,0-2.26,0-3.34,0-8.68,0-17.35,0-26a1.55,1.55,0,0,1,1.36-1.82c7.7-2.29,15.36-4.71,23.07-7a6.06,6.06,0,0,1,3.16.06c4.11,1.14,8.18,2.43,12.42,3.71,0-.61.08-1.06.08-1.51,0-9.19,0-18.39,0-27.58a1.94,1.94,0,0,1,1.7-2.24c7.65-2.25,15.28-4.61,22.94-6.86a4.55,4.55,0,0,1,2.4,0c3.92,1.09,7.81,2.27,11.72,3.41.38.12.78.18,1.32.3V33.7c0-8.31,0-16.61,0-24.92,0-1.08.21-1.63,1.38-2,7.57-2.17,15.11-4.44,22.67-6.65a3.21,3.21,0,0,1,1.65-.1Q197.42,3.6,209.24,7.2a4.92,4.92,0,0,1,.61.28c0,.53,0,1.13,0,1.74q0,66.38,0,132.75a1.84,1.84,0,0,1-1.34,2.06q-22.55,9.15-45.06,18.4-23.61,9.66-47.23,19.32-24.33,9.93-48.72,19.79a3.72,3.72,0,0,1-2.61,0Q34.71,188.26,4.58,174.94C.05,172.94,0,173,0,168.05c0-5.43,0-10.87,0-16.3a2.08,2.08,0,0,1,1.68-2.32c11.76-4.29,23.49-8.66,35.26-12.93a2.51,2.51,0,0,0,2-2.88c-.11-7.1,0-14.21-.08-21.31,0-1.55.53-2.1,2-2.51,7.52-2.16,15-4.42,22.49-6.71a7.69,7.69,0,0,1,4.88,0c3.51,1.16,7.07,2.18,10.62,3.25A6.09,6.09,0,0,0,79.75,106.41Zm-11.4,88.83c5.57-2.29,10.85-4.49,16.16-6.65q24.84-10.16,49.69-20.28,34.32-14,68.66-28.05a2,2,0,0,0,1.43-2.16q0-61.36,0-122.71c0-.46,0-.91-.06-1.45a4.54,4.54,0,0,0-.68.1c-4.7,1.58-9.37,3.22-14.1,4.71-1.35.42-1.68,1-1.68,2.4q0,55-.09,110a2.37,2.37,0,0,1-1.75,2.63c-10.92,4.31-21.8,8.72-32.7,13.07q-28.27,11.3-56.55,22.55c-9.06,3.62-18.13,7.22-27.17,10.87-.47.19-1.1.78-1.1,1.19C68.32,186,68.35,190.46,68.35,195.24Zm80-63.57c5.94-2.15,11.5-4.21,17.11-6.17a1.77,1.77,0,0,0,1.36-2q0-37.22,0-74.42V47.12c-5.67,1.83-11.05,3.62-16.49,5.28a2.34,2.34,0,0,0-2,2.7q.09,33.6,0,67.21Zm-138,20.55c.77.37,1.26.62,1.76.84q25.58,10.84,51.13,21.72a6.1,6.1,0,0,0,5.15,0c13.67-5.57,27.39-11,41.09-16.51q31.17-12.47,62.35-24.89c2.15-.86,4.32-1.67,6.49-2.5a25,25,0,0,0-5.83-1.18,8.59,8.59,0,0,0-3.46.37c-14.62,5.11-29.15,10.48-43.84,15.4-19.29,6.46-38.69,12.58-58,18.8a3.7,3.7,0,0,1-2.37-.1c-8.25-3.52-16.47-7.14-24.72-10.66a1.77,1.77,0,0,1-1.24-2c.06-3.18,0-6.35,0-9.79ZM127.23,81.84c-.63.14-1,.2-1.41.32-5.27,1.68-10.52,3.41-15.8,5a1.86,1.86,0,0,0-1.62,2.14q.07,27.41,0,54.82c0,.39.07.78.11,1.29,6.1-2.09,12.07-4.12,18-6.23.36-.12.64-1,.64-1.5q0-26.62,0-53.26Zm54.34,34.62.36,0V19.24l-16.41-5.53v25.5c1.8.56,3.56,1,5.25,1.69A2.29,2.29,0,0,1,172,42.38c.52,3.35.9,6.72,1.33,10.08q1.93,15.12,3.88,30.25,1.82,14.12,3.65,28.22Q181.21,113.71,181.57,116.46Zm-119,77.89c0-4.58,0-8.85-.05-13.12,0-.41-.66-1-1.13-1.18q-27-11.55-54-23c-.56-.24-1.13-.44-1.83-.71,0,4,.06,7.72,0,11.48A2,2,0,0,0,7,170q21.74,9.48,43.42,19ZM125.42,73.52c1.74.53,3.45,1.16,5.22,1.58a2.32,2.32,0,0,1,1.93,2.21c1.28,7.46,2.64,14.9,3.94,22.35q2.84,16.26,5.64,32.52c.07.39.18.77.27,1.16.28-6.34.28-12.59.28-18.85q0-29.92,0-59.85a1.6,1.6,0,0,0-1.32-1.87c-2.25-.67-4.45-1.49-6.68-2.23-3.05-1-6.11-2-9.29-3Zm-57,84.66c6.31-1.94,12.28-3.81,18.27-5.6.9-.26.94-.76.94-1.49q0-16.38,0-32.76c0-.6-.05-1.19-.08-1.93-6,1.93-11.7,3.84-17.47,5.63a2,2,0,0,0-1.71,2.25c0,10.29,0,20.58,0,30.87Zm34.31-10.84c0-.67.07-.9.07-1.14q0-28.51,0-57a1.56,1.56,0,0,0-1.32-1.73c-4.91-1.62-9.79-3.29-14.68-4.94-.47-.16-1-.26-1.55-.41,0,7,0,13.86,0,20.69,0,1.67-.58,3.8.23,4.88s3,1.43,4.66,1.78c1.93.41,2.71,1.41,3.2,3.32,2.86,11.21,5.89,22.38,8.87,33.56A9.6,9.6,0,0,0,102.72,147.34Zm-40,10v-1.7q0-14.19,0-28.36c0-1.46.47-3.31-.24-4.26s-2.64-1.24-4.06-1.72c-4.59-1.55-9.18-3.06-14-4.65v1.86c0,9,.14,18-.09,26.94-.08,3,.61,4.83,3.64,5.45a5.77,5.77,0,0,1,1.14.51ZM50.42,112.78c5,1.66,9.67,3.2,14.32,4.7a2.39,2.39,0,0,0,1.35,0c4.88-1.55,9.74-3.14,15-4.84-3.4-1-6.52-1.64-9.46-2.76a15.14,15.14,0,0,0-11.6,0C57.05,111.07,53.88,111.75,50.42,112.78Zm70-34.69c-.18-.16-.24-.26-.33-.29q-7-2-14-4a1.66,1.66,0,0,0-.91,0C100.56,75.19,96,76.58,91.34,78c.18.16.27.32.4.36,4.36,1.44,8.71,2.88,13.08,4.29a2.1,2.1,0,0,0,1.19,0C110.78,81.18,115.53,79.64,120.38,78.09ZM160,43.51c-.62-.22-.94-.37-1.28-.46-3.55-1-7.12-2-10.64-3.09a7.86,7.86,0,0,0-5,0c-3.12,1-6.29,1.87-9.43,2.8-.65.19-1.28.42-2.3.76,4.28,1.44,8.13,2.68,11.95,4a5.77,5.77,0,0,0,4.17,0C151.49,46.18,155.6,44.93,160,43.51Zm11.2-33.75c4.65,1.57,8.83,3,13,4.36a3.26,3.26,0,0,0,1.93,0c3.56-1.17,7.09-2.42,10.63-3.64l1.79-.65L185.88,6.05a2.43,2.43,0,0,0-1.19-.18C180.3,7.1,175.93,8.38,171.16,9.76Z"/></g></g></g></svg>