<svg xmlns="http://www.w3.org/2000/svg" viewBox="0 0 250.81 167.09"><g id="Layer_2" data-name="Layer 2"><g id="iconos"><path d="M0,83.45c6.38-4.47,12.5-8.76,18.63-13L51.87,47.14Q72.08,33,92.29,18.85c8.55-6,17.09-12,25.67-18a5.1,5.1,0,0,1,2.61-.8c3.34-.09,6.69-.07,10,0a4.19,4.19,0,0,1,2.18.69q22.36,15.63,44.7,31.33,29.46,20.63,59,41.21c4.74,3.31,9.46,6.64,14.37,10.1-1,.72-1.82,1.38-2.7,2Q230.65,97.66,213.2,109.9,192.4,124.47,171.59,139q-19.36,13.56-38.71,27.12a5.31,5.31,0,0,1-2.73.9c-3.18.11-6.37.1-9.56,0a4.75,4.75,0,0,1-2.44-.8Q90.49,146.89,62.87,127.5L11.79,91.68C7.94,89,4.08,86.29,0,83.45Zm13.38,0c.45.36.72.6,1,.81Q29.9,95.1,45.39,106l55.81,39q11.47,8,22.91,16.11c1,.73,1.78.85,2.76,0s2-1.52,3.08-2.25l52.39-36.69L233,86.68c1.5-1.05,3-2.13,4.56-3.25-.55-.41-.92-.71-1.31-1q-24.33-17-48.66-34-30.51-21.34-61-42.73a1.8,1.8,0,0,0-2.47,0Q111,15.1,97.74,24.34,81,36.07,64.23,47.78L28.25,73Z"/><path d="M102,165H34.29V114.87c2.48,1.79,4.79,3.4,7,5.13.34.26.38,1,.38,1.58q0,16.8,0,33.59v2.29h1.92c16,0,32,0,47.92.09a4.71,4.71,0,0,1,2.67,1C96.77,160.53,99.19,162.67,102,165Z"/><path d="M149.22,165c2.77-2.44,5.37-4.79,8-7a2.92,2.92,0,0,1,1.76-.4q24.13,0,48.25,0h1.68c0-.63.09-1.14.09-1.66,0-11.3,0-22.61,0-33.91a2.63,2.63,0,0,1,1.24-2.62c2.08-1.34,4.06-2.83,6.26-4.38v50Z"/><path d="M208.94,9.92H207q-23.88,0-47.78,0A4.12,4.12,0,0,1,156.85,9c-2.55-2.06-5-4.23-7.72-6.52H216.5V51.94a58.52,58.52,0,0,0-4.83-3.31c-2.17-1.2-2.74-2.82-2.71-5.27.16-10.62.07-21.24.06-31.86C209,11,209,10.57,208.94,9.92Z"/><path d="M101.63,2.5c-2.83,2.43-5.53,4.78-8.3,7.07a2.79,2.79,0,0,1-1.63.35h-50v2c0,11.09,0,22.18,0,33.28a2.55,2.55,0,0,1-1.15,2.37c-2,1.42-4,2.9-6.26,4.51V2.5Z"/><path d="M54.94,144.31c6.8,0,13.27,0,19.74,0a4.77,4.77,0,0,1,2.55.9c2.84,2,5.6,4.16,8.65,6.45H47.59V124.41a40.6,40.6,0,0,0,4.64,3.25c2.33,1.18,2.89,2.91,2.76,5.37C54.79,136.73,54.94,140.44,54.94,144.31Z"/><path d="M203.21,151.73h-38.3c2.9-2.23,5.54-4.17,8.07-6.24a5.15,5.15,0,0,1,3.59-1.22c6.36.07,12.72,0,19.3,0v-4c0-3.19-.05-6.37,0-9.56a2.61,2.61,0,0,1,.88-1.78c2-1.58,4.16-3,6.42-4.64Z"/><path d="M47.6,15.7h38a48.23,48.23,0,0,0-4,3.18C78,22.4,73.85,23.55,68.88,23.12,64.36,22.73,59.77,23,55,23c0,.56-.09,1.06-.09,1.57,0,3.82,0,7.65-.08,11.47a2.93,2.93,0,0,1-.93,2c-2,1.58-4.08,3-6.34,4.67Z"/><path d="M165.25,15.72h37.93v27c-2.39-1.72-4.7-3.34-6.94-5.06-.3-.23-.32-.95-.33-1.44,0-4.3,0-8.59,0-13.17H194c-6,0-12,0-18,0a4.2,4.2,0,0,1-2.26-.81C171,20.17,168.26,18,165.25,15.72Z"/><path d="M102,106.87V59h47v47.89Zm7.56-40.29V99.31h31.86V66.58Z"/><path d="M171.9,119.69c0-3.12,0-5.92,0-8.72a1.92,1.92,0,0,1,.87-1.17q10.6-7.47,21.24-14.88l14.73-10.31c.51-.36,1-.75,1.64-1.24l-13.15-9.23Q185,65.52,172.64,56.89a1.84,1.84,0,0,1-.8-1.2c-.08-2.69,0-5.39,0-8.6l51.83,36.36Z"/><path d="M40.48,83.38c4.57,3.21,9,6.33,13.4,9.43q12.19,8.55,24.37,17.1A1.62,1.62,0,0,1,79,111c.07,2.79,0,5.58,0,8.74L27.36,83.43C44.54,71.34,61.6,59.35,79,47.1a42.67,42.67,0,0,0,0,5.58c.35,2.62-.59,4.2-2.8,5.69C67,64.65,57.9,71.13,48.73,77.55,46,79.44,43.36,81.34,40.48,83.38Z"/><path d="M86,115.55l39.51,27.58L165,115.49c0,3.09,0,5.83,0,8.56a2.28,2.28,0,0,1-1,1.41q-14.82,10.44-29.7,20.82c-2.47,1.73-5,3.44-7.39,5.25a1.85,1.85,0,0,1-2.6.07c-12.4-8.74-24.84-17.41-37.24-26.14a2.38,2.38,0,0,1-1-1.59C85.93,121.22,86,118.56,86,115.55Z"/><path d="M165,51.32l-39.48-27.8L86,51.25c0-3.18,0-6,0-8.85,0-.27.34-.61.61-.79q19.06-13.43,38.14-26.82c.21-.14.45-.26.74-.43l18.62,13.1c6.55,4.6,13.11,9.21,19.69,13.77A2.3,2.3,0,0,1,165,43.42C164.89,45.9,165,48.39,165,51.32Z"/></g></g></svg>