<svg xmlns="http://www.w3.org/2000/svg" 
viewBox="0 0 214.1 170.81"><g id="Layer_2" data-name="Layer 2">
   <style>
        path {
            fill: #120B1A;
        }
        @media (prefers-color-scheme: dark) {
            path { fill: #f4f1ee; }
        }
    </style>
<g id="iconos">
<path d="M191.72,58.19v38.7h-16v16.29h-4.59v57.63H0V63.39H114.18V51.07h16.43V31.89h24.18V56.17H134.24v12.7H119.92V84.26h11.83v-13h17.69v-13ZM114.26,68.93H5.78v96.25H165.27v-52H131.69V89.76H114.26Zm56,10h16V63.5H169.85V76.74h-15v13.1H137.26v17.72H155V91.46h15.22ZM149.36,37.32H136.19V50.85h13.17Zm20.76,70.3V97.07h-9.66v10.55ZM149.38,76.79h-12v7.49h12Zm14.9-13.24h-9.11v7.54h9.11Zm11.5,21v6.86h10.39V84.52Zm-47.32-21.1v-7h-8.54v7Z"/>
<path d="M180.38,13.45V33.82H159.52V13.45Zm-15.2,5.36v9.62h9.67V18.81Z"/>
<path d="M203.53,48.93H182.89V28.61h20.64ZM188.42,34.05v9.56H198V34.05Z"/>
<path d="M214.1,0V19.44h-20V0Zm-5.47,5.32h-9v8.9h9Z"/>
<path d="M197.57,58.4h14.34V72.66H197.57Zm4.65,4.72v4.93h5V63.12Z"/>
<path d="M172,40.21V54.27h-14V40.21Zm-4.63,4.57h-4.79v4.86h4.79Z"/>
</g></g>
</svg>