<svg xmlns="http://www.w3.org/2000/svg" viewBox="0 0 190.72 208.96"><g id="Layer_2" data-name="Layer 2"><g id="iconos"><path d="M27.61,132.1l-15.8-8.64c-3.55-1.95-7.08-3.93-10.64-5.83A2,2,0,0,1,0,115.51q0-31.38,0-62.76a2.1,2.1,0,0,1,1.24-2.06c9.21-5.41,18.39-10.87,27.6-16.28q29-17,58-34a2.11,2.11,0,0,1,2.52,0q15.6,9.51,31.27,18.93a2.74,2.74,0,0,1,1.57,2.69c-.06,9.09,0,18.17,0,27.25a2.16,2.16,0,0,0,1.25,2.19q28,15.93,55.92,31.92,5.07,2.9,10.2,5.66a2,2,0,0,1,1.21,2.07q0,27.89,0,55.75a2,2,0,0,1-1.08,2q-13,7.69-25.9,15.49a2.48,2.48,0,0,1-2.86-.12c-7-4-14-8.05-21.08-12.09l-26.34,17.16Q93.18,182.51,72.9,195.71,63.18,202,53.52,208.44a2.25,2.25,0,0,1-2.8.07Q29.59,196,8.4,183.51a2.08,2.08,0,0,1-1.23-2.06q.06-17.59,0-35.19a2.17,2.17,0,0,1,1.29-2.06q9-5.59,17.92-11.25C26.74,132.72,27.1,132.46,27.61,132.1ZM134.37,99.21c-.28.05-.39,0-.47.08-7.18,4.27-14.36,8.52-21.5,12.85a2.37,2.37,0,0,0-.8,1.74q-.07,12.08,0,24.14a2.6,2.6,0,0,1-1.48,2.59q-10.26,6-20.48,12.12L56.36,172.57c-.72.43-1.28.79-1.27,1.87.07,6.38,0,12.77,0,19.15,0,2.27,0,4.53,0,7,.75-.45,1.28-.74,1.79-1.07q18.95-12.37,37.91-24.76t37.77-24.39a3.33,3.33,0,0,0,1.82-3.29c-.08-9.24,0-18.48,0-27.72ZM116.56,27.64c-.73.41-1.21.67-1.69.95l-35.81,21Q59,61.36,38.91,73.09a2.22,2.22,0,0,0-1.27,2.2q.06,24.51,0,49c0,.44,0,.87.08,1.47.42-.24.69-.38.94-.54,7.11-4.48,14.2-9,21.32-13.43a2.16,2.16,0,0,0,1.14-2.11c0-7.89,0-15.78,0-23.67A2.21,2.21,0,0,1,62.3,83.8C72.23,78,82.13,72.1,92,66.26c7.82-4.61,15.66-9.17,23.46-13.8a2.16,2.16,0,0,0,1-1.47C116.58,43.31,116.56,35.63,116.56,27.64ZM8,53.06c8.83,5.3,17.36,10.43,25.92,15.49a2.3,2.3,0,0,0,1.92,0c4.14-2.38,8.21-4.86,12.33-7.28q28.65-16.78,57.32-33.55l9.19-5.36C107,17.6,99.34,13.17,92,8.37c-2.81-1.83-4.7-1.91-7.72-.1-20.33,12.19-40.84,24.07-61.29,36Zm6.91,93.56c12,7.1,23.84,14.07,35.64,21.09a2.7,2.7,0,0,0,3.21,0Q74.94,155,96.2,142.36l6.76-4.05c-.59-.37-1-.64-1.45-.89Q83.56,127,65.6,116.6a2.51,2.51,0,0,0-3.06.08Q51.82,123.57,41,130.33C32.4,135.73,23.78,141.09,14.93,146.62Zm167.58-55.1-2-1.15L159.31,78.31Q140.38,67.57,121.47,56.8a2.23,2.23,0,0,0-2.53,0c-5.93,3.54-11.88,7-17.82,10.51-.37.22-.69.5-1.07.78,1.43.83,2.72,1.59,4,2.33Q122,80.71,140,91c7.15,4.09,14.32,8.14,21.47,12.25a1.74,1.74,0,0,0,2.08,0c2.58-1.64,5.22-3.18,7.83-4.79C175,96.18,178.65,93.91,182.51,91.52ZM5.57,57.94v1.79q0,26.45,0,52.91a1.75,1.75,0,0,0,1.16,1.75q11.4,6.21,22.78,12.44l2.62,1.44V120q0-22.33,0-44.67a2,2,0,0,0-1.18-2c-2.12-1.2-4.16-2.53-6.25-3.78C18.39,65.65,12.1,61.87,5.57,57.94Zm127.3,35.44c-.19-.19-.25-.29-.34-.34Q114,82.44,95.44,71.8a1.8,1.8,0,0,0-2.11.07c-5.57,3.3-11.17,6.56-16.75,9.85-2.08,1.23-4.13,2.5-6.28,3.8.31.22.47.36.64.46q18.6,10.72,37.21,21.39a1.92,1.92,0,0,0,1.6-.1c2.22-1.24,4.38-2.56,6.56-3.88ZM49.56,201.21c0-8.9,0-17.4,0-25.91a2.66,2.66,0,0,0-1.51-2.69q-12.75-7.46-25.43-15c-3.24-1.92-6.46-3.87-9.91-6,0,.79,0,1.29,0,1.79,0,8,0,16.08,0,24.12a2.89,2.89,0,0,0,1.66,2.93c8.55,5,17.07,10,25.6,15.05C43.07,197.35,46.17,199.2,49.56,201.21ZM140,97.42c0,.37-.07.57-.07.76q0,23.21,0,46.41a2.38,2.38,0,0,0,1,1.65c3.44,2.12,6.94,4.15,10.43,6.19,2.71,1.58,5.45,3.13,8.35,4.8,0-.52.08-.81.08-1.1,0-15.42,0-30.84-.06-46.26a2.46,2.46,0,0,0-1.08-1.76c-4.51-2.66-9.08-5.22-13.63-7.81Zm45.1-.78a6.26,6.26,0,0,0-.63.26c-6.11,3.72-12.23,7.43-18.3,11.22a2.37,2.37,0,0,0-.76,1.78q0,22.82,0,45.63c0,.37.06.75.11,1.29,6.39-3.84,12.61-7.56,18.79-11.35a2.2,2.2,0,0,0,.75-1.64c0-5.71,0-11.42,0-17.13Zm-79.19,36.9c0-.7.07-1.15.07-1.6,0-5.81,0-11.62,0-17.43a3,3,0,0,0-1.71-3c-12.19-7-24.33-14-36.49-21A11.39,11.39,0,0,0,66.72,90c0,6.57,0,13,0,19.33A2.28,2.28,0,0,0,68,111.6q17,9.8,33.88,19.68C103.15,132,104.45,132.72,105.92,133.54Z"/></g></g></svg>