<svg xmlns="http://www.w3.org/2000/svg" viewBox="0 0 192.03 183.56"><g id="Layer_2" data-name="Layer 2"><g id="iconos"><path d="M0,89Q0,68,0,47.08a1.87,1.87,0,0,1,1.18-2c16.25-7.76,32.45-15.59,48.69-23.35C62.41,15.7,75,9.77,87.51,3.8,90,2.62,92.45,1.35,95,.23a2.83,2.83,0,0,1,2.1-.05q36,17.19,71.92,34.46c7.17,3.44,14.35,6.89,21.55,10.27A2.21,2.21,0,0,1,192,47.27Q192,89,192,130.7a2.37,2.37,0,0,1-1.59,2.33q-12.15,6.57-24.28,13.17-19.54,10.63-39.07,21.28c-9.68,5.29-19.33,10.63-29,15.89a2.22,2.22,0,0,1-1.82,0Q60.35,164.27,24.5,145.1q-11.58-6.18-23.15-12.32A2.07,2.07,0,0,1,0,130.66C.05,116.76,0,102.85,0,89ZM5.3,51.11v1.42q0,35,0,70a1.72,1.72,0,0,0,1.17,1.72q20.45,10.92,40.88,21.85,24.37,13,48.76,26a1.75,1.75,0,0,0,2,0q18.44-10.17,36.93-20.27,25.29-13.78,50.61-27.49a1.88,1.88,0,0,0,1.14-1.92q-.06-34.68,0-69.36V51.21l-2.18,1q-16.6,8.31-33.21,16.62c-14.44,7.2-28.89,14.35-43.31,21.56a2.54,2.54,0,0,0-1.16,1.45q-5.16,19.22-10.24,38.45c-.12.45-.32.89-.61,1.67l-.32-1.12q-5.14-19.3-10.28-38.6a2.77,2.77,0,0,0-1.66-2c-2.63-1.25-5.2-2.62-7.81-3.92L16.83,56.88Zm3.79-3.93L83,84c-4.7-17.75-9.29-35.13-13.89-52.5l.47-.28L96.46,58.07,123,31.59C118.34,49,113.72,66.35,109,84L183,47.15c-5.44-2.59-10.56-5-15.67-7.46Q132.54,23,97.8,6.36a3.68,3.68,0,0,0-3.61,0Q63.53,21.14,32.84,35.81Z"/></g></g></svg>