<svg xmlns="http://www.w3.org/2000/svg" viewBox="0 0 218.68 136.58"><g id="Layer_2" data-name="Layer 2"><g id="iconos"><path d="M118.27,83.94v8.8H9.3v29H118.16v9H5.43C2,130.66,0,128.73,0,125.25q0-18,0-36.09a4.9,4.9,0,0,1,5.28-5.24l111.55,0Z"/><path d="M110.87,52.68V43.9H209.4V15H111V6.06H213.06c3.65,0,5.58,1.94,5.58,5.59q0,17.66,0,35.31c0,3.81-1.9,5.74-5.76,5.74l-70.3,0H110.87Z"/><path d="M149.9,77.91h21.25A7.73,7.73,0,0,1,179.3,86q0,21.09,0,42.18c0,5.05-3.27,8.31-8.31,8.31l-42.65.05a7.8,7.8,0,0,1-8-8q0-21.4,0-42.81a7.75,7.75,0,0,1,7.9-7.91Zm-.12,9H131.35c-2.23,0-2.24,0-2.24,2.27q0,18,0,35.93c0,2.38.07,2.46,2.44,2.46l36.24,0c2.62,0,2.66,0,2.65-2.75,0-12-.06-24,0-36.08,0-1.49-.49-1.85-1.9-1.84C162.28,86.92,156,86.88,149.78,86.88Z"/><path d="M79.31,58.19H58.23a7.61,7.61,0,0,1-8-8q0-20.94,0-41.86c0-5,3.29-8.32,8.28-8.31q21.16,0,42.32.05A7.86,7.86,0,0,1,109,8.34q0,20.69,0,41.38c0,5.31-3.15,8.47-8.43,8.47Zm.32-8.93h18c2.51,0,2.55,0,2.55-2.5q0-18,0-36.08c0-1.32-.44-1.86-1.82-1.86q-18.83,0-37.65,0c-1.3,0-1.73.44-1.72,1.72Q59,29,59,47.39c0,1.42.46,1.91,1.9,1.9C67.13,49.23,73.38,49.26,79.63,49.26Z"/><path d="M48.08,6.06v8.81H9.29V43.79H48.1V52.7H46.63l-40.77,0C1.77,52.73,0,50.9,0,46.8q0-17.49,0-35C0,8,1.91,6.05,5.75,6.05H48.08Z"/><path d="M181.24,130.55v-8.73h28.18v-29H181.31V84h31.87c3.44,0,5.49,2,5.49,5.38q0,18,0,36.09c0,3.1-2,5.22-5,5.23q-15.86,0-31.71,0A7.6,7.6,0,0,1,181.24,130.55Z"/></g></g></svg>