<svg xmlns="http://www.w3.org/2000/svg" viewBox="0 0 231.15 188.23">
   <style>
        path {
            fill: #120B1A;
        }
        @media (prefers-color-scheme: dark) {
            path { fill: #f4f1ee; }
        }
    </style>
<g id="Layer_2" data-name="Layer 2"><g id="iconos"><path d="M215.38,90.15c5,2.58,9.55,5,14.21,7.36a2.33,2.33,0,0,1,1.56,2.44c-.09,6.11-.07,12.22,0,18.32a2,2,0,0,1-1.12,2c-18.71,11.12-37.44,22.2-56.1,33.41q-27.72,16.65-55.29,33.54c-2.23,1.36-3.73,1.42-6,0Q83.56,169.47,54.33,152,27.74,136.07,1.06,120.26a1.86,1.86,0,0,1-1-1.84c0-6.27.05-12.53,0-18.79a2,2,0,0,1,1.25-2c4.74-2.42,9.46-4.88,14.37-7.42-1.55-.89-3-1.73-4.47-2.55-3.29-1.84-6.58-3.7-9.91-5.48a2,2,0,0,1-1.24-2C.05,73.71,0,67.3.07,60.88a2.26,2.26,0,0,1,1-1.64Q27.24,45.61,53.48,32.06q25.4-13.2,50.72-26.48c3.49-1.82,6.92-3.72,10.45-5.45a2.89,2.89,0,0,1,2.22.26c9.41,4.88,18.78,9.82,28.18,14.72q24.33,12.7,48.68,25.36,18.15,9.44,36.34,18.84a1.62,1.62,0,0,1,1,1.65c0,6.47,0,12.94-.06,19.41a2.26,2.26,0,0,1-1,1.6C225.29,84.69,220.49,87.32,215.38,90.15ZM136.6,17.5a12.68,12.68,0,0,0-1.2-.8c-6.4-3.36-12.81-6.74-19.25-10a2.29,2.29,0,0,0-1.79.2C105.23,11.62,96.15,16.45,87,21.19Q53.17,38.78,19.28,56.32L8.91,61.73l73.33,40.11,5.23-11.18L36.1,62.7c1.78-.91,3.3-1.67,4.81-2.46q20-10.49,40-21c11.26-5.92,22.49-11.89,33.75-17.79a2.15,2.15,0,0,1,1.74,0c4.08,2.13,8.11,4.34,12.17,6.51.61.32,1.29.84,1.87-.12C132.44,24.41,134.51,21,136.6,17.5ZM120.44,30.92c-13.52,30-27,59.83-40.45,89.75L100.15,134l-13.8,30,12.58,7.87,19.25-42L94.66,114.71Q111.32,75.56,128,36.42ZM222,61.72,160.48,29.83l-5.49,12L194.84,62.7l-68.31,37.42c4,2.3,7.51,4.33,11,6.41a2.38,2.38,0,0,0,2.68,0c8.61-4.72,17.27-9.35,25.89-14.07q17.34-9.5,34.64-19.07Zm-81-41.93c-13,30.55-25.87,60.89-38.77,91.27l26.41,15.34c2.31-5,4.49-9.65,6.75-14.51l-17.07-9.78c1.44-1.19,2.86-2.32,4.2-3.53a6,6,0,0,0,1.53-1.88Q136,70.53,147.73,44.31c2.54-5.64,5.06-11.29,7.62-17ZM103.66,175c3.82,2.3,7.6,4.6,11.43,6.83a1.71,1.71,0,0,0,1.35-.24c5.1-3,10.18-6.12,15.27-9.19q19.71-11.9,39.42-23.79,17.13-10.32,34.31-20.56c6.3-3.77,12.61-7.5,18.91-11.28.35-.21.83-.62.84-1,.06-3.55,0-7.09,0-10.82-.51.26-.87.43-1.21.63-3.75,2.08-7.51,4.14-11.25,6.25l-41.72,23.53c-14.59,8.23-29.2,16.4-43.71,24.76-2.42,1.39-4.13,1.4-6.33-.27-2.5-1.88-5.3-3.35-8-5Zm31-47.72a6.29,6.29,0,0,0,.8-.24c14.5-7.65,29.07-15.14,43.45-23,15.25-8.31,30.32-16.95,45.46-25.46.36-.2.83-.62.83-1,.06-3.6,0-7.2,0-11.06-2.71,1.43-5.23,2.71-7.71,4.07q-23.5,12.92-47,25.86c-9.42,5.17-18.89,10.27-28.33,15.42A2.85,2.85,0,0,0,141,113C138.87,117.67,136.84,122.35,134.66,127.28ZM198,102.63,116.3,150c2.39,1.51,4.82,3,7.18,4.56a1.7,1.7,0,0,0,2.08.05q16-9.09,32-18.11,30.16-17,60.34-34c1.33-.75,2.63-1.53,4.19-2.44-4.05-2-7.85-3.82-11.66-5.62a1.46,1.46,0,0,0-1.22.13c-4.16,2.66-8.15,5.6-13.31,7ZM5.78,104.79c0,3.87,0,7.33,0,10.79a1.9,1.9,0,0,0,.91,1.22c7.66,4.61,15.36,9.17,23,13.77q21,12.6,42,25.23c3.14,1.88,6.3,3.72,9.58,5.65l5.19-11Zm0-38.33c0,3.89,0,7.45,0,11a1.7,1.7,0,0,0,.85,1.09C14,82.79,21.46,87,28.86,91.21Q50,103.33,71,115.53c1.36.78,2.75,1.51,4.18,2.29,1.65-3.7,3.22-7.21,4.81-10.75ZM9,100.1l79.83,45.07,2.11-4.51L32.77,102.52l1.52-.84A26.7,26.7,0,0,1,30.18,100c-2.77-1.7-5.42-3.6-8.15-5.39-.36-.24-1-.49-1.3-.34C16.88,96.1,13.07,98,9,100.1ZM115.89,27.69a6.23,6.23,0,0,0-1.6.31Q86.93,42.4,59.59,56.84c-3.73,2-7.48,3.88-11.48,6,3,1.66,5.86,3.15,8.63,4.73a2.3,2.3,0,0,0,2.54,0q7.95-4.35,16-8.56c11.21-5.87,22.44-11.7,33.65-17.58a3.4,3.4,0,0,0,1.38-1.5C112.12,36.06,113.86,32.15,115.89,27.69ZM152.68,47c-1.28,2.74-2.53,5.39-3.79,8.09a2.33,2.33,0,0,0,.45.38q11.52,6.23,23.07,12.4a1.57,1.57,0,0,0,1.25-.08c1.7-.88,3.35-1.84,5-2.77l4-2.27Z"/></g></g></svg>