<svg xmlns="http://www.w3.org/2000/svg" viewBox="0 0 587.99 525.25"><defs><style>.cls-1{fill:#655284;}.cls-2{fill:#cabfd7;}.cls-3{fill:#191928;}.cls-4{fill:#c5a059;}.cls-5{fill:#26201b;}</style></defs><g id="Layer_2" data-name="Layer 2"><g id="Layer_2-2" data-name="Layer 2"><polygon class="cls-1" points="0 392.59 141.08 411.63 368.32 140.53 388.8 111.35 298.39 0 0 392.59"/></g><g id="Layer_3" data-name="Layer 3"><polygon class="cls-2" points="390.8 116.52 367.5 155.96 204.36 414.11 476.85 460.71 492.98 444.58 390.8 116.52"/></g><g id="Layer_4" data-name="Layer 4"><polygon class="cls-3" points="390.8 116.52 587.99 362.12 495.81 441 390.8 116.52"/></g><g id="Layer_5" data-name="Layer 5"><polyline class="cls-3" points="587.99 362.12 587.99 405.85 475.06 525.25 476.85 460.71 491.57 440.2 390.8 116.52"/><polygon class="cls-3" points="204.36 414.11 163.13 475.06 475.06 525.25 476.85 460.71 204.36 414.11"/></g><g id="Layer_6" data-name="Layer 6"><polygon class="cls-4" points="390.8 116.52 97.89 464.95 168.08 475.06 390.8 116.52"/></g><g id="Layer_7" data-name="Layer 7"><polygon class="cls-5" points="391.04 114.39 368.72 83.22 97.4 405.85 97.89 464.95 391.04 114.39"/></g></g></svg>