<!-- Generator: Adobe Illustrator 24.1.0, SVG Export Plug-In  -->
<svg version="1.1" xmlns="http://www.w3.org/2000/svg" xmlns:xlink="http://www.w3.org/1999/xlink" x="0px" y="0px" width="40px"
	 height="40px" viewBox="0 0 40 40" style="enable-background:new 0 0 40 40;" xml:space="preserve">
<style type="text/css">
	.st0{fill:#102542;}
</style>
<defs>
</defs>
<g id="Cv4fqa.tif_2_">
	<g>
		<path class="st0" d="M32.45,40c-8.3,0-16.6,0-24.9,0c-0.02-0.01-0.03-0.02-0.05-0.02c-0.38-0.05-0.76-0.09-1.13-0.15
			c-0.87-0.16-1.68-0.48-2.43-0.93c-0.77-0.45-1.45-1.02-2.02-1.71c-0.35-0.41-0.66-0.85-0.92-1.33c-0.32-0.58-0.57-1.2-0.74-1.85
			c-0.13-0.49-0.22-0.99-0.23-1.5c0-0.02-0.02-0.04-0.02-0.06c0-8.3,0-16.6,0-24.9c0.01-0.01,0.02-0.02,0.02-0.04
			c0.02-0.18,0.04-0.36,0.05-0.54c0.04-0.44,0.14-0.86,0.27-1.28c0.17-0.58,0.41-1.12,0.71-1.65C1.4,3.43,1.82,2.88,2.32,2.37
			c0.21-0.21,0.44-0.41,0.67-0.6c0.39-0.32,0.81-0.6,1.25-0.83c0.52-0.28,1.06-0.5,1.63-0.65C6.5,0.12,7.13,0,7.78,0
			c7.99,0,15.98,0,23.97,0c0.43,0,0.85,0.02,1.27,0.07c0.44,0.06,0.87,0.15,1.29,0.27c0.58,0.17,1.12,0.41,1.65,0.71
			c0.59,0.33,1.12,0.73,1.6,1.2C37.8,2.49,38.03,2.73,38.23,3c0.28,0.38,0.55,0.77,0.79,1.18c0.31,0.53,0.53,1.1,0.69,1.69
			C39.88,6.49,40,7.11,40,7.75c0.01,7.93,0,15.86,0,23.79c0,0.43-0.02,0.87-0.05,1.3c-0.02,0.29-0.07,0.59-0.13,0.87
			c-0.18,0.79-0.46,1.54-0.87,2.25c-0.34,0.6-0.76,1.14-1.23,1.63c-0.17,0.18-0.36,0.33-0.54,0.49c-0.4,0.36-0.85,0.66-1.33,0.92
			c-0.58,0.32-1.18,0.56-1.82,0.73c-0.5,0.13-1,0.22-1.51,0.24C32.49,39.98,32.47,39.99,32.45,40z M7.2,28.08c0.06,0,0.11,0,0.16,0
			c2.5,0,4.99,0,7.49,0c0.34,0,0.69-0.02,1.03-0.05c0.33-0.03,0.66-0.09,0.99-0.15c0.73-0.13,1.39-0.46,2.02-0.85
			c0.34-0.22,0.62-0.51,0.87-0.83c0.23-0.3,0.46-0.62,0.58-0.99c0.11-0.32,0.19-0.65,0.25-0.98c0.04-0.22,0.06-0.46,0.05-0.69
			c-0.02-0.35-0.07-0.7-0.12-1.05c-0.05-0.41-0.16-0.8-0.35-1.16c-0.23-0.43-0.5-0.84-0.89-1.15c-0.25-0.2-0.51-0.39-0.78-0.55
			c-0.25-0.14-0.52-0.24-0.8-0.36c0.02-0.01,0.04-0.02,0.06-0.03c0.41-0.2,0.79-0.44,1.11-0.76c0.4-0.4,0.71-0.86,0.84-1.42
			c0.08-0.36,0.11-0.73,0.13-1.1c0.01-0.17-0.03-0.35-0.04-0.53c-0.05-0.5-0.19-0.96-0.43-1.4c-0.41-0.77-1.07-1.23-1.85-1.54
			c-0.43-0.17-0.9-0.23-1.36-0.3c-0.43-0.06-0.87-0.12-1.3-0.12c-2.51-0.01-5.02-0.01-7.52-0.01c-0.04,0-0.09,0-0.14,0
			C7.2,17.41,7.2,22.74,7.2,28.08z M34.33,24c-0.93,0-1.83,0-2.73,0c-0.06,0-0.09,0.02-0.11,0.08c-0.25,0.57-0.63,1.03-1.19,1.3
			c-0.3,0.15-0.62,0.23-0.96,0.27c-0.5,0.05-0.99,0.01-1.46-0.14c-0.65-0.22-1.12-0.65-1.42-1.27c-0.16-0.33-0.27-0.67-0.3-1.05
			c2.74,0,5.48,0,8.25,0c-0.01-0.27-0.02-0.53-0.04-0.79c-0.03-0.44-0.05-0.89-0.1-1.33c-0.03-0.32-0.09-0.63-0.16-0.94
			c-0.14-0.62-0.33-1.22-0.66-1.76c-0.19-0.3-0.4-0.6-0.63-0.87c-0.15-0.18-0.34-0.33-0.52-0.48c-0.31-0.25-0.65-0.44-1.02-0.59
			c-0.4-0.16-0.81-0.28-1.24-0.33c-0.28-0.03-0.56-0.08-0.84-0.09c-0.4-0.02-0.8,0.01-1.2,0.07c-0.43,0.07-0.85,0.16-1.26,0.29
			c-0.41,0.13-0.79,0.3-1.16,0.52c-0.49,0.3-0.93,0.67-1.3,1.11c-0.37,0.44-0.64,0.94-0.84,1.47c-0.24,0.63-0.36,1.29-0.39,1.96
			c-0.03,0.64-0.02,1.27,0.09,1.9c0.13,0.73,0.35,1.42,0.74,2.06c0.32,0.53,0.73,0.99,1.23,1.37c0.62,0.47,1.32,0.79,2.07,1
			c0.57,0.15,1.15,0.25,1.74,0.23c0.24,0,0.48-0.02,0.71-0.05c0.34-0.05,0.68-0.11,1.01-0.2c0.65-0.18,1.25-0.48,1.77-0.92
			c0.29-0.25,0.58-0.52,0.83-0.81c0.35-0.42,0.64-0.88,0.85-1.38C34.17,24.43,34.24,24.22,34.33,24z M28.8,14.4
			c1.05,0,2.11,0,3.16,0c0.27,0,0.5-0.1,0.67-0.32c0.18-0.25,0.22-0.52,0.09-0.81c-0.14-0.3-0.38-0.47-0.7-0.47
			c-2.14-0.01-4.29-0.01-6.43,0c-0.45,0-0.77,0.33-0.78,0.78c-0.01,0.47,0.34,0.81,0.8,0.81C26.67,14.41,27.74,14.4,28.8,14.4z"/>
		<path class="st0" d="M11.2,25.6c0-1.61,0-3.19,0-4.8c0.05,0,0.09,0,0.13,0c0.95,0,1.91-0.01,2.86,0.01
			c0.59,0.01,1.17,0.13,1.67,0.49c0.29,0.21,0.5,0.47,0.64,0.8c0.12,0.29,0.18,0.6,0.2,0.91c0.05,0.62-0.15,1.16-0.52,1.64
			c-0.38,0.49-0.91,0.75-1.5,0.87c-0.22,0.04-0.46,0.07-0.68,0.07c-0.88,0.01-1.77,0-2.65,0C11.3,25.6,11.26,25.6,11.2,25.6z"/>
		<path class="st0" d="M11.2,18.4c0-1.34,0-2.66,0-4c0.05,0,0.09,0,0.14,0c0.75,0,1.51-0.01,2.26,0c0.41,0,0.81,0.06,1.19,0.21
			c0.6,0.23,1.01,0.65,1.15,1.29c0.1,0.48,0.07,0.96-0.11,1.41c-0.19,0.48-0.57,0.77-1.05,0.93c-0.31,0.1-0.63,0.15-0.95,0.15
			c-0.82,0-1.65,0-2.47,0C11.31,18.4,11.26,18.4,11.2,18.4z"/>
		<path class="st0" d="M31.27,20.87c-1.7,0-3.4,0-5.1,0c0.01-0.42,0.13-0.81,0.31-1.18c0.2-0.43,0.54-0.74,0.94-0.98
			c0.3-0.18,0.64-0.26,0.99-0.28c0.18-0.01,0.36-0.03,0.53-0.02c0.53,0.02,1.04,0.15,1.46,0.49c0.33,0.26,0.55,0.61,0.67,1.01
			c0.09,0.29,0.14,0.59,0.2,0.89C31.28,20.82,31.27,20.84,31.27,20.87z"/>
	</g>
</g>
</svg>
