<!-- Generator: Adobe Illustrator 24.1.0, SVG Export Plug-In  -->
<svg version="1.1" xmlns="http://www.w3.org/2000/svg" xmlns:xlink="http://www.w3.org/1999/xlink" x="0px" y="0px" width="64px"
	 height="64px" viewBox="0 0 64 64" style="enable-background:new 0 0 64 64;" xml:space="preserve">
<defs>
</defs>
<g id="Cv4fqa.tif_1_">
	<g>
		<path d="M51.92,64c-13.28,0-26.56,0-39.84,0c-0.03-0.01-0.05-0.03-0.08-0.04c-0.6-0.08-1.21-0.14-1.81-0.24
			c-1.39-0.25-2.68-0.78-3.89-1.49c-1.23-0.73-2.31-1.63-3.24-2.73c-0.56-0.66-1.05-1.37-1.47-2.12c-0.52-0.93-0.92-1.92-1.18-2.95
			c-0.2-0.79-0.35-1.58-0.37-2.4c0-0.03-0.02-0.07-0.04-0.1c0-13.28,0-26.56,0-39.84c0.01-0.02,0.04-0.04,0.04-0.06
			c0.03-0.29,0.06-0.58,0.08-0.86c0.06-0.7,0.23-1.38,0.43-2.05c0.27-0.92,0.66-1.8,1.13-2.64C2.23,5.49,2.92,4.6,3.71,3.8
			c0.34-0.34,0.71-0.65,1.08-0.96c0.62-0.52,1.29-0.95,2-1.33c0.83-0.44,1.7-0.79,2.61-1.04c1-0.27,2.01-0.45,3.04-0.45
			C25.23,0,38.02,0,50.8,0c0.68,0,1.36,0.02,2.04,0.11c0.7,0.09,1.39,0.24,2.06,0.44c0.93,0.27,1.8,0.66,2.64,1.13
			c0.94,0.53,1.78,1.18,2.56,1.92c0.38,0.37,0.75,0.77,1.07,1.19c0.45,0.61,0.88,1.23,1.26,1.88c0.5,0.85,0.84,1.76,1.11,2.71
			c0.27,0.98,0.45,1.99,0.46,3C64,25.08,64,37.77,64,50.46c0,0.69-0.03,1.39-0.08,2.08c-0.04,0.47-0.1,0.94-0.21,1.4
			c-0.28,1.27-0.74,2.47-1.39,3.6c-0.55,0.96-1.21,1.82-1.97,2.61c-0.27,0.28-0.57,0.53-0.86,0.79c-0.65,0.58-1.36,1.06-2.12,1.48
			c-0.92,0.51-1.9,0.9-2.92,1.16c-0.79,0.2-1.6,0.35-2.42,0.38C51.99,63.96,51.95,63.99,51.92,64z M11.53,44.92c0.1,0,0.18,0,0.26,0
			c3.99,0,7.99,0,11.98,0c0.55,0,1.1-0.03,1.64-0.08c0.53-0.05,1.06-0.14,1.59-0.24c1.17-0.21,2.23-0.73,3.23-1.36
			c0.55-0.35,1-0.82,1.39-1.33c0.37-0.49,0.74-0.99,0.93-1.58c0.17-0.51,0.3-1.04,0.4-1.57c0.07-0.36,0.1-0.74,0.08-1.1
			c-0.03-0.56-0.12-1.12-0.19-1.68c-0.08-0.65-0.26-1.28-0.57-1.86c-0.37-0.69-0.8-1.35-1.42-1.84c-0.4-0.32-0.81-0.62-1.25-0.87
			c-0.4-0.23-0.84-0.38-1.27-0.57c0.04-0.02,0.06-0.03,0.09-0.05c0.65-0.32,1.26-0.71,1.77-1.22c0.64-0.64,1.14-1.38,1.34-2.27
			c0.13-0.57,0.17-1.17,0.22-1.75c0.02-0.28-0.05-0.56-0.07-0.84c-0.07-0.8-0.31-1.54-0.68-2.25c-0.65-1.22-1.71-1.96-2.96-2.46
			c-0.7-0.28-1.44-0.37-2.17-0.47c-0.69-0.1-1.39-0.19-2.08-0.2c-4.01-0.02-8.03-0.01-12.04-0.01c-0.07,0-0.14,0-0.22,0
			C11.53,27.86,11.53,36.38,11.53,44.92z M54.93,38.4c-1.48,0-2.92,0-4.36,0c-0.1,0-0.14,0.04-0.18,0.13
			c-0.39,0.92-1,1.64-1.91,2.09c-0.48,0.24-1,0.37-1.54,0.43c-0.8,0.09-1.58,0.02-2.34-0.23c-1.04-0.35-1.79-1.04-2.27-2.02
			c-0.25-0.52-0.43-1.07-0.47-1.68c4.38,0,8.77,0,13.19,0c-0.02-0.44-0.03-0.85-0.06-1.27c-0.05-0.71-0.09-1.42-0.16-2.13
			c-0.05-0.51-0.15-1.01-0.25-1.51c-0.22-0.99-0.53-1.95-1.06-2.82c-0.3-0.49-0.64-0.96-1.01-1.4c-0.24-0.29-0.54-0.52-0.83-0.76
			c-0.49-0.41-1.05-0.71-1.64-0.95c-0.64-0.26-1.29-0.45-1.98-0.53c-0.45-0.05-0.9-0.13-1.35-0.15c-0.64-0.03-1.28,0.01-1.92,0.11
			c-0.69,0.1-1.35,0.25-2.01,0.47c-0.65,0.21-1.27,0.48-1.85,0.83c-0.79,0.48-1.48,1.07-2.07,1.78c-0.59,0.71-1.02,1.5-1.34,2.36
			c-0.38,1.01-0.58,2.07-0.63,3.14c-0.05,1.02-0.04,2.04,0.14,3.05c0.21,1.17,0.57,2.27,1.18,3.29c0.52,0.86,1.17,1.59,1.96,2.2
			c0.99,0.76,2.11,1.27,3.31,1.6c0.91,0.25,1.83,0.39,2.78,0.38c0.38-0.01,0.77-0.03,1.14-0.08c0.54-0.08,1.08-0.17,1.61-0.32
			c1.04-0.29,2-0.77,2.83-1.47c0.47-0.4,0.93-0.83,1.33-1.3c0.56-0.67,1.02-1.41,1.36-2.21C54.67,39.08,54.79,38.75,54.93,38.4z
			 M46.08,23.04c1.69,0,3.37,0,5.06,0c0.44,0,0.81-0.15,1.07-0.51c0.29-0.4,0.36-0.83,0.15-1.29c-0.22-0.48-0.61-0.75-1.13-0.75
			c-3.43-0.01-6.86-0.02-10.3,0c-0.72,0-1.23,0.53-1.25,1.25c-0.02,0.75,0.54,1.3,1.28,1.3C42.67,23.05,44.38,23.04,46.08,23.04z"/>
		<path d="M17.92,40.96c0-2.57,0-5.11,0-7.68c0.07,0,0.14,0,0.21,0c1.53,0,3.05-0.02,4.58,0.01c0.95,0.02,1.87,0.21,2.67,0.79
			c0.46,0.33,0.8,0.76,1.02,1.29c0.2,0.47,0.28,0.95,0.32,1.46c0.08,1-0.24,1.85-0.84,2.62c-0.61,0.78-1.45,1.2-2.41,1.39
			c-0.36,0.07-0.73,0.12-1.09,0.12c-1.41,0.01-2.83,0.01-4.24,0.01C18.08,40.96,18.01,40.96,17.92,40.96z"/>
		<path d="M17.93,29.44c0-2.14,0-4.26,0-6.4c0.08,0,0.15,0,0.22,0c1.21,0,2.41-0.01,3.62,0c0.65,0.01,1.3,0.1,1.9,0.34
			c0.96,0.37,1.62,1.04,1.85,2.07c0.17,0.77,0.12,1.54-0.18,2.26c-0.31,0.76-0.91,1.23-1.69,1.48c-0.5,0.16-1.01,0.24-1.53,0.24
			c-1.32,0.01-2.64,0-3.96,0C18.09,29.44,18.02,29.44,17.93,29.44z"/>
		<path d="M50.03,33.39c-2.73,0-5.45,0-8.17,0c0.01-0.67,0.21-1.29,0.49-1.89c0.32-0.69,0.86-1.19,1.5-1.58
			c0.49-0.3,1.02-0.41,1.58-0.45c0.28-0.02,0.57-0.05,0.85-0.04c0.85,0.03,1.66,0.24,2.34,0.78c0.53,0.42,0.88,0.98,1.08,1.62
			c0.14,0.47,0.22,0.95,0.33,1.43C50.05,33.3,50.03,33.35,50.03,33.39z"/>
	</g>
</g>
</svg>
