<?xml version="1.0" encoding="utf-8"?>
<!-- Generator: Adobe Illustrator 24.1.0, SVG Export Plug-In . SVG Version: 6.00 Build 0)  -->
<svg version="1.1" id="Layer_1" xmlns="http://www.w3.org/2000/svg" xmlns:xlink="http://www.w3.org/1999/xlink" x="0px" y="0px"
	 viewBox="0 0 40 40" style="enable-background:new 0 0 40 40;" xml:space="preserve">
<style type="text/css">
	.st0{fill:#663399;}
</style>
<g id="Cv4fqa.tif_2_">
	<g>
		<path class="st0" d="M30,36c-6.6,0-13.3,0-19.9,0c0,0,0,0,0,0c-0.3,0-0.6-0.1-0.9-0.1c-0.7-0.1-1.3-0.4-1.9-0.7
			c-0.6-0.4-1.2-0.8-1.6-1.4c-0.3-0.3-0.5-0.7-0.7-1.1c-0.3-0.5-0.5-1-0.6-1.5C4.1,30.8,4,30.4,4,30c0,0,0,0,0,0C4,23.3,4,16.7,4,10
			c0,0,0,0,0,0c0-0.1,0-0.3,0-0.4c0-0.4,0.1-0.7,0.2-1c0.1-0.5,0.3-0.9,0.6-1.3c0.3-0.5,0.6-0.9,1-1.3C6,5.7,6.2,5.6,6.4,5.4
			c0.3-0.3,0.6-0.5,1-0.7c0.4-0.2,0.8-0.4,1.3-0.5C9.2,4.1,9.7,4,10.2,4C16.6,4,23,4,29.4,4c0.3,0,0.7,0,1,0.1c0.4,0,0.7,0.1,1,0.2
			c0.5,0.1,0.9,0.3,1.3,0.6c0.5,0.3,0.9,0.6,1.3,1c0.2,0.2,0.4,0.4,0.5,0.6C34.8,6.7,35,7,35.2,7.3c0.2,0.4,0.4,0.9,0.6,1.4
			c0.1,0.5,0.2,1,0.2,1.5c0,6.3,0,12.7,0,19c0,0.3,0,0.7,0,1c0,0.2-0.1,0.5-0.1,0.7c-0.1,0.6-0.4,1.2-0.7,1.8
			c-0.3,0.5-0.6,0.9-1,1.3c-0.1,0.1-0.3,0.3-0.4,0.4c-0.3,0.3-0.7,0.5-1.1,0.7c-0.5,0.3-0.9,0.4-1.5,0.6C30.8,35.9,30.4,36,30,36
			C30,36,30,36,30,36z M9.8,26.5c0,0,0.1,0,0.1,0c2,0,4,0,6,0c0.3,0,0.6,0,0.8,0c0.3,0,0.5-0.1,0.8-0.1c0.6-0.1,1.1-0.4,1.6-0.7
			c0.3-0.2,0.5-0.4,0.7-0.7c0.2-0.2,0.4-0.5,0.5-0.8c0.1-0.3,0.2-0.5,0.2-0.8c0-0.2,0-0.4,0-0.6c0-0.3-0.1-0.6-0.1-0.8
			c0-0.3-0.1-0.6-0.3-0.9c-0.2-0.3-0.4-0.7-0.7-0.9c-0.2-0.2-0.4-0.3-0.6-0.4c-0.2-0.1-0.4-0.2-0.6-0.3c0,0,0,0,0,0
			c0.3-0.2,0.6-0.4,0.9-0.6c0.3-0.3,0.6-0.7,0.7-1.1c0.1-0.3,0.1-0.6,0.1-0.9c0-0.1,0-0.3,0-0.4c0-0.4-0.2-0.8-0.3-1.1
			c-0.3-0.6-0.9-1-1.5-1.2c-0.3-0.1-0.7-0.2-1.1-0.2c-0.3,0-0.7-0.1-1-0.1c-2,0-4,0-6,0c0,0-0.1,0-0.1,0C9.8,17.9,9.8,22.2,9.8,26.5
			z M31.5,23.2c-0.7,0-1.5,0-2.2,0c0,0-0.1,0-0.1,0.1c-0.2,0.5-0.5,0.8-1,1c-0.2,0.1-0.5,0.2-0.8,0.2c-0.4,0-0.8,0-1.2-0.1
			c-0.5-0.2-0.9-0.5-1.1-1c-0.1-0.3-0.2-0.5-0.2-0.8c2.2,0,4.4,0,6.6,0c0-0.2,0-0.4,0-0.6c0-0.4,0-0.7-0.1-1.1
			c0-0.3-0.1-0.5-0.1-0.8c-0.1-0.5-0.3-1-0.5-1.4c-0.2-0.2-0.3-0.5-0.5-0.7c-0.1-0.1-0.3-0.3-0.4-0.4c-0.2-0.2-0.5-0.4-0.8-0.5
			c-0.3-0.1-0.6-0.2-1-0.3c-0.2,0-0.4-0.1-0.7-0.1c-0.3,0-0.6,0-1,0.1c-0.3,0.1-0.7,0.1-1,0.2c-0.3,0.1-0.6,0.2-0.9,0.4
			c-0.4,0.2-0.7,0.5-1,0.9c-0.3,0.4-0.5,0.8-0.7,1.2c-0.2,0.5-0.3,1-0.3,1.6c0,0.5,0,1,0.1,1.5c0.1,0.6,0.3,1.1,0.6,1.6
			c0.3,0.4,0.6,0.8,1,1.1c0.5,0.4,1.1,0.6,1.7,0.8c0.5,0.1,0.9,0.2,1.4,0.2c0.2,0,0.4,0,0.6,0c0.3,0,0.5-0.1,0.8-0.2
			c0.5-0.1,1-0.4,1.4-0.7c0.2-0.2,0.5-0.4,0.7-0.6c0.3-0.3,0.5-0.7,0.7-1.1C31.3,23.5,31.4,23.4,31.5,23.2z M27,15.5
			c0.8,0,1.7,0,2.5,0c0.2,0,0.4-0.1,0.5-0.3c0.1-0.2,0.2-0.4,0.1-0.6c-0.1-0.2-0.3-0.4-0.6-0.4c-1.7,0-3.4,0-5.1,0
			c-0.4,0-0.6,0.3-0.6,0.6c0,0.4,0.3,0.6,0.6,0.6C25.3,15.5,26.2,15.5,27,15.5z"/>
		<path class="st0" d="M13,24.5c0-1.3,0-2.6,0-3.8c0,0,0.1,0,0.1,0c0.8,0,1.5,0,2.3,0c0.5,0,0.9,0.1,1.3,0.4
			c0.2,0.2,0.4,0.4,0.5,0.6c0.1,0.2,0.1,0.5,0.2,0.7c0,0.5-0.1,0.9-0.4,1.3c-0.3,0.4-0.7,0.6-1.2,0.7c-0.2,0-0.4,0.1-0.5,0.1
			c-0.7,0-1.4,0-2.1,0C13,24.5,13,24.5,13,24.5z"/>
		<path class="st0" d="M13,18.7c0-1.1,0-2.1,0-3.2c0,0,0.1,0,0.1,0c0.6,0,1.2,0,1.8,0c0.3,0,0.6,0,1,0.2c0.5,0.2,0.8,0.5,0.9,1
			c0.1,0.4,0.1,0.8-0.1,1.1c-0.2,0.4-0.5,0.6-0.8,0.7c-0.2,0.1-0.5,0.1-0.8,0.1c-0.7,0-1.3,0-2,0C13,18.7,13,18.7,13,18.7z"/>
		<path class="st0" d="M29,20.7c-1.4,0-2.7,0-4.1,0c0-0.3,0.1-0.6,0.2-0.9c0.2-0.3,0.4-0.6,0.8-0.8c0.2-0.1,0.5-0.2,0.8-0.2
			c0.1,0,0.3,0,0.4,0c0.4,0,0.8,0.1,1.2,0.4c0.3,0.2,0.4,0.5,0.5,0.8C28.9,20.2,29,20.4,29,20.7C29,20.7,29,20.7,29,20.7z"/>
	</g>
</g>
</svg>
