<?xml version="1.0" encoding="utf-8"?>
<!-- Generator: Adobe Illustrator 24.1.0, SVG Export Plug-In . SVG Version: 6.00 Build 0)  -->
<svg version="1.1" id="Layer_1" xmlns="http://www.w3.org/2000/svg" xmlns:xlink="http://www.w3.org/1999/xlink" x="0px" y="0px"
	 viewBox="0 0 503 415.2" style="enable-background:new 0 0 503 415.2;" xml:space="preserve">
<style type="text/css">
	.st0{fill:#FFFFFF;}
</style>
<g>
	<g id="XMLID_1_">
		<g>
			<path class="st0" d="M441.5,227.3c22.8,21,31.6,62.6,10.2,95.6c-21.8,33.5-66,43.8-99.1,25.4
				C382.3,307.9,411.9,267.6,441.5,227.3z"/>
			<path class="st0" d="M320.4,244.1c18.6-33.2,53.8-46.3,84.4-39.8c-25.1,42-50.2,84-75.3,125.9C311.3,311,303.4,274.5,320.4,244.1
				z"/>
			<path d="M458.4,224.4c26.7,32.7,26.5,82.3-0.6,114.6c-26.5,31.7-70.6,41.3-108.6,23.7c-1.8-0.8-3.6-1.7-5.7-2.7
				c-8.5,8.2-17.1,16.5-25.7,24.7c-8.5,8.2-17.1,16.4-25.3,24.4c4.6-10.9,9.3-22.2,14.2-33.5c4.3-10.2,8.7-20.4,13.2-30.4
				c0.9-2,0.2-3.1-0.9-4.5c-6.5-7.7-11.7-16.2-15.5-25.6c-1.7-4.3-3-8.8-4.5-13.3c-0.7,0-1.5-0.1-2.3-0.1c-37.7,0-75.4,0-113.1-0.1
				c-2.3,0-3.2,0.8-3.9,2.9c-11.8,34.2-43.8,55.6-79.9,53.5c-36.6-2.1-68.1-31.5-72.9-68c-5.5-42.4,23.7-81.4,65.8-87.7
				c11.7-1.7,23.4-1.1,34.8,2.4c2.2,0.7,3.4,0.3,4.9-1.6c17.9-23.6,35.9-47.2,54.1-70.6c1.5-1.9,1.2-3.1,0.1-4.9
				c-16.9-27.1-17.6-54.7-0.9-81.8c12.7-20.7,31.8-32.4,56-35.6c33.6-4.4,69.6,15.4,81.5,52.3c7,21.6,4.6,42.5-7.1,62.1
				c-1,1.7-2.1,3.4-3.1,5.1c-0.1,0.2-0.1,0.4-0.3,0.9c9,11.8,18,23.7,27.1,35.6c6.2,8.2,12.5,16.5,18.8,24.7c1,1.3,1.8,2,3.6,1.4
				c16.6-5,33.5-5.1,50.4-2c4.9,0.9,9.7,1.6,15.2,2.6c-37.9,62.1-75.7,123.9-113.4,185.6c35.6-48.3,71.2-96.8,105.9-145.8
				c-0.4-0.3-0.8-0.7-1.2-1l-21.2,19.9c1.9-3.1,3.5-6.5,5.6-9.4c8.2-11.2,16.4-22.2,24.8-33.2c0.6-0.8,2.1-1.3,3.1-1.2
				c4,0.4,6.7-0.9,9-4.5c5.4-8.3,11.4-16.2,17.3-24.5c0,7.7,0.1,15,0,22.3c-0.1,6.6-0.4,13.3-0.4,19.9
				C457.2,222.1,457.6,223.5,458.4,224.4z M451.7,322.9c21.4-33,12.6-74.6-10.2-95.6c-29.6,40.3-59.2,80.5-88.9,120.9
				C385.7,366.7,429.9,356.4,451.7,322.9z M404.8,204.3c-30.7-6.5-65.9,6.6-84.4,39.8c-17,30.4-9.1,67,9.1,86.2
				C354.6,288.2,379.7,246.3,404.8,204.3z M300,256.8c4.2-15.7,12.2-29.3,24-41c-15.3-20.3-30.5-40.5-45.1-59.8
				c-9.4,1.5-17.9,3.4-26.6,4.1c-9.4,0.8-18.7-1.2-27.6-4.3c-2-0.7-3.1-0.5-4.4,1.3c-14.4,19-28.8,38-43.3,56.9
				c-3.8,5-7.7,10-11.6,15c0.3,0.5,0.5,0.9,0.7,1.2c6.6,8.2,11.5,17.4,14.5,27.5c0.6,2.1,2,1.8,3.4,1.8c37.5,0,74.9,0,112.4,0
				C298.6,259.4,299.5,258.8,300,256.8z M303,118.3c16.7-24,11.2-59.6-11.9-79.3c-24.8-21.1-60.8-20.1-84,2.5
				c-22.6,22.1-24.1,54.5-9.4,76.3c6.7-8.9,13.4-17.7,20.3-26.8c10.2,7.3,20.1,14.3,29.9,21.5c1.5,1.1,2.5,1.2,3.9,0.1
				c2.3-1.7,4.6-3.4,6.9-5c7.8-5.4,15.6-10.8,23.8-16.4C289.5,100.6,296.2,109.4,303,118.3z M269.5,142.9
				c-6.5-8.8-12.8-17.4-19.3-26.1c-6.5,8.7-12.8,17.1-19.4,25.9C243.9,147,256.5,147.2,269.5,142.9z M142.1,259.7
				c8.2,0,16.2,0,24.5,0c-2.5-7.2-5.7-13.4-10.4-19.1c-4.8,6.2-9.4,12.1-14.1,18.1c-11.5-8.3-22.6-16.3-33.7-24.3
				c4.3-5.8,8.4-11.1,12.5-16.6c-34.2-9.2-70.2,12.2-78.7,46.5c-8.5,34.3,13.4,69.7,47.9,77.9c34.9,8.2,66.7-14.4,75.1-40.6
				c-9.3,0-18.5,0-27.8,0c0-14,0-27.8,0-41.8C139.1,259.7,140.6,259.7,142.1,259.7z"/>
		</g>
		<g>
		</g>
	</g>
</g>
<circle class="st0" cx="250.4" cy="84.1" r="63"/>
<circle class="st0" cx="105.5" cy="276.7" r="65"/>
</svg>
