<!-- Generator: Adobe Illustrator 24.1.0, SVG Export Plug-In  -->
<svg version="1.1" xmlns="http://www.w3.org/2000/svg" xmlns:xlink="http://www.w3.org/1999/xlink" x="0px" y="0px"
	 width="502.96px" height="415.16px" viewBox="0 0 502.96 415.16" style="enable-background:new 0 0 502.96 415.16;"
	 xml:space="preserve">
<style type="text/css">
	.st0{fill:#080808;}
</style>
<defs>
</defs>
<g id="lv8Tau.tif_1_">
	<g>
		<path class="st0" d="M0,169.75c0.36-0.89,0.81-1.76,1.06-2.68c4.43-16.35,18.14-27.13,35.08-27.21
			c25.11-0.12,50.23-0.69,75.31,0.15c24.66,0.83,48.25-3.42,71.46-11.09c48.82-16.12,94.41-38.33,134.4-71.08
			c6.03-4.94,11.49-10.58,17.41-15.67c3.39-2.91,4.65-6.14,4.77-10.71c0.34-13.32,6.86-23.14,19.07-28.51
			c12.06-5.31,23.46-3.32,33.53,5.07c6.98,5.82,10.5,13.57,11.04,22.63c0.13,2.15,0.06,4.32,0.06,6.48c0,113.18,0,226.36,0,339.54
			c0,22.57-5.86,30.94-26.95,38.5c-3.33,0-6.65,0-9.98,0c-17.74-4.93-27.25-16.14-27.05-35c0.02-1.54-1.08-3.49-2.27-4.59
			c-8.17-7.55-16.12-15.41-24.86-22.27c-40.61-31.89-86.42-53.72-135.57-68.79c-11.51-3.53-23.35-5.95-35.26-8.93
			c-0.74,2.67-1.21,4.23-1.61,5.81c-6.59,26.23-13.16,52.46-19.77,78.68c-2.11,8.36-5.79,11.17-14.55,11.18
			c-11.64,0.02-23.28,0.02-34.91,0c-10.13-0.02-14.52-4.43-14.53-14.61c-0.02-25.26-0.01-50.52-0.01-75.78c0-1.74,0-3.48,0-5.4
			c-7.45,0-14.1,0.2-20.74-0.04c-12.89-0.48-22.99-6.23-29.74-17.19c-2.38-3.87-3.64-8.43-5.41-12.67C0,220.29,0,195.02,0,169.75z
			 M143.88,252.35c36.31,6.07,70.29,18.31,103.22,33.62c33.01,15.35,63.9,34.18,91.97,58.43c0-91.56,0-182.07,0-273.07
			c-57.56,47.19-122.69,77.23-195.19,92.07C143.88,192.81,143.88,222.36,143.88,252.35z M379.25,207.66c0-57.19,0-114.39,0-171.58
			c0-1.66,0.16-3.36-0.13-4.98c-0.78-4.29-3.44-6.9-7.85-6.89c-4.41,0-7.06,2.59-7.86,6.89c-0.27,1.45-0.12,2.98-0.12,4.48
			c0,114.72,0,229.44,0,344.16c0,1.5-0.15,3.03,0.12,4.48c0.79,4.3,3.45,6.9,7.85,6.9c4.41,0,7.07-2.6,7.86-6.9
			c0.3-1.61,0.13-3.32,0.13-4.98C379.25,322.04,379.25,264.85,379.25,207.66z M119.51,164.09c-13.32,0-26.34,0-39.31,0
			c0,29.29,0,58.25,0,87.22c13.26,0,26.16,0,39.31,0C119.51,222.23,119.51,193.39,119.51,164.09z M55.7,163.81
			c-7.07,0-13.7-0.21-20.31,0.06c-6.46,0.26-11.3,5.09-11.35,11.6c-0.16,21.42-0.15,42.84-0.01,64.26
			c0.04,6.14,4.38,11.19,10.26,11.58c7.05,0.47,14.15,0.11,21.41,0.11C55.7,222.12,55.7,193.28,55.7,163.81z M98.51,347.08
			c5.97-23.92,11.86-47.51,17.77-71.21c-12.49,0-24.35,0-36.2,0c0,23.9,0,47.44,0,71.21C86.24,347.08,92.15,347.08,98.51,347.08z"/>
		<path class="st0" d="M432.41,133.04c-6.45,0-10.86-3.28-12.42-8.55c-1.53-5.15,0.24-10.87,5.11-13.32
			c12.73-6.4,25.58-12.6,38.58-18.42c5.64-2.53,11.9,0.59,14.49,6.2c2.71,5.88,0.62,12.53-5.58,15.64
			c-12,6.02-24.17,11.7-36.31,17.43C434.82,132.71,433.11,132.87,432.41,133.04z"/>
		<path class="st0" d="M480.39,310.61c-1.22,8.98-9.13,15.18-16.58,11.96c-13.06-5.64-25.85-11.93-38.54-18.38
			c-5.56-2.82-7.18-9.59-4.58-15.12c2.56-5.44,9.01-8.6,14.6-6.08c12.98,5.84,25.86,11.95,38.4,18.64
			C476.68,303.22,478.2,307.54,480.39,310.61z"/>
		<path class="st0" d="M471.13,219.62c-6.47,0-12.94,0.1-19.41-0.03c-7.36-0.14-12.59-5.24-12.56-12
			c0.03-6.76,5.26-11.81,12.67-11.87c12.78-0.11,25.55-0.1,38.33-0.01c7.45,0.06,12.69,4.99,12.8,11.74
			c0.12,6.94-5.23,12.03-12.91,12.15C483.75,219.7,477.44,219.63,471.13,219.62z"/>
	</g>
</g>
</svg>
