<?xml version="1.0" encoding="utf-8"?>
<!-- Generator: Adobe Illustrator 24.1.0, SVG Export Plug-In . SVG Version: 6.00 Build 0)  -->
<svg version="1.1" xmlns="http://www.w3.org/2000/svg" xmlns:xlink="http://www.w3.org/1999/xlink" x="0px" y="0px"
	 viewBox="0 0 510.7 511.1" style="enable-background:new 0 0 510.7 511.1;" xml:space="preserve">
<style type="text/css">
	.st0{display:none;}
	.st1{display:inline;}
	.st2{display:inline;fill:#080808;}
	.st3{display:inline;fill:#FFFFFF;}
	.st4{fill:none;stroke:#080808;stroke-width:48;stroke-linecap:round;stroke-miterlimit:10;}
</style>
<g id="Layer_1" class="st0">
	<g id="zQzsVR.tif_1_" class="st1">
		<g>
			<path d="M307.4,0c4,3.1,8.4,5.8,12,9.4c29.6,29.4,59,59,88.7,88.4c4.9,4.9,7.3,10.2,7.2,17.2c-0.3,19.9-0.1,39.9-0.1,60.2
				c-10.6,0-21,0-31.9,0c0-15.7,0-31.4,0-47.5c-2.3,0-4.1,0-5.9,0c-18.6,0-37.3,0.1-55.9,0c-20.6-0.1-34-13.4-34.1-34.1
				c-0.1-18.6,0-37.3,0-55.9c0-1.8,0-3.6,0-5.9c-2.2,0-4,0-5.8,0c-76.7,0-153.4,0-230,0c-13.9,0-19.7,5.7-19.7,19.7
				c0,135.9,0,271.8,0,407.6c0,14.2,5.7,19.8,20,19.8c33.9,0,67.9,0,101.8,0c1.8,0,3.6,0,5.6,0c0,10.7,0,20.9,0,31.9
				c-1.6,0-3.4,0-5.1,0c-34.4,0-68.9-0.3-103.3,0.1c-26.5,0.3-47.3-17.6-50.4-41.6c-0.1-0.5-0.4-0.9-0.6-1.4C0,326.4,0,184.6,0,42.9
				c0.3-0.8,0.7-1.5,0.8-2.3C2.6,28.7,8.3,19,17.5,11.1C24.8,4.8,33.7,2,42.9,0C131.1,0,219.2,0,307.4,0z"/>
			<path d="M415.2,415.1c-10.9,0-21,0-31.6,0c0-34.6,0-69.1,0-104.7c-1.7,1.4-2.7,2-3.5,2.8c-5.7,5.6-11.3,11.3-17,16.8
				c-7.4,7-16.2,6.9-23.5-0.1c-3.2-3.1-6.4-6.3-9.5-9.5c-3.1-3.2-6.1-6.5-10.2-10.9c0,36,0,70.5,0,105.3c-10.9,0-21.2,0-32,0
				c-0.1-1.4-0.2-2.9-0.2-4.3c0-45.6,0-91.1,0-136.7c0-1.8,0-3.7,0.4-5.5c1.4-5.9,4.9-10,10.8-11.9c6.4-2,11.8-0.2,16.4,4.3
				c10.6,10.5,21.2,21.1,31.8,31.7c1.3,1.3,2.4,2.8,4,4.6c1.6-1.5,2.8-2.6,3.9-3.7c10.4-10.3,20.7-20.7,31.1-31
				c6.6-6.6,13-8.4,19.7-5.4c7.5,3.4,9.7,9.7,9.7,17.5c-0.1,45.2,0,90.5,0,135.7C415.2,411.7,415.2,413.2,415.2,415.1z"/>
			<path d="M64.2,255.7c10.6,0,20.8,0,31.5,0c0,21.1,0,42,0,63.3c10.7,0,21.1,0,32,0c0-21,0-42,0-63.3c10.8,0,21,0,31.6,0
				c0,52.9,0,105.9,0,159.1c-10.4,0-20.7,0-31.5,0c0-21.1,0-42,0-63.2c-10.7,0-21.1,0-32,0c0,21,0,42,0,63.3c-10.8,0-21,0-31.6,0
				C64.2,362,64.2,309,64.2,255.7z"/>
			<path d="M239.7,415c-11.1,0-21.4,0-31.9,0c0-42.4,0-84.6,0-127.2c-10.7,0-21.1,0-31.8,0c0-10.9,0-21.2,0-31.9
				c31.7,0,63.3,0,95.2,0c0,10.4,0,20.6,0,31.4c-10.3,0-20.6,0-31.5,0C239.7,330,239.7,372.3,239.7,415z"/>
			<path d="M462.9,383.3c16.4,0,32,0,47.8,0c0,10.6,0,20.8,0,31.5c-1.1,0.1-2.4,0.4-3.7,0.4c-19.5,0-38.9,0.1-58.3,0
				c-11,0-17.5-6.4-17.5-17.2c0-46.5,0-93.1,0-139.6c0-0.7,0.1-1.3,0.1-2.4c10.4,0,20.7,0,31.6,0C462.9,298,462.9,340.3,462.9,383.3
				z"/>
		</g>
	</g>
</g>
<g id="Layer_2" class="st0">
	<circle class="st2" cx="160.9" cy="164.7" r="160"/>
	<circle class="st2" cx="431.2" cy="81.7" r="80"/>
</g>
<g id="Layer_3" class="st0">
	<circle class="st3" cx="161.2" cy="165" r="106.7"/>
	<circle class="st3" cx="431.2" cy="81.7" r="53.3"/>
	<circle class="st2" cx="391.1" cy="391.7" r="120"/>
	<circle class="st3" cx="391.3" cy="394.2" r="80"/>
	<circle class="st2" cx="391.1" cy="391.7" r="120"/>
	<circle class="st3" cx="391.3" cy="394.2" r="80"/>
	<circle class="st2" cx="120.9" cy="404.5" r="40"/>
	<circle class="st3" cx="121" cy="405.3" r="26.7"/>
	<rect x="-237" y="-10" style="display:inline;fill:none;" width="199" height="255"/>
</g>
<g id="Layer_4">
	<path class="st4" d="M454.4,53.9c0.1,0.1,0.1,0.1,0.2,0.2l-400,187.2l399.8,212.4"/>
</g>
</svg>
