<?xml version="1.0" encoding="utf-8"?>
<!-- Generator: Adobe Illustrator 24.1.0, SVG Export Plug-In . SVG Version: 6.00 Build 0)  -->
<svg version="1.1" id="Layer_1" xmlns="http://www.w3.org/2000/svg" xmlns:xlink="http://www.w3.org/1999/xlink" x="0px" y="0px"
	 viewBox="0 0 510.7 511.1" style="enable-background:new 0 0 510.7 511.1;" xml:space="preserve">
<style type="text/css">
	.st0{display:none;}
	.st1{display:inline;}
	.st2{display:inline;fill:#080808;}
	.st3{display:inline;fill:#FFFFFF;}
	.st4{display:inline;fill:none;}
</style>
<g id="Layer_1_1_" class="st0">
	<g id="zQzsVR.tif_1_" class="st1">
		<g>
			<path d="M307.4,0c4,3.1,8.4,5.8,12,9.4c29.6,29.4,59,59,88.7,88.4c4.9,4.9,7.3,10.2,7.2,17.2c-0.3,19.9-0.1,39.9-0.1,60.2
				c-10.6,0-21,0-31.9,0c0-15.7,0-31.4,0-47.5c-2.3,0-4.1,0-5.9,0c-18.6,0-37.3,0.1-55.9,0c-20.6-0.1-34-13.4-34.1-34.1
				c-0.1-18.6,0-37.3,0-55.9c0-1.8,0-3.6,0-5.9c-2.2,0-4,0-5.8,0c-76.7,0-153.4,0-230,0c-13.9,0-19.7,5.7-19.7,19.7
				c0,135.9,0,271.8,0,407.6c0,14.2,5.7,19.8,20,19.8c33.9,0,67.9,0,101.8,0c1.8,0,3.6,0,5.6,0c0,10.7,0,20.9,0,31.9
				c-1.6,0-3.4,0-5.1,0c-34.4,0-68.9-0.3-103.3,0.1c-26.5,0.3-47.3-17.6-50.4-41.6c-0.1-0.5-0.4-0.9-0.6-1.4C0,326.4,0,184.6,0,42.9
				c0.3-0.8,0.7-1.5,0.8-2.3C2.6,28.7,8.3,19,17.5,11.1C24.8,4.8,33.7,2,42.9,0C131.1,0,219.2,0,307.4,0z"/>
			<path d="M415.2,415.1c-10.9,0-21,0-31.6,0c0-34.6,0-69.1,0-104.7c-1.7,1.4-2.7,2-3.5,2.8c-5.7,5.6-11.3,11.3-17,16.8
				c-7.4,7-16.2,6.9-23.5-0.1c-3.2-3.1-6.4-6.3-9.5-9.5s-6.1-6.5-10.2-10.9c0,36,0,70.5,0,105.3c-10.9,0-21.2,0-32,0
				c-0.1-1.4-0.2-2.9-0.2-4.3c0-45.6,0-91.1,0-136.7c0-1.8,0-3.7,0.4-5.5c1.4-5.9,4.9-10,10.8-11.9c6.4-2,11.8-0.2,16.4,4.3
				c10.6,10.5,21.2,21.1,31.8,31.7c1.3,1.3,2.4,2.8,4,4.6c1.6-1.5,2.8-2.6,3.9-3.7c10.4-10.3,20.7-20.7,31.1-31
				c6.6-6.6,13-8.4,19.7-5.4c7.5,3.4,9.7,9.7,9.7,17.5c-0.1,45.2,0,90.5,0,135.7C415.2,411.7,415.2,413.2,415.2,415.1z"/>
			<path d="M64.2,255.7c10.6,0,20.8,0,31.5,0c0,21.1,0,42,0,63.3c10.7,0,21.1,0,32,0c0-21,0-42,0-63.3c10.8,0,21,0,31.6,0
				c0,52.9,0,105.9,0,159.1c-10.4,0-20.7,0-31.5,0c0-21.1,0-42,0-63.2c-10.7,0-21.1,0-32,0c0,21,0,42,0,63.3c-10.8,0-21,0-31.6,0
				C64.2,362,64.2,309,64.2,255.7z"/>
			<path d="M239.7,415c-11.1,0-21.4,0-31.9,0c0-42.4,0-84.6,0-127.2c-10.7,0-21.1,0-31.8,0c0-10.9,0-21.2,0-31.9
				c31.7,0,63.3,0,95.2,0c0,10.4,0,20.6,0,31.4c-10.3,0-20.6,0-31.5,0C239.7,330,239.7,372.3,239.7,415z"/>
			<path d="M462.9,383.3c16.4,0,32,0,47.8,0c0,10.6,0,20.8,0,31.5c-1.1,0.1-2.4,0.4-3.7,0.4c-19.5,0-38.9,0.1-58.3,0
				c-11,0-17.5-6.4-17.5-17.2c0-46.5,0-93.1,0-139.6c0-0.7,0.1-1.3,0.1-2.4c10.4,0,20.7,0,31.6,0C462.9,298,462.9,340.3,462.9,383.3
				z"/>
		</g>
	</g>
</g>
<g id="Layer_2_1_" class="st0">
	<circle class="st2" cx="160.9" cy="164.7" r="160"/>
	<circle class="st2" cx="431.2" cy="81.7" r="80"/>
</g>
<g id="Layer_3" class="st0">
	<circle class="st3" cx="161.2" cy="165" r="106.7"/>
	<circle class="st3" cx="431.2" cy="81.7" r="53.3"/>
	<circle class="st2" cx="391.1" cy="391.7" r="120"/>
	<circle class="st3" cx="391.3" cy="394.2" r="80"/>
	<circle class="st2" cx="391.1" cy="391.7" r="120"/>
	<circle class="st3" cx="391.3" cy="394.2" r="80"/>
	<circle class="st2" cx="120.9" cy="404.5" r="40"/>
	<circle class="st3" cx="121" cy="405.3" r="26.7"/>
	<rect x="-237" y="-10" class="st4" width="199" height="255"/>
</g>
<g>
	<path d="M0,75.3c133.1,0,265.6,0,398.6,0c0,38.8,0,77.6,0,116.7c11,0,21.6,0,32.8,0c0,13.7,0,27,0,40.8c13.1,0,25.6,0,38.3,0
		c0.1,1.3,0.3,2.2,0.3,3.1c0.1,11.6,0,23.1,0.2,34.7c0,2.8-0.8,3.8-3.7,3.8c-11.5-0.1-22.9,0-34.4,0.1c-1.2,0-2.5,0-4.1,0
		c0,14.9,0,29.5,0,44.6c-11.2,0-22,0-33.1,0c0,13.9,0,27.4,0,41.1c-16.9,0-33.5,0-50.6,0c0-11.2,0-22.4,0-33.9
		c-11.6,0-22.7,0-34.1,0c0,11.3,0,22.5,0,33.9c-16.5,0-32.7,0-49.2,0c0-11.3,0-22.5,0-34c-87.1,0-173.9,0-261,0
		C0,242.4,0,159,0,75.3z M11.4,314.1c83.2,0,166.3,0,249.7,0c0-13.8,0-27.3,0-41.2c13.3,0,26.3,0,39.6,0c0-13.7,0-26.9,0-40.7
		c14.5,0,28.7,0,43.3,0c0-13.7,0-26.8,0-40.2c14.6,0,28.9,0,43.1,0c0-35.1,0-69.8,0-104.6c-125.4,0-250.5,0-375.7,0
		C11.4,163.1,11.4,238.6,11.4,314.1z M387.1,314.3c0-10.2,0-20.1,0-29.8c-11,0-21.8,0-32.5,0c0,10,0,19.8,0,29.8
		C365.6,314.3,376.2,314.3,387.1,314.3z M311.1,314.2c11.1,0,21.8,0,32.5,0c0-10.1,0-19.8,0-29.7c-10.9,0-21.6,0-32.5,0
		C311.1,294.5,311.1,304.2,311.1,314.2z M354.6,272.9c11,0,21.7,0,32.6,0c0-10,0-19.7,0-29.4c-11,0-21.8,0-32.6,0
		C354.6,253.5,354.6,263.2,354.6,272.9z M343.6,272.9c0-9.9,0-19.7,0-29.4c-10.9,0-21.5,0-32.2,0c0,9.9,0,19.6,0,29.4
		C322.2,272.9,332.8,272.9,343.6,272.9z M354.7,232c11.1,0,21.7,0,32.4,0c0-9.8,0-19.4,0-28.9c-10.9,0-21.5,0-32.4,0
		C354.7,212.8,354.7,222.2,354.7,232z M353.9,326.3c0,8.5,0,16.9,0,25.6c11,0,21.9,0,33,0c0-8.6,0-17,0-25.6
		C375.8,326.3,365,326.3,353.9,326.3z M272,314.1c9.6,0,19,0,28.5,0c0-10,0-19.7,0-29.5c-9.6,0-19,0-28.5,0
		C272,294.6,272,304.3,272,314.1z M271.8,351.9c9.8,0,19.4,0,29,0c0-8.7,0-17.1,0-25.6c-9.8,0-19.3,0-29,0
		C271.8,334.9,271.8,343.2,271.8,351.9z M432,241.7c0,8.3,0,16.4,0,24.5c9.8,0,19.5,0,29.1,0c0-8.3,0-16.3,0-24.5
		C451.3,241.7,441.9,241.7,432,241.7z M398.8,243.3c0,10,0,19.7,0,29.6c7.4,0,14.5,0,21.9,0c0-9.9,0-19.6,0-29.6
		C413.4,243.3,406.3,243.3,398.8,243.3z M420.6,203.3c-7.3,0-14.5,0-21.7,0c0,9.7,0,19.1,0,28.7c7.4,0,14.5,0,21.7,0
		C420.6,222.3,420.6,212.8,420.6,203.3z M420,284.4c-7.3,0-14.2,0-21.1,0c0,8.9,0,17.7,0,26.4c7.2,0,14.1,0,21.1,0
		C420,302,420,293.3,420,284.4z"/>
	<path d="M478.3,278.6c11,0,21.9,0,33,0c0,10.7,0,21.4,0,32.4c-10.9,0-21.8,0-33,0C478.3,300.4,478.3,289.7,478.3,278.6z
		 M502.8,303.2c0-5.7,0-11,0-16.4c-5.6,0-10.9,0-16.2,0c0,5.6,0,11,0,16.4C492.1,303.2,497.3,303.2,502.8,303.2z"/>
	<path d="M343,401.2c-11.1,0-21.9,0-33,0c0-10.9,0-21.6,0-32.6c10.9,0,21.8,0,33,0C343,379.5,343,390.2,343,401.2z M318.3,393.1
		c5.8,0,11.1,0,16.5,0c0-5.6,0-11.1,0-16.5c-5.7,0-11.1,0-16.5,0C318.3,382.1,318.3,387.5,318.3,393.1z"/>
	<path d="M449.4,337.3c10.8,0,21.3,0,32.1,0c0,10.7,0,21.3,0,32.2c-10.5,0-21.2,0-32.1,0C449.4,358.8,449.4,348.2,449.4,337.3z
		 M457.5,345.3c0,5.7,0,10.9,0,16.2c5.5,0,10.7,0,16,0c0-5.5,0-10.8,0-16.2C468.1,345.3,462.9,345.3,457.5,345.3z"/>
	<path d="M421.2,392.8c10.9,0,21.6,0,32.5,0c0,10.8,0,21.6,0,32.7c-10.8,0-21.6,0-32.5,0C421.2,414.6,421.2,403.8,421.2,392.8z
		 M445.9,417.4c0-5.7,0-11,0-16.4c-5.7,0-11.2,0-16.6,0c0,5.6,0,10.9,0,16.4C435,417.4,440.3,417.4,445.9,417.4z"/>
	<path d="M431.7,368.8c-10.2,0-20,0-30.1,0c0-10.4,0-20.6,0-31.1c10.1,0,20,0,30.1,0C431.7,348.1,431.7,358.3,431.7,368.8z
		 M409.5,345.5c0,5.4,0,10.4,0,15.4c5,0,9.6,0,14.4,0c0-5.2,0-10.2,0-15.4C419.1,345.5,414.3,345.5,409.5,345.5z"/>
	<path d="M466.3,324c-9.6,0-19,0-28.7,0c0-9.6,0-19.1,0-28.8c9.5,0,18.9,0,28.7,0C466.3,304.6,466.3,314,466.3,324z M445.8,303
		c0,4.7,0,8.9,0,13.2c4.3,0,8.4,0,12.5,0c0-4.5,0-8.7,0-13.2C454.1,303,450,303,445.8,303z"/>
	<path d="M383.5,437.9c-9.1,0-17.8,0-26.9,0c0-9,0-17.8,0-26.9c8.9,0,17.8,0,26.9,0C383.5,419.9,383.5,428.7,383.5,437.9z
		 M375.7,430c0-3.9,0-7.5,0-11.1c-3.9,0-7.5,0-11.1,0c0,3.8,0,7.4,0,11.1C368.3,430,371.8,430,375.7,430z"/>
	<path d="M394.4,371.7c0,9.1,0,17.8,0,26.9c-9.1,0-18,0-27.3,0c0-8.8,0-17.7,0-26.9C376.2,371.7,385.1,371.7,394.4,371.7z M375,391
		c4,0,7.7,0,11.3,0c0-4,0-7.7,0-11.3c-3.9,0-7.5,0-11.3,0C375,383.6,375,387.2,375,391z"/>
</g>
</svg>
