<!-- Generator: Adobe Illustrator 24.1.0, SVG Export Plug-In  -->
<svg version="1.1" xmlns="http://www.w3.org/2000/svg" xmlns:xlink="http://www.w3.org/1999/xlink" x="0px" y="0px"
	 width="511.03px" height="511.02px" viewBox="0 0 511.03 511.02" style="enable-background:new 0 0 511.03 511.02;"
	 xml:space="preserve">
<defs>
</defs>
<g id="mlEKZo.tif_1_">
	<g>
		<path d="M42.95,511.02c-9.13-1.98-17.86-4.76-25.23-10.94C5.55,489.86,0.08,476.69,0.05,461.07c-0.06-23.12-0.02-46.23-0.02-69.35
			C0.03,278.29,0.06,164.87,0,51.45c-0.01-16.98,5.58-31.2,19.31-41.73c8.63-6.62,18.56-9.65,29.28-9.66
			C133.24-0.02,217.89,0.03,302.54,0c5.12,0,9.38,1.79,12.96,5.37c31.4,31.4,62.88,62.71,94.05,94.33
			c2.89,2.93,5.28,7.76,5.39,11.77c0.54,20.77,0.25,41.57,0.24,62.36c0,0.46-0.21,0.92-0.38,1.6c-10.3,0-20.55,0-31.35,0
			c0-15.69,0-31.38,0-47.66c-2.31,0-4.08,0-5.84,0c-18.46,0-36.92,0.03-55.38-0.01c-21.55-0.04-34.72-13.27-34.75-34.91
			c-0.03-18.29-0.01-36.59-0.01-54.88c0-1.8,0-3.6,0-6.02c-2.11,0-3.88,0-5.64,0c-76.83,0-153.67,0-230.5,0
			c-13.54,0-19.36,5.85-19.36,19.48c0,136.04,0,272.08,0,408.12c0,13.65,5.81,19.52,19.31,19.53c34.09,0.01,68.19,0,102.28,0
			c1.81,0,3.63,0,6.16,0c0,10.8,0,21.37,0,31.94C120.79,511.02,81.87,511.02,42.95,511.02z"/>
		<path d="M511.03,372.29c-3.03,7.63-4.96,15.98-9.34,22.74c-7.79,12.03-19.75,18.9-34.17,19.61c-13.91,0.68-27.99,1.11-41.81-0.24
			c-24.54-2.4-41.23-21.47-42.24-47.09c5.22,0,10.45,0,15.68,0c5.14,0,10.29,0,14.04,0c3.22,4.82,5.07,10.06,8.77,12.46
			c3.94,2.56,9.59,3.08,14.56,3.37c8.45,0.5,16.95,0.2,25.43,0.12c10.1-0.1,17.24-6.91,17.11-16.18
			c-0.13-9.06-7.18-15.55-17.07-15.74c-12.62-0.25-25.38,0.55-37.83-1.03c-19.8-2.51-32.97-14.42-38.63-33.46
			c-5.55-18.68-0.6-35.13,13.46-48.6c8.78-8.42,19.64-12.42,31.66-12.59c12.78-0.19,25.66-0.53,38.35,0.7
			c21.6,2.1,37.82,18.36,41.25,39.75c0.13,0.8,0.52,1.56,0.79,2.34c0,1.66,0,3.33,0,4.99c-10.58,0-21.16,0-31.62,0
			c-2.51-11.72-7.7-15.95-19.14-15.97c-9.13-0.02-18.27-0.05-27.4,0.01c-10.51,0.06-17.73,6.72-17.61,16.15
			c0.11,9.22,7.25,15.7,17.5,15.76c9.63,0.06,19.26-0.08,28.9,0.04c15.61,0.19,28.69,5.8,38.76,18.07
			c5.98,7.29,8.67,15.87,10.62,24.83C511.03,365.64,511.03,368.96,511.03,372.29z"/>
		<path d="M366.94,303.17c-10.25,0-20.52,0-31.16,0c-0.27-1.04-0.56-2.26-0.9-3.47c-2.12-7.5-7.8-12.08-15.67-12.19
			c-10.47-0.15-20.95-0.16-31.43,0c-9.39,0.14-16.31,7.12-16.25,16.02c0.05,8.89,6.99,15.63,16.44,15.85
			c12.79,0.3,25.71-0.52,38.34,1.03c19.84,2.44,33,14.37,38.71,33.38c5.61,18.66,0.68,35.13-13.36,48.64
			c-8.35,8.04-18.67,12.29-30.15,12.52c-13.77,0.28-27.64,0.48-41.34-0.73c-22.45-1.98-40.66-23.6-40.25-46.66
			c10.25,0,20.52,0,31.16,0c0.27,1.04,0.56,2.26,0.9,3.47c2.12,7.5,7.8,12.08,15.67,12.19c10.47,0.15,20.95,0.16,31.43,0
			c9.39-0.14,16.31-7.12,16.25-16.02c-0.05-8.89-6.99-15.63-16.44-15.85c-12.79-0.3-25.71,0.52-38.34-1.03
			c-19.84-2.44-33-14.37-38.71-33.38c-5.61-18.66-0.68-35.13,13.36-48.64c8.35-8.04,18.66-12.29,30.15-12.52
			c13.77-0.28,27.64-0.48,41.34,0.73C349.14,258.49,367.35,280.11,366.94,303.17z"/>
		<path d="M191.84,351.52c10.62,0,20.88,0,31.61,0c0.01,13.36-3.78,25.3-11.21,36.05c-15.82,22.89-44.19,32.8-70.81,24.89
			c-26.47-7.87-45-31.85-45.46-59.67c-0.24-14.28-0.7-28.7,0.96-42.83c3.49-29.74,28.99-52.63,58.76-54.31
			c30.37-1.71,57.92,17.89,65.56,46.89c1.38,5.24,1.87,10.71,2.84,16.52c-11.16,0-21.55,0-32.31,0
			c-0.75-9.57-4.17-17.92-11.82-24.21c-18.64-15.31-47.79-5.4-51.08,18.43c-2,14.5-1.52,29.61-0.04,44.23
			c1.52,15.05,15.86,25.78,30.98,25.71c15.16-0.07,28.25-10.95,31.12-25.89C191.29,355.55,191.51,353.73,191.84,351.52z"/>
	</g>
</g>
</svg>
