<?xml version="1.0" encoding="utf-8"?>
<!-- Generator: Adobe Illustrator 24.1.0, SVG Export Plug-In . SVG Version: 6.00 Build 0)  -->
<svg version="1.1" id="Layer_1" xmlns="http://www.w3.org/2000/svg" xmlns:xlink="http://www.w3.org/1999/xlink" x="0px" y="0px"
	 viewBox="0 0 55.9 55.9" style="enable-background:new 0 0 55.9 55.9;" xml:space="preserve">
<g>
	<path d="M53.8,2c-0.1,1.1-0.3,2.2-0.5,3.2c-0.8,4.6-2.3,9-4.2,13.3c-2.3,4.9-5.2,9.5-8.6,13.8c-3.4,4.2-7.3,7.8-11.6,11
		c-4.3,3.2-9,5.9-14,8.1c-0.6,0.3-1.3,0.5-1.9,0.8c2.2,0,4.4,0,6.7,0c0-0.3,0-0.5,0-0.8c0-0.2,0-0.3,0.3-0.4c0.5-0.2,1-0.5,1.5-0.8
		c0,0.7,0,1.3,0,2c1.6,0,3.1,0,4.7,0c0-0.1,0-0.3,0-0.4c0-1.3,0-2.7,0-4c0-0.2,0.1-0.4,0.3-0.5c0.5-0.3,1-0.7,1.6-1c0,2,0,4,0,6
		c0.7,0,1.3,0,2,0c0-0.1,0-0.3,0-0.4c0-2.2,0-4.4,0-6.6c0-0.2,0.1-0.4,0.3-0.6c0.5-0.4,1-0.7,1.5-1.1c0,2.9,0,5.9,0,8.8
		c1.6,0,3.1,0,4.7,0c0-0.1,0-0.2,0-0.4c0-4.1,0-8.2,0-12.4c0-0.1,0-0.2,0.1-0.3c0.5-0.6,1.1-1.1,1.7-1.8c0,5,0,9.9,0,14.8
		c0.7,0,1.3,0,2,0c0-0.2,0-0.4,0-0.5c0-5.4,0-10.8,0-16.1c0-0.2,0.1-0.4,0.2-0.6c0.5-0.6,1-1.2,1.6-1.9c0,6.4,0,12.8,0,19.2
		c1.6,0,3.1,0,4.7,0c0-0.1,0-0.3,0-0.4c0-8.4,0-16.7,0-25.1c0-0.3,0.1-0.5,0.2-0.8c0.5-0.9,1-1.8,1.6-2.8c0,10.3,0,20.6,0,30.9
		c-15.4,0-30.8,0-46.2,0c0-2.1,0-4.3,0-6.4c11.9-2.6,22.6-7.8,31.7-16C43.1,23.4,49.5,13.4,53.8,2z"/>
	<path d="M29.9,32.7c0-7.5,0-14.9,0-22.4c2.8,0,5.5,0,8.3,0c0,0.1,0,0.3,0,0.4c0,4.6,0,9.1,0,13.7c0,0.3-0.1,0.5-0.3,0.7
		c-0.5,0.5-1,1.1-1.6,1.7c0-4.9,0-9.8,0-14.6c-1.6,0-3.1,0-4.7,0c0,0.1,0,0.3,0,0.4c0,6.1,0,12.2,0,18.2c0,0.3-0.1,0.5-0.3,0.6
		C31,31.9,30.5,32.3,29.9,32.7z"/>
	<path d="M19.6,18.9c2.8,0,5.5,0,8.3,0c0,0.2,0,0.3,0,0.4c0,4.9,0,9.7,0,14.6c0,0.3-0.1,0.4-0.3,0.6c-0.5,0.3-1,0.7-1.5,1.1
		c0-5,0-9.9,0-14.8c-1.6,0-3.1,0-4.7,0c0,0.1,0,0.3,0,0.4c0,5.7,0,11.3,0,17c0,0.2-0.1,0.4-0.3,0.5c-0.5,0.2-1,0.5-1.5,0.8
		C19.6,32.6,19.6,25.7,19.6,18.9z"/>
	<path d="M15.8,29.9c-1.6,0-3.1,0-4.7,0c0,0.1,0,0.3,0,0.4c0,4.2,0,8.3,0,12.5c0,0.3-0.1,0.5-0.4,0.6c-0.5,0.1-0.9,0.3-1.4,0.4
		c0-5.3,0-10.5,0-15.8c2.8,0,5.5,0,8.3,0c0,0.1,0,0.3,0,0.4c0,3.9,0,7.8,0,11.6c0,0.3-0.1,0.4-0.3,0.5c-0.5,0.2-1,0.4-1.5,0.7
		C15.8,37.5,15.8,33.7,15.8,29.9z"/>
	<path d="M46.8,13c0-2.8,0-5.5,0-8.3c-1.6,0-3.1,0-4.7,0c0,0.2,0,0.3,0,0.4c0,4.8,0,9.6,0,14.4c0,0.3-0.1,0.6-0.3,0.8
		c-0.5,0.6-1,1.3-1.5,1.9c0-6.5,0-12.9,0-19.4c2.7,0,5.5,0,8.3,0c0,0.1,0,0.2,0,0.4c0,2,0,4,0,6c0,0.3-0.1,0.6-0.2,0.8
		c-0.5,0.9-1,1.8-1.5,2.7C46.9,12.9,46.8,12.9,46.8,13z"/>
</g>
</svg>
