<!-- Generator: Adobe Illustrator 24.1.0, SVG Export Plug-In  -->
<svg version="1.1" xmlns="http://www.w3.org/2000/svg" xmlns:xlink="http://www.w3.org/1999/xlink" x="0px" y="0px" width="697.4px"
	 height="686.7px" viewBox="0 0 697.4 686.7" style="enable-background:new 0 0 697.4 686.7;" xml:space="preserve">
<defs>
</defs>
<g>
	<path d="M372.2,433.3c1.3-0.3,1.5-0.2,1.6-0.3c5-3.9,11.8-6.8,14.4-11.9c2.5-4.9,0.9-12,0.9-18.2c0-96.7,0-193.3,0-290
		c0-1.6,0-3.3,0-5.1c46.9,0,93.2,0,139.9,0c0,62.2,0,123.9,0,187.3c5.2-6.1,9.7-11.1,13.8-16.4c0.8-1,0.4-2.9,0.4-4.3
		c0-90.2-0.1-180.3-0.1-270.5c0-1.2,0-2.3,0-3.9c51.1,0,102,0,152.9,0c0.2,0.5,0.5,0.9,0.5,1.4c3.8,49.3-6.4,95.8-27.1,140.5
		C644,197.4,611,247.8,571.8,294.5c-58,68.9-125.6,127.1-199.3,178.5c-81.1,56.6-167.3,104-257.3,144.7c-27.4,12.4-55.2,24-82.8,36
		c-1.5,0.6-3,1.1-5,0.9c10.6-10.9,21.2-21.9,31.9-32.8C71.9,608.9,72,608.9,72,590.6c0-85.8,0-171.6,0-257.5c0-2.8,0-5.6,0-8.8
		c47.4,0,94.5,0,142,0c0,69.5,0,138.9,0,209.7c6.1-3.5,11.4-6.4,16.4-9.6c0.8-0.5,0.8-2.7,0.8-4.1c0-95.2,0-190.3,0-285.5
		c0-7,0-14,0-21.4c47,0,93.7,0,141,0C372.2,286.6,372.2,359.8,372.2,433.3z M257.7,239.6c0,89.8,0,179.3,0,269.3
		c1.3-0.7,2.2-1,3-1.5c27.5-17.5,55-35.1,82.6-52.5c2.9-1.8,2.9-4,2.9-6.7c0-67.6,0-135.2,0-202.9c0-1.8,0-3.6,0-5.7
		C316.5,239.6,287.5,239.6,257.7,239.6z M415.3,401c2.8-2.2,5.1-3.7,7.2-5.6c25.9-23.4,51.8-46.9,77.5-70.5c1.8-1.6,2.9-4.8,2.9-7.3
		c0.2-59,0.1-117.9,0.1-176.9c0-2.1,0-4.3,0-6.7c-29.5,0-58.5,0-87.8,0C415.3,222.9,415.3,311.5,415.3,401z M98.5,592.5
		c1.8-0.8,3-1.2,4.2-1.7c27.3-13.5,54.5-27,81.8-40.4c2.8-1.4,3.6-3.2,3.6-6.2c-0.1-63.3,0-126.6,0-189.9c0-1.3-0.2-2.5-0.3-3.7
		c-29.9,0-59.5,0-89.3,0C98.5,431.2,98.5,511.4,98.5,592.5z M569.9,26.2c0,73.2,0,145.9,0,218.8c0.6-0.4,1-0.4,1.1-0.7
		c3.1-4.2,6.1-8.3,9.1-12.5c40.6-55.5,70.9-116,88.3-182.7c1.9-7.2,1.5-15,2.1-22.9C636.4,26.2,603.3,26.2,569.9,26.2z"/>
	<path d="M693,158.6c0,175.1,0,351.4,0,528.1c-230.6,0-461,0-693,0c3-1.3,4.9-2.1,6.7-2.9c89.7-37.8,178.4-78,263.8-124.8
		c56.7-31,111.5-65.2,163.3-104C471.4,427,507.3,397,541,364.5c46.3-44.7,87.9-93.4,121.1-148.7C673.4,197.1,683,177.3,693,158.6z
		 M666.6,660.7c0-143.3,0-286.3,0-430.2c-0.9,1.1-1.3,1.5-1.7,2c-10,14.6-19.5,29.4-30,43.6c-18.8,25.5-39.4,49.5-61.5,72.3
		c-2.5,2.6-4,5.2-3.9,9.2c0.3,12.8,0.2,25.7,0.1,38.5c-0.1,81-0.1,162-0.2,243c0,7.1,0,14.3,0,21.7
		C602.2,660.7,634.3,660.7,666.6,660.7z M502.7,660.8c0-82,0-163.3,0-245.1c-1.1,0.8-1.8,1.2-2.4,1.7
		c-27.6,21.5-55.1,42.9-82.6,64.5c-1.5,1.2-2.7,3.7-2.7,5.7c-0.1,56.3-0.1,112.6,0,168.9c0,1.4,0.2,2.9,0.3,4.4
		C444.6,660.8,473.5,660.8,502.7,660.8z M346,529.2c-1.3,0.6-1.9,0.9-2.4,1.2c-27.9,16-55.7,31.9-83.5,48c-1.3,0.8-2.5,3-2.5,4.6
		c-0.2,24.8-0.1,49.6-0.1,74.5c0,1.1,0.3,2.2,0.4,3.1c29.6,0,58.8,0,88.2,0C346,616.8,346,573.3,346,529.2z M543.1,379.1
		c-4.4,4-8.3,7.4-11.9,11.1c-1.2,1.2-2.2,3.4-2.2,5.1c-0.1,84.1-0.1,168.2-0.1,252.3c0,4.3,0,8.6,0,13.1c5,0,9.4,0,14.1,0
		C543.1,566.9,543.1,473.4,543.1,379.1z M388.7,501.6c-5,3.3-9.4,6-13.4,9.1c-1.5,1.2-2.9,3.6-3,5.5c-0.1,46.5-0.1,92.9-0.1,139.4
		c0,1.6,0.1,3.2,0.2,5.1c5.5,0,10.7,0,16.2,0C388.7,607.8,388.7,555.3,388.7,501.6z M97.3,660.6c31.4,0,61,0,90.5,0
		c0-15.3,0-30.1,0-45.1c-0.6,0.1-1,0.1-1.2,0.2c-28.6,13.4-57.2,26.7-85.8,40.2C99.5,656.6,98.8,658.6,97.3,660.6z M230.9,660.7
		c0-22.4,0-44.5,0-67.1c-4.7,2.4-8.9,4.7-13.3,6.6c-2.7,1.2-3.5,2.8-3.5,5.7c0.1,17,0.1,33.9,0.1,50.9c0,1.3,0.2,2.5,0.4,4
		C220.1,660.7,225.4,660.7,230.9,660.7z"/>
</g>
</svg>
