<!-- Generator: Adobe Illustrator 24.1.0, SVG Export Plug-In  -->
<svg version="1.1" xmlns="http://www.w3.org/2000/svg" xmlns:xlink="http://www.w3.org/1999/xlink" x="0px" y="0px" width="55.9px"
	 height="55.9px" viewBox="0 0 55.9 55.9" style="enable-background:new 0 0 55.9 55.9;" xml:space="preserve">
<style type="text/css">
	.st0{fill:#080808;}
</style>
<defs>
</defs>
<g id="nXsJUs.tif_1_">
	<g>
		<path class="st0" d="M55.9,16.38c-1.36,1.38-2.72,2.77-4.1,4.14c-0.37,0.36-0.85,0.35-1.22-0.01c-1.29-1.26-2.57-2.53-3.83-3.81
			c-0.38-0.38-0.35-0.86,0.03-1.27c0.33-0.36,0.68-0.7,1.02-1.05c-7.78-5.99-19.45-6.32-27.72-0.44c0.85,2.03,0.67,3.93-1.02,5.46
			c-1.51,1.36-3.26,1.45-5.08,0.65C8.5,27.42,7.92,39.3,14.44,47.87c0.33-0.36,0.63-0.73,0.96-1.06c0.46-0.45,0.94-0.45,1.39,0
			c1.24,1.23,2.47,2.47,3.69,3.72c0.4,0.41,0.43,0.88,0.05,1.26c-1.37,1.38-2.76,2.73-4.14,4.1c-0.18,0-0.36,0-0.55,0
			c-0.33-0.29-0.67-0.56-0.98-0.86c-1.04-1.02-2.06-2.05-3.09-3.09c-0.53-0.54-0.54-0.97-0.01-1.5c0.44-0.44,0.9-0.85,1.34-1.27
			c-5.61-8.05-6.64-16.58-3.2-25.73c-0.28,0.3-0.55,0.6-0.84,0.89c-1.19,1.2-2.39,2.4-3.6,3.58c-0.26,0.25-0.35,0.46-0.24,0.84
			c0.37,1.2-0.15,2.43-1.22,3.04c-1.06,0.61-2.4,0.43-3.26-0.45c-0.85-0.87-1-2.23-0.36-3.27c0.65-1.05,1.87-1.5,3.09-1.16
			c0.18,0.05,0.48,0.02,0.6-0.1c2.75-2.73,5.48-5.48,8.23-8.25c-1.14-2.11-1-4.11,0.79-5.83c1.43-1.37,3.34-1.49,5.49-0.43
			c0.1-0.09,0.21-0.18,0.31-0.28c2.61-2.61,5.22-5.23,7.83-7.83c0.25-0.25,0.31-0.44,0.2-0.79c-0.37-1.16,0.12-2.39,1.15-3.03
			c1.04-0.64,2.39-0.49,3.27,0.37c0.86,0.83,1.05,2.16,0.46,3.21c-0.59,1.06-1.8,1.61-2.97,1.27c-0.45-0.13-0.69,0-0.98,0.29
			c-1.33,1.35-2.67,2.68-4.01,4.01c-0.12,0.12-0.24,0.25-0.41,0.44c9.14-3.52,17.66-2.51,25.76,3.13c0.41-0.44,0.85-0.95,1.33-1.42
			c0.45-0.44,0.89-0.44,1.34,0c1.24,1.22,2.48,2.46,3.71,3.7c0.13,0.13,0.22,0.29,0.33,0.43C55.9,16.02,55.9,16.2,55.9,16.38z
			 M18.81,16.11c0.01-1.52-1.2-2.76-2.71-2.76c-1.49,0-2.75,1.26-2.75,2.75c0,1.49,1.21,2.7,2.7,2.72
			C17.59,18.84,18.8,17.64,18.81,16.11z M16.13,48.66c-0.86,0.86-1.71,1.71-2.52,2.52c0.81,0.82,1.66,1.66,2.44,2.45
			c0.82-0.82,1.68-1.67,2.53-2.52C17.79,50.31,16.96,49.48,16.13,48.66z M51.24,13.67c-0.82,0.81-1.66,1.65-2.4,2.39
			c0.79,0.8,1.62,1.64,2.42,2.44c0.79-0.79,1.62-1.62,2.41-2.41C52.85,15.28,52.01,14.44,51.24,13.67z M29.48,3.61
			c0.51,0.01,0.94-0.42,0.94-0.93c0-0.51-0.43-0.93-0.94-0.92c-0.49,0.01-0.89,0.41-0.9,0.9C28.56,3.18,28.96,3.6,29.48,3.61z
			 M2.69,28.57c-0.51,0-0.86,0.34-0.86,0.85c0,0.5,0.39,0.91,0.88,0.92c0.51,0.02,0.9-0.37,0.89-0.89
			C3.6,28.96,3.2,28.58,2.69,28.57z"/>
		<path class="st0" d="M41.16,55.9c-0.21-0.26-0.48-0.5-0.63-0.79c-0.85-1.65-1.65-3.32-2.51-4.96c-0.14-0.27-0.43-0.54-0.72-0.65
			c-2.87-1.13-5.76-2.23-8.64-3.32c-0.48-0.18-0.77-0.45-0.97-0.94c-2.92-7.34-5.85-14.67-8.8-22c-0.23-0.58-0.18-1.02,0.29-1.47
			c0.9-0.85,1.77-1.73,2.63-2.62c0.39-0.41,0.79-0.5,1.32-0.29c7.4,2.97,14.8,5.92,22.21,8.87c0.45,0.18,0.68,0.5,0.84,0.93
			c1.1,2.88,2.2,5.77,3.33,8.64c0.11,0.28,0.38,0.58,0.65,0.72c1.64,0.86,3.31,1.66,4.96,2.51c0.29,0.15,0.53,0.42,0.79,0.63
			c0,0.18,0,0.36,0,0.55c-0.17,0.21-0.33,0.43-0.52,0.62c-4.35,4.35-8.69,8.7-13.04,13.04c-0.19,0.19-0.41,0.35-0.62,0.52
			C41.53,55.9,41.34,55.9,41.16,55.9z M21.07,22.41c-0.35,0.19-0.47,0.42-0.29,0.86c2.79,6.94,5.57,13.89,8.36,20.82
			c0.1,0.25,0.36,0.5,0.6,0.6c2.65,1.05,5.32,2.05,7.97,3.09c0.37,0.15,0.6,0.11,0.89-0.18c2.98-3.01,5.98-6.01,8.99-8.99
			c0.29-0.29,0.34-0.51,0.19-0.89c-1.02-2.6-2.03-5.21-3.01-7.83c-0.16-0.43-0.4-0.67-0.82-0.84c-6.88-2.74-13.76-5.49-20.63-8.25
			c-0.47-0.19-0.74-0.12-0.91,0.28c3.75,3.75,7.48,7.48,11.22,11.22c3-1.42,5.54-0.96,7.14,1.32c1.43,2.04,1.18,4.85-0.59,6.59
			c-1.79,1.76-4.57,1.98-6.6,0.53c-2.26-1.63-2.72-4.18-1.28-7.1C28.56,29.9,24.83,26.17,21.07,22.41z M49.29,39.58
			c-3.26,3.25-6.48,6.47-9.73,9.71c0.69,1.37,1.4,2.79,2.08,4.14c3.94-3.94,7.85-7.85,11.77-11.77c-0.01-0.01-0.07-0.05-0.13-0.08
			C51.93,40.9,50.56,40.22,49.29,39.58z M36.57,33.18c-1.9,0-3.4,1.49-3.4,3.38c0,1.88,1.52,3.41,3.39,3.4
			c1.84-0.01,3.37-1.53,3.38-3.37C39.97,34.72,38.44,33.18,36.57,33.18z"/>
	</g>
</g>
</svg>
