<!-- Generator: Adobe Illustrator 24.1.0, SVG Export Plug-In  -->
<svg version="1.1" xmlns="http://www.w3.org/2000/svg" xmlns:xlink="http://www.w3.org/1999/xlink" x="0px" y="0px" width="55.81px"
	 height="51.91px" viewBox="0 0 55.81 51.91" style="enable-background:new 0 0 55.81 51.91;" xml:space="preserve">
<style type="text/css">
	.st0{fill:#080808;}
</style>
<defs>
</defs>
<g id="IL2txd.tif_1_">
	<g>
		<path class="st0" d="M0,0.84C0.3,0.21,0.8-0.01,1.5,0c2.15,0.03,4.31,0.01,6.46,0.01c1.01,0,1.28,0.22,1.55,1.2
			c1.22,4.51,2.46,9.02,3.66,13.54c0.15,0.56,0.38,0.73,0.96,0.71c1.16-0.06,2.33-0.02,3.53-0.02c0.16-1.77,0.53-3.44,1.17-5.04
			c2.65-6.54,9.56-10.6,16.55-9.71c7.5,0.95,13.27,6.82,14.03,14.28c0.04,0.41,0.21,0.48,0.57,0.48c1.49-0.02,2.99-0.01,4.48,0
			c1.17,0,1.62,0.66,1.19,1.74c-2.45,6.17-4.92,12.33-7.37,18.5c-0.27,0.69-0.78,0.88-1.48,0.88c-8.96-0.01-17.91-0.01-26.87-0.01
			c-0.22,0-0.45,0-0.75,0c0.43,1.61,0.84,3.15,1.27,4.76c0.24,0,0.48,0,0.72,0c10.98,0,21.95,0,32.93,0c0.21,0,0.42-0.01,0.62,0.01
			c0.61,0.07,1,0.47,1.02,1.02c0.02,0.61-0.38,1.1-1.01,1.15c-0.64,0.05-1.28,0.02-1.93,0.03c-0.13,0-0.26,0.02-0.44,0.03
			c1.49,3.1,1.02,5.72-1.93,7.61c-1.9,1.21-4.38,0.87-6.1-0.65c-1.95-1.73-2.27-3.91-1-6.95c-4.15,0-8.29,0-12.5,0
			c0.86,1.44,1.14,2.92,0.65,4.49c-0.36,1.17-1.06,2.12-2.06,2.83c-1.97,1.4-4.62,1.27-6.46-0.28c-1.64-1.38-2.75-4.05-1.06-7.08
			c-0.64,0-1.23,0-1.82,0c-1.19,0-1.43-0.19-1.74-1.33C14.76,29.07,11.17,15.93,7.59,2.8C7.55,2.65,7.5,2.51,7.44,2.32
			c-1.58,0-3.16,0-4.75,0c-0.4,0-0.8-0.02-1.19,0.01C0.77,2.38,0.25,2.12,0,1.41C0,1.22,0,1.03,0,0.84z M13.96,17.66
			c1.52,5.58,3.02,11.08,4.53,16.6c0.19,0,0.32,0,0.45,0c8.93,0,17.87,0,26.8,0.01c0.4,0,0.55-0.15,0.68-0.49
			c2.07-5.22,4.15-10.44,6.23-15.66c0.06-0.14,0.09-0.3,0.15-0.49c-1.07,0-2.07,0.01-3.07-0.01c-0.3,0-0.39,0.11-0.42,0.39
			c-0.06,0.56-0.13,1.12-0.23,1.68c-1.24,6.76-7.32,12.22-14.17,12.74c-7.64,0.58-14.63-4.29-16.69-11.67
			c-0.28-1.01-0.42-2.06-0.63-3.11C16.43,17.66,15.24,17.66,13.96,17.66z M47.6,43.66c-1.62,0.01-2.99,1.39-2.99,3.01
			c0,1.63,1.42,3.03,3.05,3.02c1.64-0.02,2.98-1.37,2.98-3.01C50.65,45.04,49.24,43.65,47.6,43.66z M26.26,43.66
			c-1.62,0-3.01,1.36-3.02,2.97c-0.02,1.63,1.39,3.05,3.01,3.05c1.63,0,3.02-1.4,3.01-3.04C29.26,45.01,27.89,43.66,26.26,43.66z
			 M34.78,23.48c0,2.13,0,4.19,0,6.38c2.52-1.47,3.43-3.85,4.26-6.38C37.57,23.48,36.19,23.48,34.78,23.48z M34.73,3.09
			c0,2.15,0,4.11,0,6.08c0,0.32,0.16,0.37,0.42,0.37c0.83-0.01,1.66,0,2.49,0c0.44,0,0.88,0,1.41,0C38.21,6.96,37.3,4.57,34.73,3.09
			z M28.11,23.48c0.83,2.54,1.74,4.93,4.27,6.38c0-2.2,0-4.28,0-6.38C30.97,23.48,29.58,23.48,28.11,23.48z M28.2,9.48
			c1.4,0,2.79,0,4.19,0c0-2.11,0-4.17,0-6.24C30.75,3.65,28.53,6.97,28.2,9.48z M34.65,15.31c1.73,0,3.42,0,5.21,0
			c-0.06-0.84-0.11-1.64-0.19-2.44c-0.1-1.03-0.11-1.03-1.12-1.03c-0.51,0-1.02,0-1.53,0c-0.79,0-1.57,0-2.37,0
			C34.65,13.04,34.65,14.16,34.65,15.31z M32.4,17.68c-1.76,0-3.46,0-5.27,0c0.12,1.18,0.24,2.31,0.35,3.41c1.72,0,3.31,0,4.92,0
			C32.4,19.94,32.4,18.83,32.4,17.68z M34.89,17.67c0,1.16,0,2.3,0,3.44c1.59,0,3.13,0,4.75,0c0.12-1.14,0.23-2.27,0.35-3.44
			C38.22,17.67,36.57,17.67,34.89,17.67z M32.26,15.32c0-1.18,0-2.32,0-3.46c-1.58,0-3.12,0-4.74,0c-0.12,1.15-0.24,2.29-0.36,3.46
			C28.93,15.32,30.57,15.32,32.26,15.32z M20.02,15.31c1.64,0,3.21,0,4.83,0c0.1-1.15,0.21-2.28,0.31-3.46c-1.41,0-2.78,0-4.15,0.01
			c-0.1,0-0.24,0.11-0.28,0.2C20.31,13.09,20.1,14.16,20.02,15.31z M41.87,21.13c1.39,0,2.76,0,4.13-0.01c0.1,0,0.26-0.09,0.29-0.18
			c0.44-1.04,0.65-2.13,0.72-3.27c-1.64,0-3.21,0-4.78,0C42.11,18.81,41.99,19.93,41.87,21.13z M42.23,15.29c1.6,0,3.19,0,4.89,0
			c-0.27-1.19-0.53-2.32-0.79-3.43c-1.57,0-3.02,0-4.45,0C41.99,13.01,42.11,14.13,42.23,15.29z M24.81,17.66
			c-0.17-0.01-0.33-0.03-0.5-0.03c-1.41,0-2.82,0-4.41,0c0.3,1.18,0.58,2.27,0.87,3.35c0.02,0.07,0.17,0.14,0.27,0.14
			c1.37,0.01,2.74,0.01,4.11,0.01C25.03,19.95,24.92,18.82,24.81,17.66z M45.08,9.53c-0.65-1.85-3.93-4.79-5.98-5.36
			c1.01,1.61,1.68,3.31,2.18,5.08c0.03,0.11,0.19,0.26,0.3,0.26C42.74,9.53,43.9,9.53,45.08,9.53z M21.84,23.45
			c1.54,2.43,3.5,4.17,6,5.32c-0.93-1.58-1.58-3.25-2.09-4.99c-0.04-0.13-0.2-0.31-0.31-0.31C24.29,23.44,23.13,23.45,21.84,23.45z
			 M45.18,23.45c-1.19,0-2.26,0.02-3.33-0.01c-0.41-0.01-0.54,0.14-0.63,0.52c-0.38,1.56-0.99,3.04-1.84,4.41
			c-0.08,0.13-0.15,0.26-0.3,0.52C41.69,27.63,43.7,25.94,45.18,23.45z M21.85,9.41c1.2,0,2.26-0.02,3.33,0.01
			c0.41,0.01,0.55-0.14,0.64-0.51c0.39-1.64,1.04-3.18,1.95-4.6c0.04-0.07,0.06-0.15,0.12-0.3C25.34,5.25,23.37,6.98,21.85,9.41z"/>
	</g>
</g>
</svg>
