<!-- Generator: Adobe Illustrator 24.1.0, SVG Export Plug-In  -->
<svg version="1.1" xmlns="http://www.w3.org/2000/svg" xmlns:xlink="http://www.w3.org/1999/xlink" x="0px" y="0px" width="40px"
	 height="38.94px" viewBox="0 0 40 38.94" style="enable-background:new 0 0 40 38.94;" xml:space="preserve">
<style type="text/css">
	.st0{fill:#102542;}
</style>
<defs>
</defs>
<g id="xQyYAy.tif_1_">
	<g>
		<path class="st0" d="M40,20.74c-0.02,0.23-0.04,0.47-0.06,0.7c-0.21,2.91-1.02,5.64-2.44,8.19c-1.55,2.79-3.66,5.08-6.3,6.87
			c-1.49,1.01-3.08,1.81-4.79,2.37c-0.52,0.17-0.97-0.03-1.33-0.42c-0.31-0.35-0.47-0.76-0.47-1.23c0-2.02,0-4.04,0-6.06
			c0-0.54-0.01-1.08-0.15-1.6c-0.06-0.24-0.17-0.47-0.26-0.71c0.26-0.06,0.53-0.11,0.81-0.17c1.51-0.33,2.95-0.84,4.29-1.63
			c1.84-1.1,3.23-2.59,3.98-4.62c0.47-1.27,0.62-2.58,0.56-3.93c-0.05-1.14-0.24-2.26-0.64-3.34c-0.41-1.13-1.02-2.13-1.83-3.01
			c-0.02-0.03-0.05-0.05-0.05-0.06c0.66-1.54,0.71-3.09,0.23-4.66c-0.13-0.41-0.33-0.79-0.58-1.15c-0.06-0.08-0.12-0.12-0.23-0.11
			c-1.58,0.04-3.02,0.52-4.33,1.39c-0.5,0.34-0.97,0.72-1.39,1.16c-0.06,0.06-0.1,0.08-0.18,0.05c-1.11-0.39-2.26-0.55-3.42-0.63
			c-1.04-0.08-2.09-0.07-3.13,0.03c-1.07,0.1-2.12,0.27-3.14,0.65c-0.09,0.03-0.13,0.01-0.2-0.05c-1.22-1.28-2.69-2.12-4.43-2.46
			C10.11,6.21,9.68,6.2,9.25,6.16c-0.1-0.01-0.16,0.02-0.22,0.11c-0.44,0.62-0.69,1.32-0.8,2.07c-0.15,1.02-0.1,2.03,0.24,3.01
			c0.09,0.27,0.23,0.52,0.35,0.8c-0.14,0.16-0.31,0.35-0.47,0.54c-1.15,1.38-1.82,2.98-2.07,4.75c-0.2,1.42-0.17,2.82,0.2,4.21
			c0.54,2.03,1.71,3.63,3.41,4.86c1.32,0.96,2.8,1.58,4.38,1.99c0.52,0.13,1.04,0.25,1.57,0.37c0,0,0.01,0.01,0,0.02
			c-0.28,0.53-0.37,1.11-0.42,1.7c-0.02,0.27-0.03,0.54-0.03,0.81c0,0.11-0.04,0.16-0.14,0.2c-0.58,0.2-1.19,0.28-1.8,0.27
			c-0.95-0.01-1.86-0.21-2.69-0.7c-0.6-0.35-1.08-0.83-1.45-1.42c-0.61-0.97-1.44-1.64-2.57-1.92c-0.32-0.08-0.65-0.11-0.97-0.04
			c-0.09,0.02-0.19,0.04-0.28,0.08c-0.22,0.09-0.28,0.26-0.14,0.44c0.15,0.19,0.33,0.35,0.51,0.51c0.24,0.21,0.51,0.4,0.73,0.63
			c0.6,0.62,1.01,1.37,1.34,2.15c0.49,1.18,1.36,2.01,2.48,2.58c1.16,0.6,2.41,0.74,3.69,0.62c0.42-0.04,0.84-0.11,1.27-0.17
			c0,0.02,0.01,0.05,0.01,0.08c0,0.86,0.01,1.72,0,2.58c-0.01,0.59-0.28,1.07-0.76,1.41c-0.34,0.24-0.71,0.3-1.11,0.16
			c-4.74-1.68-8.38-4.68-10.9-9.02c-1.22-2.1-2-4.37-2.37-6.77C0,21.49-0.06,19.91,0.07,18.33c0.29-3.48,1.41-6.68,3.38-9.57
			c2-2.93,4.59-5.18,7.78-6.74c1.86-0.91,3.82-1.51,5.88-1.81c1.52-0.22,3.04-0.27,4.57-0.14c3.86,0.33,7.35,1.65,10.43,4.01
			c3.52,2.69,5.9,6.17,7.13,10.42c0.43,1.49,0.67,3.01,0.74,4.55c0,0.06,0.02,0.12,0.02,0.18C40,19.73,40,20.24,40,20.74z"/>
	</g>
</g>
</svg>
