<?xml version="1.0" encoding="utf-8"?>
<!-- Generator: Adobe Illustrator 24.1.0, SVG Export Plug-In . SVG Version: 6.00 Build 0)  -->
<svg version="1.1" id="Layer_1" xmlns="http://www.w3.org/2000/svg" xmlns:xlink="http://www.w3.org/1999/xlink" x="0px" y="0px"
	 viewBox="0 0 40 38.9" style="enable-background:new 0 0 40 38.9;" xml:space="preserve">
<style type="text/css">
	.st0{fill:#C5A059;}
</style>
<g id="xQyYAy.tif_1_">
	<g>
		<path class="st0" d="M36,20.5c0,0.2,0,0.4,0,0.6c-0.2,2.3-0.8,4.5-2,6.6c-1.2,2.2-2.9,4.1-5,5.5c-1.2,0.8-2.5,1.4-3.8,1.9
			c-0.4,0.1-0.8,0-1.1-0.3c-0.2-0.3-0.4-0.6-0.4-1c0-1.6,0-3.2,0-4.8c0-0.4,0-0.9-0.1-1.3c0-0.2-0.1-0.4-0.2-0.6
			c0.2,0,0.4-0.1,0.6-0.1c1.2-0.3,2.4-0.7,3.4-1.3c1.5-0.9,2.6-2.1,3.2-3.7c0.4-1,0.5-2.1,0.4-3.1c0-0.9-0.2-1.8-0.5-2.7
			c-0.3-0.9-0.8-1.7-1.5-2.4l0,0c0.5-1.2,0.6-2.5,0.2-3.7c-0.1-0.3-0.3-0.6-0.5-0.9c0-0.1-0.1-0.1-0.2-0.1c-1.3,0-2.4,0.4-3.5,1.1
			c-0.4,0.3-0.8,0.6-1.1,0.9c0,0-0.1,0.1-0.1,0c-0.9-0.3-1.8-0.4-2.7-0.5c-0.8-0.1-1.7-0.1-2.5,0c-0.9,0.1-1.7,0.2-2.5,0.5
			c-0.1,0-0.1,0-0.2,0c-1-1-2.2-1.7-3.5-2C12.1,9,11.7,9,11.4,9c-0.1,0-0.1,0-0.2,0.1c-0.4,0.5-0.6,1.1-0.6,1.7
			c-0.1,0.8-0.1,1.6,0.2,2.4c0.1,0.2,0.2,0.4,0.3,0.6c-0.1,0.1-0.2,0.3-0.4,0.4C9.8,15.3,9.2,16.6,9,18c-0.2,1.1-0.1,2.3,0.2,3.4
			c0.4,1.6,1.4,2.9,2.7,3.9c1.1,0.8,2.2,1.3,3.5,1.6c0.4,0.1,0.8,0.2,1.3,0.3l0,0c-0.2,0.4-0.3,0.9-0.3,1.4c0,0.2,0,0.4,0,0.6
			c0,0.1,0,0.1-0.1,0.2c-0.5,0.2-1,0.2-1.4,0.2c-0.8,0-1.5-0.2-2.2-0.6c-0.5-0.3-0.9-0.7-1.2-1.1c-0.5-0.8-1.2-1.3-2.1-1.5
			c-0.3-0.1-0.5-0.1-0.8,0c-0.1,0-0.2,0-0.2,0.1c-0.2,0.1-0.2,0.2-0.1,0.4c0.1,0.2,0.3,0.3,0.4,0.4c0.2,0.2,0.4,0.3,0.6,0.5
			c0.5,0.5,0.8,1.1,1.1,1.7c0.4,0.9,1.1,1.6,2,2.1s1.9,0.6,3,0.5c0.3,0,0.7-0.1,1-0.1c0,0,0,0,0,0.1c0,0.7,0,1.4,0,2.1
			c0,0.5-0.2,0.9-0.6,1.1c-0.3,0.2-0.6,0.2-0.9,0.1c-3.8-1.3-6.7-3.7-8.7-7.2c-1-1.7-1.6-3.5-1.9-5.4c-0.3-1.7-0.3-3-0.2-4.2
			c0.2-2.8,1.1-5.3,2.7-7.7c1.6-2.3,3.7-4.1,6.2-5.4c1.5-0.7,3.1-1.2,4.7-1.4c1.2-0.2,2.4-0.2,3.7-0.1c3.1,0.3,5.9,1.3,8.3,3.2
			c2.8,2.2,4.7,4.9,5.7,8.3c0.3,1.2,0.5,2.4,0.6,3.6v0.1C36,19.7,36,20.1,36,20.5z"/>
	</g>
</g>
</svg>
