<!-- Generator: Adobe Illustrator 24.1.0, SVG Export Plug-In  -->
<svg version="1.1" xmlns="http://www.w3.org/2000/svg" xmlns:xlink="http://www.w3.org/1999/xlink" x="0px" y="0px" width="64px"
	 height="62.31px" viewBox="0 0 64 62.31" style="enable-background:new 0 0 64 62.31;" xml:space="preserve">
<defs>
</defs>
<g id="xQyYAy.tif_1_">
	<g>
		<path d="M64,33.18c-0.03,0.37-0.06,0.75-0.09,1.12c-0.34,4.66-1.64,9.03-3.91,13.11c-2.48,4.47-5.86,8.13-10.08,11
			c-2.38,1.62-4.93,2.89-7.66,3.8c-0.84,0.28-1.55-0.04-2.12-0.68c-0.5-0.56-0.76-1.21-0.76-1.97c0-3.23,0-6.47,0-9.7
			c0-0.86-0.02-1.73-0.25-2.56c-0.1-0.38-0.27-0.75-0.41-1.14c0.42-0.09,0.85-0.18,1.29-0.27c2.42-0.53,4.73-1.34,6.86-2.61
			c2.95-1.76,5.16-4.15,6.37-7.4c0.76-2.03,0.99-4.13,0.89-6.29c-0.08-1.83-0.39-3.62-1.02-5.34c-0.66-1.8-1.63-3.41-2.93-4.82
			c-0.04-0.04-0.07-0.09-0.09-0.1c1.06-2.46,1.14-4.94,0.37-7.46c-0.2-0.66-0.53-1.27-0.92-1.84c-0.09-0.14-0.19-0.19-0.36-0.18
			c-2.53,0.06-4.83,0.83-6.92,2.23c-0.81,0.54-1.56,1.15-2.22,1.86c-0.09,0.1-0.16,0.13-0.29,0.08c-1.77-0.62-3.61-0.88-5.47-1.02
			c-1.67-0.12-3.34-0.11-5.01,0.04c-1.71,0.16-3.4,0.44-5.02,1.03c-0.14,0.05-0.21,0.02-0.31-0.08c-1.95-2.05-4.3-3.39-7.08-3.93
			c-0.67-0.13-1.37-0.14-2.05-0.22c-0.16-0.02-0.25,0.04-0.35,0.17c-0.71,1-1.11,2.12-1.29,3.31c-0.24,1.63-0.16,3.24,0.38,4.81
			c0.15,0.43,0.37,0.84,0.57,1.29c-0.23,0.26-0.5,0.55-0.75,0.86c-1.84,2.21-2.91,4.77-3.31,7.61c-0.32,2.27-0.28,4.52,0.32,6.74
			c0.87,3.25,2.74,5.81,5.45,7.77c2.12,1.53,4.48,2.53,7,3.19c0.83,0.22,1.67,0.39,2.52,0.59c0,0,0.01,0.02,0.01,0.03
			c-0.45,0.85-0.59,1.78-0.66,2.73c-0.03,0.43-0.05,0.87-0.05,1.3c0,0.18-0.07,0.26-0.23,0.31c-0.93,0.32-1.9,0.44-2.88,0.43
			c-1.52-0.02-2.98-0.34-4.3-1.12c-0.96-0.56-1.72-1.32-2.31-2.27c-0.97-1.55-2.31-2.62-4.11-3.07c-0.51-0.13-1.03-0.18-1.56-0.07
			c-0.15,0.03-0.3,0.07-0.45,0.13c-0.34,0.15-0.45,0.42-0.22,0.71c0.23,0.3,0.53,0.56,0.81,0.81c0.38,0.34,0.82,0.63,1.17,1
			c0.95,1,1.62,2.19,2.14,3.45c0.79,1.89,2.17,3.21,3.96,4.14c1.86,0.96,3.85,1.19,5.91,1c0.68-0.06,1.35-0.18,2.03-0.27
			c0,0.03,0.01,0.08,0.01,0.12c0,1.38,0.02,2.76-0.01,4.13c-0.01,0.95-0.44,1.71-1.21,2.25c-0.54,0.38-1.14,0.47-1.78,0.25
			c-7.58-2.68-13.4-7.49-17.44-14.44c-1.95-3.36-3.2-6.99-3.8-10.84c-0.39-2.52-0.49-5.04-0.28-7.58
			c0.47-5.57,2.26-10.68,5.41-15.31c3.2-4.69,7.35-8.28,12.44-10.78c2.98-1.46,6.12-2.42,9.4-2.89c2.43-0.35,4.87-0.43,7.31-0.22
			c6.17,0.54,11.76,2.65,16.68,6.41c5.63,4.3,9.43,9.87,11.41,16.67c0.69,2.38,1.08,4.81,1.18,7.29c0,0.1,0.03,0.19,0.04,0.29
			C64,31.58,64,32.38,64,33.18z"/>
	</g>
</g>
</svg>
