<!-- Generator: Adobe Illustrator 24.1.0, SVG Export Plug-In  -->
<svg version="1.1" xmlns="http://www.w3.org/2000/svg" xmlns:xlink="http://www.w3.org/1999/xlink" x="0px" y="0px"
	 width="510.74px" height="511.1px" viewBox="0 0 510.74 511.1" style="enable-background:new 0 0 510.74 511.1;"
	 xml:space="preserve">
<defs>
</defs>
<g id="zQzsVR.tif_1_">
	<g>
		<path d="M307.4,0c4.02,3.11,8.41,5.83,11.99,9.38c29.62,29.41,59.05,59.03,88.67,88.45c4.93,4.89,7.31,10.24,7.22,17.25
			c-0.26,19.94-0.09,39.89-0.09,60.2c-10.59,0-20.95,0-31.87,0c0-15.67,0-31.36,0-47.54c-2.32,0-4.11,0-5.89,0
			c-18.63,0-37.26,0.05-55.88-0.01c-20.62-0.07-34.01-13.45-34.09-34.07c-0.07-18.63-0.01-37.26-0.01-55.88c0-1.79,0-3.57,0-5.85
			c-2.25,0-4.03,0-5.81,0c-76.67,0-153.35,0-230.02,0c-13.94,0-19.67,5.73-19.67,19.67c0,135.88,0,271.77,0,407.65
			c0,14.18,5.69,19.8,20.04,19.8c33.93,0,67.86,0,101.79,0c1.79,0,3.58,0,5.65,0c0,10.66,0,20.91,0,31.94c-1.65,0-3.4,0-5.14,0
			c-34.43,0-68.86-0.28-103.28,0.09c-26.55,0.29-47.29-17.57-50.36-41.65c-0.06-0.47-0.41-0.9-0.62-1.35C0,326.36,0,184.64,0,42.92
			c0.27-0.77,0.66-1.53,0.78-2.32c1.83-11.94,7.53-21.62,16.67-29.46C24.84,4.8,33.67,1.98,42.92,0C131.08,0,219.24,0,307.4,0z"/>
		<path d="M415.19,415.08c-10.92,0-21.05,0-31.65,0c0-34.61,0-69.12,0-104.68c-1.72,1.35-2.72,1.99-3.55,2.8
			c-5.69,5.6-11.26,11.33-17.04,16.83c-7.35,6.99-16.21,6.91-23.54-0.08c-3.25-3.1-6.41-6.3-9.53-9.52
			c-3.11-3.22-6.13-6.53-10.22-10.9c0,36.04,0,70.48,0,105.29c-10.89,0-21.25,0-31.96,0c-0.09-1.42-0.25-2.86-0.25-4.3
			c-0.01-45.58-0.02-91.15,0-136.73c0-1.82-0.03-3.7,0.38-5.45c1.41-5.92,4.92-10.05,10.84-11.94c6.39-2.04,11.84-0.21,16.43,4.32
			c10.65,10.52,21.21,21.14,31.77,31.74c1.29,1.29,2.39,2.78,3.97,4.64c1.61-1.52,2.78-2.57,3.9-3.68
			c10.36-10.34,20.69-20.71,31.06-31.04c6.61-6.59,13.05-8.42,19.7-5.37c7.47,3.43,9.74,9.74,9.73,17.55
			c-0.09,45.24-0.04,90.49-0.04,135.73C415.19,411.74,415.19,413.2,415.19,415.08z"/>
		<path d="M64.23,255.74c10.6,0,20.85,0,31.46,0c0,21.13,0,42.02,0,63.27c10.73,0,21.09,0,32,0c0-21.01,0-42.02,0-63.27
			c10.79,0,21.03,0,31.64,0c0,52.95,0,105.89,0,159.14c-10.36,0-20.73,0-31.46,0c0-21.06,0-41.95,0-63.21c-10.72,0-21.09,0-32,0
			c0,21.01,0,42.02,0,63.27c-10.79,0-21.03,0-31.64,0C64.23,361.99,64.23,309.05,64.23,255.74z"/>
		<path d="M239.69,414.96c-11.1,0-21.35,0-31.92,0c0-42.39,0-84.55,0-127.24c-10.68,0-21.05,0-31.76,0c0-10.89,0-21.25,0-31.91
			c31.66,0,63.29,0,95.19,0c0,10.38,0,20.62,0,31.41c-10.28,0-20.65,0-31.52,0C239.69,330.02,239.69,372.3,239.69,414.96z"/>
		<path d="M462.92,383.33c16.43,0,32,0,47.82,0c0,10.6,0,20.84,0,31.49c-1.15,0.12-2.41,0.35-3.67,0.35
			c-19.45,0.02-38.9,0.06-58.34,0c-10.97-0.03-17.53-6.43-17.54-17.25c-0.05-46.54-0.02-93.08-0.02-139.63
			c0-0.66,0.07-1.32,0.14-2.39c10.37,0,20.73,0,31.61,0C462.92,298.05,462.92,340.34,462.92,383.33z"/>
	</g>
</g>
</svg>
