<?xml version="1.0" encoding="utf-8"?>
<!-- Generator: Adobe Illustrator 24.1.0, SVG Export Plug-In . SVG Version: 6.00 Build 0)  -->
<svg version="1.1" id="Layer_1" xmlns="http://www.w3.org/2000/svg" xmlns:xlink="http://www.w3.org/1999/xlink" x="0px" y="0px"
	 viewBox="0 0 510.7 511.1" style="enable-background:new 0 0 510.7 511.1;" xml:space="preserve">
<style type="text/css">
	.st0{display:none;}
	.st1{display:inline;}
</style>
<g id="Layer_1_1_" class="st0">
	<g id="zQzsVR.tif_1_" class="st1">
		<g>
			<path d="M307.4,0c4,3.1,8.4,5.8,12,9.4c29.6,29.4,59,59,88.7,88.4c4.9,4.9,7.3,10.2,7.2,17.2c-0.3,19.9-0.1,39.9-0.1,60.2
				c-10.6,0-21,0-31.9,0c0-15.7,0-31.4,0-47.5c-2.3,0-4.1,0-5.9,0c-18.6,0-37.3,0.1-55.9,0c-20.6-0.1-34-13.4-34.1-34.1
				c-0.1-18.6,0-37.3,0-55.9c0-1.8,0-3.6,0-5.9c-2.2,0-4,0-5.8,0c-76.7,0-153.4,0-230,0c-13.9,0-19.7,5.7-19.7,19.7
				c0,135.9,0,271.8,0,407.6c0,14.2,5.7,19.8,20,19.8c33.9,0,67.9,0,101.8,0c1.8,0,3.6,0,5.6,0c0,10.7,0,20.9,0,31.9
				c-1.6,0-3.4,0-5.1,0c-34.4,0-68.9-0.3-103.3,0.1c-26.5,0.3-47.3-17.6-50.4-41.6c-0.1-0.5-0.4-0.9-0.6-1.4C0,326.4,0,184.6,0,42.9
				c0.3-0.8,0.7-1.5,0.8-2.3C2.6,28.7,8.3,19,17.5,11.1C24.8,4.8,33.7,2,42.9,0C131.1,0,219.2,0,307.4,0z"/>
			<path d="M415.2,415.1c-10.9,0-21,0-31.6,0c0-34.6,0-69.1,0-104.7c-1.7,1.4-2.7,2-3.5,2.8c-5.7,5.6-11.3,11.3-17,16.8
				c-7.4,7-16.2,6.9-23.5-0.1c-3.2-3.1-6.4-6.3-9.5-9.5s-6.1-6.5-10.2-10.9c0,36,0,70.5,0,105.3c-10.9,0-21.2,0-32,0
				c-0.1-1.4-0.2-2.9-0.2-4.3c0-45.6,0-91.1,0-136.7c0-1.8,0-3.7,0.4-5.5c1.4-5.9,4.9-10,10.8-11.9c6.4-2,11.8-0.2,16.4,4.3
				c10.6,10.5,21.2,21.1,31.8,31.7c1.3,1.3,2.4,2.8,4,4.6c1.6-1.5,2.8-2.6,3.9-3.7c10.4-10.3,20.7-20.7,31.1-31
				c6.6-6.6,13-8.4,19.7-5.4c7.5,3.4,9.7,9.7,9.7,17.5c-0.1,45.2,0,90.5,0,135.7C415.2,411.7,415.2,413.2,415.2,415.1z"/>
			<path d="M64.2,255.7c10.6,0,20.8,0,31.5,0c0,21.1,0,42,0,63.3c10.7,0,21.1,0,32,0c0-21,0-42,0-63.3c10.8,0,21,0,31.6,0
				c0,52.9,0,105.9,0,159.1c-10.4,0-20.7,0-31.5,0c0-21.1,0-42,0-63.2c-10.7,0-21.1,0-32,0c0,21,0,42,0,63.3c-10.8,0-21,0-31.6,0
				C64.2,362,64.2,309,64.2,255.7z"/>
			<path d="M239.7,415c-11.1,0-21.4,0-31.9,0c0-42.4,0-84.6,0-127.2c-10.7,0-21.1,0-31.8,0c0-10.9,0-21.2,0-31.9
				c31.7,0,63.3,0,95.2,0c0,10.4,0,20.6,0,31.4c-10.3,0-20.6,0-31.5,0C239.7,330,239.7,372.3,239.7,415z"/>
			<path d="M462.9,383.3c16.4,0,32,0,47.8,0c0,10.6,0,20.8,0,31.5c-1.1,0.1-2.4,0.4-3.7,0.4c-19.5,0-38.9,0.1-58.3,0
				c-11,0-17.5-6.4-17.5-17.2c0-46.5,0-93.1,0-139.6c0-0.7,0.1-1.3,0.1-2.4c10.4,0,20.7,0,31.6,0C462.9,298,462.9,340.3,462.9,383.3
				z"/>
		</g>
	</g>
</g>
<g>
	<path d="M396.8,318.8c10.3,4.4,20.2,8.6,30,12.9c18.8,8.2,37.7,16.4,56.5,24.5c2.4,1,3.5,2.5,3.5,5.2c-0.1,14.8-0.1,29.7,0,44.5
		c0,2.9-1.4,4.2-3.8,5.3c-20.7,9.2-41.5,18.4-62.1,27.7c-30.1,13.5-60.1,27.1-90.1,40.6c-23,10.4-45.9,20.8-68.9,31
		c-1.8,0.8-4.6,1-6.4,0.3c-27.5-12.2-54.9-24.7-82.3-37c-45.8-20.6-91.7-41.2-137.6-61.7c-5.9-2.6-6-2.5-6-9.2
		c0-13.5,0.1-27-0.1-40.5c0-3.4,1.3-5.2,4.3-6.5c27.7-11.8,55.3-23.8,82.9-35.7c0.9-0.4,1.7-0.8,3-1.5c-7.5-3.3-14.5-6.5-21.6-9.6
		c-21.6-9.6-43.2-19.1-64.9-28.6c-2.6-1.1-3.7-2.7-3.7-5.4c0.1-14.7,0.1-29.4,0-44.1c0-3,1.3-4.5,3.9-5.6
		c27.7-11.8,55.3-23.7,82.9-35.6c0.9-0.4,1.7-0.8,3.1-1.5c-5.4-2.4-10.3-4.6-15.2-6.8c-24-10.7-48-21.4-71.9-32.3
		c-1.4-0.6-2.8-2.8-2.8-4.3c-0.2-15.3-0.1-30.6-0.1-45.9c0-2.6,1.4-3.8,3.6-4.8c31-13.1,62-26.2,93-39.2
		c31.4-13.2,62.7-26.3,94.1-39.5c11.6-4.8,23.2-9.5,34.7-14.4c2.7-1.2,5-0.7,7.5,0.4c21,8.8,42.1,17.6,63.1,26.4
		c29.8,12.5,59.7,25,89.5,37.6c22.8,9.6,45.5,19.3,68.2,28.9c2.6,1.1,3.5,2.7,3.5,5.5c-0.1,14.6-0.2,29.2,0,43.8
		c0,3.4-1.3,5.1-4.3,6.5c-28,12.5-56,25.1-84,37.6c-0.3,0.1-0.5,0.4-1,0.9c15.8,6.9,31.4,13.7,47,20.5c12.9,5.6,25.9,11.1,38.9,16.6
		c2.3,1,3.4,2.3,3.3,4.9c-0.1,14.9-0.1,29.9,0,44.8c0,2.8-1.2,4.2-3.7,5.4C454.4,293,425.9,305.8,396.8,318.8z M48.1,231
		c1.5,0.7,2.5,1.2,3.6,1.7c33.9,15.1,67.8,30.3,101.7,45.4c33.9,15.1,67.9,30.1,101.9,45c1.7,0.7,4.3,0.7,6,0
		c9.5-3.9,18.8-8.2,28.2-12.3c41.3-18.4,82.7-36.8,124-55.2c18.1-8.1,36.2-16.1,54.7-24.3c-1.7-0.9-3-1.5-4.3-2.1
		c-26.3-11.5-52.5-22.9-78.8-34.3c-1-0.4-2.5-0.1-3.6,0.3c-12.8,5.6-25.5,11.4-38.3,17c-1.1,0.5-2.7,0.7-3.7,0.2
		c-3.7-1.6-7.2-3.6-11.2-5.7c3.4-1.5,6.4-2.7,9.4-4.1c44.1-19.9,88.1-39.9,132.2-59.7c4.4-2,6.2-4.3,5.9-9.2
		c-0.5-7.1-0.1-14.3-0.2-21.5c0-1-0.1-2-0.2-3.3c-1.1,0.5-1.9,0.8-2.6,1.2c-17.5,7.9-35,15.9-52.5,23.8
		c-47.4,21.3-94.8,42.5-142.2,63.7c-20.9,9.4-41.8,18.7-62.7,28.2c-1.1,0.5-2.8,1.7-2.8,2.6c-0.1,2.4-1.5,3.3-3.3,4.2
		c-10.8,4.9-21.5,9.7-32.3,14.6c-2.6,1.2-5.1,2.4-8,3.8c13.8,6.4,27,12.4,40.3,18.6c1.1,0.5,2.9,1.5,2.9,2.2
		c-0.1,2.1-0.3,4.8-1.6,6.1c-1.9,1.9-4.2,4.2-7.8,2.6c-18.4-8.3-36.8-16.6-55.3-24.6c-2.6-1.1-2.6-2.8-2.7-5
		c-0.1-2.2,0.5-3.3,2.7-4.2c17.2-7.5,34.3-15.1,51.3-22.9c3.8-1.7,6.8-5.1,10.5-6.8c48.1-21.7,96.3-43.3,144.4-64.9
		c31.2-14.1,62.4-28.2,93.7-42.3c6.9-3.1,13.8-6.3,21.3-9.7c-14.9-6.3-29.3-12.5-43.7-18.6c-54.8-23-109.7-45.9-164.5-68.8
		c-1.3-0.5-3.3-0.6-4.6,0c-20.8,8.5-41.5,17.1-62.2,25.8c-32.2,13.5-64.3,27-96.4,40.6C81,85.6,64.6,92.6,47.5,99.9
		c66.8,30,132.8,59.8,199.2,89.7c-4,1.8-7.5,3.5-11.2,4.9c-1.3,0.5-3,0.6-4.2,0.1c-17.4-7.7-34.7-15.4-52-23.3
		c-44.8-20.3-89.6-40.6-134.4-60.9c-1.3-0.6-2.7-1.1-4.4-1.8c0,10.1-0.1,19.7,0.1,29.3c0,1.1,1.2,2.8,2.3,3.3
		c38.9,17.7,77.9,35.3,116.8,52.9c9.2,4.2,18.4,8.3,28.1,12.6c-3.5,1.8-6.5,3.2-9.3,5c-2.1,1.3-3.8,1.2-6,0.2
		c-12.3-5.6-24.6-11.2-36.9-16.5c-1.4-0.6-3.5-0.6-4.9,0c-17.5,7.4-34.9,15-52.3,22.5C68.4,222.2,58.5,226.5,48.1,231z M340.6,343.8
		c-0.7,0-0.9,0-1.1,0.1c-25.2,11.3-50.4,22.4-75.5,33.9c-3.9,1.8-7.1,2-11.1,0.1c-23.1-10.5-46.4-20.8-69.6-31.2
		c-2.3-1-4.7-2-7.7-3.3c0.5,10.2-4.9,15.7-13.7,19.2c1.6,0.7,2.5,1.1,3.5,1.6c5.5,2.7,9.2,6.9,9.8,13.2c0.9,9.4,5.2,13.3,14.7,13.1
		c6.1-0.1,12.1,0,18.3,0c0,3.3,0,6.1,0,9.2c-12.5,0-24.8,0-37.1,0c-1.4,0-2.9,0.1-4.3-0.1c-7.5-1.1-11-5.2-11.1-12.8
		c0-1.4,0-2.9,0-4.3c-0.1-9.1-5.7-14.7-14.8-14.7c-3.5,0-7.1,0-10.6,0c0-3.7,0-6.8,0-10.5c4.7,0,9.2,0.4,13.5-0.1
		c7.5-0.9,11.8-6.2,11.8-13.7c0-3,0-5.9,0-9.1c-6.4-2.8-12.9-5.5-19.3-8.5c-2-1-3.6-1-5.6-0.1c-23,10-46,19.9-69,29.8
		c-4.3,1.8-8.5,3.8-13.4,5.9c13.5,6.1,26.2,11.9,39,17.6c56.1,25.2,112.2,50.3,168.3,75.4c1.4,0.6,3.5,0.7,4.9,0.1
		c13.5-5.8,26.9-11.8,40.3-17.8c44.5-20,89.1-40,133.6-60c11.1-5,22.2-10.1,33.7-15.3c-1.2-0.6-2-1-2.9-1.4
		c-26.8-11.6-53.7-23.2-80.6-34.8c-1-0.4-2.5-0.2-3.6,0.2c-4.4,1.8-8.6,4.4-13.1,5.7c-6.3,1.9-8.2,5.4-7.6,11.9
		c0.8,8.1,4.4,13,12.5,14c4.3,0.5,8.7,0.5,13.2,0.7c0,3.3,0,6.4,0,9.8c-3.8,0-7.2-0.1-10.7,0c-9.2,0.2-15,6.1-14.9,15.2
		c0,1.9,0.4,3.9-0.1,5.7c-0.7,2.5-1.5,5.3-3.1,7.3c-2.3,3-6,3.7-9.7,3.7c-12.3,0-24.6,0.1-36.9,0.1c-0.8,0-1.6-0.2-2.2-0.3
		c0-3.1,0-5.9,0-8.9c6.1,0,12,0,17.8,0c9.7,0,14.1-3.7,15.3-13.1c0.6-4.8,2.9-8.6,6.8-11.3c1.8-1.3,3.8-2.3,5.9-3.6
		C345.2,359.2,340.5,353.1,340.6,343.8z M40.5,370.3c0,10.5-0.1,20.3,0.1,30.2c0,0.9,1.4,2,2.4,2.5c33.6,15.2,67.3,30.2,100.9,45.3
		c29.1,13.1,58.1,26.1,87.2,39.2c7,3.2,14.1,6.3,21.5,9.7c0-9.7-0.2-18.7,0.1-27.8c0.1-3-1-4.4-3.6-5.5c-21-9.3-41.9-18.7-62.8-28.1
		c-39.8-17.9-79.7-35.8-119.5-53.7C58.3,378.2,49.7,374.4,40.5,370.3z M263.7,497.2c71-31.9,141.4-63.6,211.9-95.2
		c0-10.4,0-20.7,0-31.5c-1.5,0.6-2.6,1.1-3.8,1.6C418.5,396.1,365.3,420,312.1,444c-15,6.8-30.1,13.4-45.1,20.1
		c-1.7,0.8-3.3,1.4-3.3,4C263.8,477.6,263.7,487,263.7,497.2z M40.6,239.5c0,10.5-0.1,20.3,0.1,30.2c0,1,1.5,2.3,2.6,2.8
		c34.7,15.5,69.4,30.9,104,46.3c25.6,11.4,51.3,22.8,76.9,34.2c9.4,4.2,18.7,8.4,28.5,12.7c0-10.3,0.1-20.2-0.1-30.1
		c0-0.8-1.3-1.8-2.2-2.3c-9.3-4.3-18.6-8.6-28-12.8c-45.3-20.1-90.6-40.2-135.8-60.3C71.4,253.5,56.3,246.6,40.6,239.5z
		 M263.8,365.6c21.2-9.4,41.8-18.5,62.4-27.7c37-16.4,74-32.8,110.9-49.3c12-5.3,24-10.7,35.9-16.1c1.1-0.5,2.5-1.8,2.6-2.7
		c0.2-9.8,0.1-19.5,0.1-29.8c-1.8,0.8-3.2,1.3-4.6,1.9c-10.2,4.6-20.5,9.2-30.7,13.7c-47.2,21-94.4,42.1-141.6,63.1
		c-10.5,4.7-21,9.2-31.4,13.9c-1.4,0.6-3.4,2.2-3.4,3.3C263.7,345.6,263.8,355.2,263.8,365.6z"/>
	<path d="M208.2,129.6c0,3.4,0,6.1,0,9c-1.2,0.1-2.2,0.2-3.3,0.2c-11.6,0-23.2,0-34.8,0c-10.1,0-14.4-4.3-14.4-14.4
		c0-2.4,0.2-4.8-0.3-7.1c-1.3-6.1-7.2-10.6-13.9-10.8c-3.7-0.1-7.4,0-11.3,0c0-3.5,0-6.5,0-9.9c3.4,0,6.6,0,9.7,0
		c10.8-0.1,15.8-5.1,15.8-15.8c0-11.9,4.1-16,16.2-16c10.5-0.1,21-0.1,31.6-0.2c1.5,0,3,0,4.7,0c0,3.2,0,5.9,0,9.1
		c-6.1,0-12.2-0.2-18.2,0.1c-3,0.2-6.1,0.9-8.9,2.2c-3.4,1.5-5.9,4.6-5.8,8.4c0.2,8.5-4.6,13.1-11.5,16.5c-0.3,0.2-0.6,0.3-0.9,0.5
		c-0.1,0.1-0.1,0.2-0.4,0.5c1.6,0.9,3.3,1.6,4.8,2.6c4.8,2.8,7.4,7,7.8,12.5c0.6,8,5.3,12.6,13.4,12.7
		C195,129.7,201.4,129.6,208.2,129.6z"/>
	<path d="M386,96.6c0,3.5,0,6.4,0,9.9c-3.3,0-6.5,0-9.7,0c-10.3,0.1-15.9,5.7-15.9,16c-0.1,12.8-3.5,16.3-16.4,16.3
		c-11.8,0-23.6,0-35.7,0c0-3.1,0-5.8,0-9.3c4.8,0,9.5,0.1,14.2,0c3-0.1,6,0,8.9-0.5c5.8-1,9.5-5,9.8-10.7
		c0.4-8.4,4.9-13.4,12.7-16.4c-1.7-1-3.2-1.8-4.7-2.7c-4.6-2.9-7.5-6.9-8-12.5c-0.7-8.4-5.5-12.9-13.9-13c-6.3-0.1-12.6,0-19.1,0
		c0-3,0-5.7,0-9c3.4,0,6.8,0,10.2,0c9.6,0,19.1,0,28.7,0c8.4,0,13.4,5.1,13.4,13.3c-0.1,14.3,4,18.5,18.4,18.6
		C381.1,96.6,383.4,96.6,386,96.6z"/>
	<path d="M226.9,296.9c8.7-16.5,17-32.3,25.3-48c7-13.3,14-26.6,21.2-39.8c0.7-1.3,2.5-2.4,4-2.7c4.7-0.7,9.3-0.8,13,3.2
		c-12,22.8-23.9,45.7-35.9,68.5c-2.7,5.2-5.4,10.4-8.1,15.5c-2.9,5.5-4.8,6.7-10.9,5.8C232.7,299,230.1,297.8,226.9,296.9z"/>
	<path d="M347.3,250.8c-9.1-4.1-17.6-7.9-26.2-11.8c-4.8-2.2-9.6-4.3-14.3-6.5c-3.3-1.6-3.9-6.4-1.1-8.9c2.8-2.5,5.5-3.2,9.4-1.4
		c17.7,8.3,35.6,16.3,53.5,24.2c2.4,1.1,2.6,2.5,2.7,4.6c0,2.3-0.5,3.7-2.8,4.7c-18.4,8-36.7,16.1-55,24.4c-3.5,1.6-6.1,0-7.9-2.2
		c-1.3-1.6-1.4-4.4-1.4-6.6c0-0.7,1.8-1.7,2.9-2.2c12.3-5.6,24.5-11.2,36.8-16.8C344.9,252,345.8,251.6,347.3,250.8z"/>
</g>
</svg>
