<?xml version="1.0" encoding="utf-8"?>
<!-- Generator: Adobe Illustrator 24.1.0, SVG Export Plug-In . SVG Version: 6.00 Build 0)  -->
<svg version="1.1" id="Layer_1" xmlns="http://www.w3.org/2000/svg" xmlns:xlink="http://www.w3.org/1999/xlink" x="0px" y="0px"
	 viewBox="0 0 40 40" style="enable-background:new 0 0 40 40;" xml:space="preserve">
<style type="text/css">
	.st0{fill:#C5A059;}
</style>
<g>
	<path class="st0" d="M6.1,4C15.4,4,24.7,4,34,4l0,0c1.3,0.3,2,1.1,2,2.5c0,9,0,18,0,27v0.1c0,1.2-0.7,2-1.8,2.3
		c-0.1,0-0.2,0-0.2,0.1c-9.3,0-18.6,0-27.9,0C6,36,6,36,6,36c-1.2-0.2-2-1.1-2-2.3c0-9.1,0-18.2,0-27.3c0-1,0.6-1.9,1.6-2.2
		C5.8,4.1,5.9,4,6.1,4z M21.2,31.3c0-0.1,0-0.2,0-0.3c0-2.4,0-4.8,0-7.2c0-0.7,0.1-1.3,0.2-2c0.2-0.9,0.7-1.6,1.6-1.9
		c0.3-0.1,0.6-0.1,0.8-0.1c1.3-0.1,2.1,0.5,2.4,1.7c0.2,0.7,0.2,1.4,0.2,2.2c0,2.4,0,4.9,0,7.3c0,0.1,0,0.2,0,0.2c1.6,0,3.2,0,4.7,0
		c0-0.1,0-0.1,0-0.2c0-2.9,0-5.8,0-8.6c0-1.2-0.1-2.3-0.4-3.4c-0.4-1.2-1.1-2.3-2.3-2.8c-1.3-0.6-2.6-0.7-4-0.5s-2.6,1-3.4,2.3
		l-0.1,0.1c0-0.7,0-1.4,0-2.1c-1.5,0-3,0-4.5,0c0,5.1,0,10.1,0,15.2C18,31.3,19.6,31.3,21.2,31.3z M8.8,31.3c1.6,0,3.1,0,4.7,0
		c0-5.1,0-10.2,0-15.2c-1.6,0-3.2,0-4.7,0C8.8,21.1,8.8,26.2,8.8,31.3z M11.1,8.4c-1.5,0-2.7,1.2-2.7,2.8c0,1.5,1.3,2.7,2.8,2.7
		s2.7-1.2,2.7-2.8C13.9,9.7,12.6,8.4,11.1,8.4z"/>
</g>
</svg>
