<!-- Generator: Adobe Illustrator 24.1.0, SVG Export Plug-In  -->
<svg version="1.1" xmlns="http://www.w3.org/2000/svg" xmlns:xlink="http://www.w3.org/1999/xlink" x="0px" y="0px" width="63.93px"
	 height="63.96px" viewBox="0 0 63.93 63.96" style="enable-background:new 0 0 63.93 63.96;" xml:space="preserve">
<defs>
</defs>
<g>
	<path d="M4.12,0c18.56,0,37.11,0,55.67,0c0.03,0.02,0.06,0.06,0.1,0.06c2.66,0.55,4.05,2.26,4.05,4.97c0,17.96,0,35.93,0,53.89
		c0,0.1,0,0.19,0,0.29c-0.04,2.32-1.44,4.07-3.68,4.62c-0.16,0.04-0.31,0.08-0.46,0.13c-18.56,0-37.11,0-55.67,0
		C4.06,63.93,4,63.9,3.94,63.88C1.57,63.47,0,61.61,0,59.21C0,41.03,0,22.85,0,4.67C0,2.6,1.29,0.85,3.26,0.24
		C3.55,0.15,3.83,0.08,4.12,0z M34.35,54.45c0-0.2,0-0.36,0-0.52c0-4.8-0.03-9.6,0.02-14.41c0.01-1.32,0.14-2.65,0.4-3.94
		c0.37-1.82,1.39-3.21,3.28-3.74c0.55-0.15,1.13-0.22,1.69-0.26c2.55-0.19,4.23,1.02,4.87,3.48c0.37,1.43,0.39,2.89,0.4,4.36
		c0.01,4.86,0,9.71,0,14.57c0,0.16,0,0.31,0,0.47c3.18,0,6.29,0,9.44,0c0-0.13,0-0.24,0-0.35c0-5.75,0.02-11.49-0.01-17.24
		c-0.01-2.3-0.21-4.59-0.89-6.81c-0.76-2.48-2.13-4.5-4.53-5.64c-2.55-1.21-5.27-1.45-8.02-0.98c-2.9,0.5-5.22,1.97-6.76,4.53
		c-0.04,0.07-0.11,0.13-0.25,0.28c0-1.49,0-2.86,0-4.23c-3.05,0-6.05,0-9.06,0c0,10.15,0,20.27,0,30.42
		C28.06,54.45,31.17,54.45,34.35,54.45z M9.49,54.43c3.16,0,6.29,0,9.42,0c0-10.16,0-20.28,0-30.41c-3.16,0-6.29,0-9.42,0
		C9.49,34.18,9.49,44.3,9.49,54.43z M14.21,8.83c-3.05,0.01-5.49,2.49-5.48,5.56c0.01,2.97,2.5,5.42,5.51,5.41
		c3.02-0.01,5.48-2.49,5.47-5.49C19.7,11.3,17.2,8.82,14.21,8.83z"/>
</g>
</svg>
