<!-- Generator: Adobe Illustrator 24.1.0, SVG Export Plug-In  -->
<svg version="1.1" xmlns="http://www.w3.org/2000/svg" xmlns:xlink="http://www.w3.org/1999/xlink" x="0px" y="0px" width="40px"
	 height="40.02px" viewBox="0 0 40 40.02" style="enable-background:new 0 0 40 40.02;" xml:space="preserve">
<style type="text/css">
	.st0{fill:#102542;}
</style>
<defs>
</defs>
<g>
	<path class="st0" d="M2.58,0C14.19,0,25.8,0,37.41,0c0.02,0.01,0.04,0.03,0.06,0.04C39.13,0.39,40,1.45,40,3.15
		c0,11.24,0,22.48,0,33.72c0,0.06,0,0.12,0,0.18c-0.03,1.45-0.9,2.55-2.3,2.89c-0.1,0.02-0.19,0.05-0.29,0.08
		c-11.61,0-23.22,0-34.83,0C2.54,40,2.5,39.98,2.46,39.97C0.98,39.71,0,38.55,0,37.04C0,25.67,0,14.29,0,2.92
		c0-1.29,0.8-2.39,2.04-2.77C2.22,0.09,2.4,0.05,2.58,0z M21.49,34.06c0-0.12,0-0.22,0-0.33c0-3-0.02-6.01,0.01-9.01
		c0.01-0.82,0.09-1.66,0.25-2.47c0.23-1.14,0.87-2.01,2.05-2.34c0.34-0.1,0.7-0.14,1.06-0.16c1.59-0.12,2.65,0.64,3.05,2.18
		c0.23,0.9,0.25,1.81,0.25,2.73c0,3.04,0,6.08,0,9.12c0,0.1,0,0.2,0,0.29c1.99,0,3.94,0,5.91,0c0-0.08,0-0.15,0-0.22
		c0-3.6,0.01-7.19-0.01-10.79c-0.01-1.44-0.13-2.87-0.56-4.26c-0.48-1.55-1.33-2.82-2.84-3.53c-1.6-0.76-3.3-0.91-5.01-0.61
		c-1.81,0.31-3.26,1.23-4.23,2.84c-0.03,0.04-0.07,0.08-0.16,0.17c0-0.93,0-1.79,0-2.64c-1.91,0-3.79,0-5.67,0
		c0,6.35,0,12.68,0,19.03C17.56,34.06,19.51,34.06,21.49,34.06z M5.94,34.06c1.97,0,3.93,0,5.9,0c0-6.36,0-12.69,0-19.03
		c-1.98,0-3.94,0-5.9,0C5.94,21.39,5.94,27.72,5.94,34.06z M8.89,5.52C6.98,5.53,5.46,7.08,5.46,9c0.01,1.86,1.57,3.39,3.44,3.38
		c1.89-0.01,3.43-1.56,3.42-3.44C12.32,7.07,10.76,5.52,8.89,5.52z"/>
</g>
</svg>
