<?xml version="1.0" encoding="UTF-8" standalone="no"?>
<!DOCTYPE svg PUBLIC "-//W3C//DTD SVG 1.1//EN" "http://www.w3.org/Graphics/SVG/1.1/DTD/svg11.dtd">
<svg width="100%" height="100%" viewBox="0 0 32 32" version="1.1" xmlns="http://www.w3.org/2000/svg" xmlns:xlink="http://www.w3.org/1999/xlink" xml:space="preserve" xmlns:serif="http://www.serif.com/" style="fill-rule:evenodd;clip-rule:evenodd;stroke-linejoin:round;stroke-miterlimit:2;">
    <g transform="matrix(1,0,0,1,-4,-4)">
        <path d="M6.1,4L34,4C35.3,4.3 36,5.1 36,6.5L36,33.6C36,34.8 35.3,35.6 34.2,35.9C34.1,35.9 34,35.9 34,36L6,36C4.8,35.8 4,34.9 4,33.7L4,6.4C4,5.4 4.6,4.5 5.6,4.2C5.8,4.1 5.9,4 6.1,4ZM21.2,31.3L21.2,23.8C21.2,23.1 21.3,22.5 21.4,21.8C21.6,20.9 22.1,20.2 23,19.9C23.3,19.8 23.6,19.8 23.8,19.8C25.1,19.7 25.9,20.3 26.2,21.5C26.4,22.2 26.4,22.9 26.4,23.7L26.4,31.2L31.1,31.2L31.1,22.4C31.1,21.2 31,20.1 30.7,19C30.3,17.8 29.6,16.7 28.4,16.2C27.1,15.6 25.8,15.5 24.4,15.7C23,15.9 21.8,16.7 21,18L20.9,18.1L20.9,16L16.4,16L16.4,31.2C18,31.3 19.6,31.3 21.2,31.3ZM8.8,31.3L13.5,31.3L13.5,16.1L8.8,16.1L8.8,31.3ZM11.1,8.4C9.6,8.4 8.4,9.6 8.4,11.2C8.4,12.7 9.7,13.9 11.2,13.9C12.7,13.9 13.9,12.7 13.9,11.1C13.9,9.7 12.6,8.4 11.1,8.4Z" style="fill:rgb(244,241,238);fill-rule:nonzero;"/>
    </g>
</svg>
