<?xml version="1.0" encoding="utf-8"?>
<!-- Generator: Adobe Illustrator 24.1.0, SVG Export Plug-In . SVG Version: 6.00 Build 0)  -->
<svg version="1.1" id="Layer_1" xmlns="http://www.w3.org/2000/svg" xmlns:xlink="http://www.w3.org/1999/xlink" x="0px" y="0px"
	 viewBox="0 0 512 512" style="enable-background:new 0 0 512 512;" xml:space="preserve">
<style type="text/css">
	.st0{fill:#F4F1EE;}
	.st1{fill:none;}
	.st2{opacity:0.33;}
	.st3{fill:url(#SVGID_1_);stroke:#080808;stroke-width:0.999;stroke-miterlimit:10;}
	.st4{fill:url(#SVGID_2_);stroke:#080808;stroke-width:0.999;stroke-miterlimit:10;}
	.st5{fill:url(#SVGID_3_);stroke:#080808;stroke-width:0.999;stroke-miterlimit:10;}
	.st6{fill:none;stroke:#080808;stroke-width:0.999;stroke-miterlimit:10;}
	.st7{fill:#C5A059;}
</style>
<g id="Layer_2_1_">
	<g>
		<polygon class="st0" points="16,16 16,496 434.7,16 		"/>
		<polygon class="st0" points="33.8,496 16,496 496,496 496,16 		"/>
	</g>
</g>
<g id="Layer_4">
	<g>
		<g>
			<polygon class="st0" points="16,16 16,496 434.7,16 			"/>
			<polyline class="st0" points="496,496 496,16 33.8,496 			"/>
			<path class="st0" d="M16,496"/>
		</g>
		<line class="st1" x1="33.8" y1="496" x2="496" y2="496"/>
	</g>
</g>
<g id="Layer_5">
	<g class="st2">
		<g>
			
				<linearGradient id="SVGID_1_" gradientUnits="userSpaceOnUse" x1="16" y1="258" x2="434.6875" y2="258" gradientTransform="matrix(1 0 0 -1 0 514)">
				<stop  offset="0" style="stop-color:#FFFFFF;stop-opacity:0"/>
				<stop  offset="1" style="stop-color:#7C6B8A"/>
			</linearGradient>
			<polygon class="st3" points="16,16 16,496 434.7,16 			"/>
			
				<linearGradient id="SVGID_2_" gradientUnits="userSpaceOnUse" x1="33.8125" y1="258" x2="496" y2="258" gradientTransform="matrix(1 0 0 -1 0 514)">
				<stop  offset="0" style="stop-color:#FFFFFF;stop-opacity:0"/>
				<stop  offset="1" style="stop-color:#7C6B8A"/>
			</linearGradient>
			<polyline class="st4" points="496,496 496,16 33.8,496 			"/>
			
				<linearGradient id="SVGID_3_" gradientUnits="userSpaceOnUse" x1="16" y1="18" x2="16" y2="18" gradientTransform="matrix(1 0 0 -1 0 514)">
				<stop  offset="0" style="stop-color:#FFFFFF;stop-opacity:0"/>
				<stop  offset="1" style="stop-color:#7C6B8A"/>
			</linearGradient>
			<path class="st5" d="M16,496"/>
		</g>
		<line class="st6" x1="33.8" y1="496" x2="496" y2="496"/>
	</g>
</g>
<g id="Layer_3">
	<g>
		<polygon class="st7" points="16,496 225.2,255.9 434.7,16 225.5,256.1 		"/>
	</g>
	<g>
		<polygon class="st7" points="496,16 265,256.1 33.8,496 264.8,255.9 		"/>
	</g>
</g>
</svg>
