<?xml version="1.0" encoding="utf-8"?>
<!-- Generator: Adobe Illustrator 24.1.0, SVG Export Plug-In . SVG Version: 6.00 Build 0)  -->
<svg version="1.1" xmlns="http://www.w3.org/2000/svg" xmlns:xlink="http://www.w3.org/1999/xlink" x="0px" y="0px"
	 viewBox="0 0 512 512" style="enable-background:new 0 0 512 512;" xml:space="preserve">
<style type="text/css">
	.st0{fill:#F4F1EE;}
	.st1{opacity:0.33;}
	.st2{fill:url(#SVGID_1_);}
	.st3{fill:url(#SVGID_2_);}
	.st4{fill:url(#SVGID_3_);}
	.st5{fill:url(#SVGID_4_);}
	.st6{fill:#C5A059;}
</style>
<g id="Layer_2">
	<g>
		<polygon class="st0" points="0,0 0,512 446.6,0 		"/>
		<polygon class="st0" points="19,512 0,512 512,512 512,0 		"/>
	</g>
</g>
<g id="Layer_4">
	<g>
		<g>
			<polygon class="st0" points="0,0 0,512 446.6,0 			"/>
			<polyline class="st0" points="512,512 512,0 19,512 			"/>
			<path class="st0" d="M0,512"/>
		</g>
		<line class="st0" x1="19" y1="512" x2="512" y2="512"/>
	</g>
</g>
<g id="Layer_5">
	<g class="st1">
		<g>
			<linearGradient id="SVGID_1_" gradientUnits="userSpaceOnUse" x1="0" y1="256" x2="446.6208" y2="256">
				<stop  offset="0" style="stop-color:#FFFFFF;stop-opacity:0"/>
				<stop  offset="1" style="stop-color:#7C6B8A"/>
			</linearGradient>
			<polygon class="st2" points="0,0 0,512 446.6,0 			"/>
			<linearGradient id="SVGID_2_" gradientUnits="userSpaceOnUse" x1="19.0151" y1="256" x2="512" y2="256">
				<stop  offset="0" style="stop-color:#FFFFFF;stop-opacity:0"/>
				<stop  offset="1" style="stop-color:#7C6B8A"/>
			</linearGradient>
			<polyline class="st3" points="512,512 512,0 19,512 			"/>
			<linearGradient id="SVGID_3_" gradientUnits="userSpaceOnUse" x1="0" y1="512" x2="0" y2="512">
				<stop  offset="0" style="stop-color:#FFFFFF;stop-opacity:0"/>
				<stop  offset="1" style="stop-color:#7C6B8A"/>
			</linearGradient>
			<path class="st4" d="M0,512"/>
		</g>
		<linearGradient id="SVGID_4_" gradientUnits="userSpaceOnUse" x1="19.0151" y1="512" x2="512" y2="512">
			<stop  offset="0" style="stop-color:#FFFFFF;stop-opacity:0"/>
			<stop  offset="1" style="stop-color:#7C6B8A"/>
		</linearGradient>
		<line class="st5" x1="19" y1="512" x2="512" y2="512"/>
	</g>
</g>
<g id="Layer_3">
	<g>
		<polygon class="st6" points="0,512 223.2,255.9 446.6,0 223.5,256.1 		"/>
	</g>
	<g>
		<polygon class="st6" points="512,0 265.6,256.1 19,512 265.4,255.9 		"/>
	</g>
</g>
</svg>
