<?xml version="1.0" encoding="utf-8"?>
<!-- Generator: Adobe Illustrator 24.1.0, SVG Export Plug-In . SVG Version: 6.00 Build 0)  -->
<svg version="1.1" xmlns="http://www.w3.org/2000/svg" xmlns:xlink="http://www.w3.org/1999/xlink" x="0px" y="0px"
	 viewBox="0 0 512 512" style="enable-background:new 0 0 512 512;" xml:space="preserve">
<style type="text/css">
	.st0{opacity:0;fill:url(#SVGID_1_);}
	.st1{opacity:0.9;}
	.st2{fill:url(#SVGID_2_);}
	.st3{fill:url(#SVGID_3_);}
</style>
<g id="Layer_2">
	
		<radialGradient id="SVGID_1_" cx="256" cy="256" r="218.07" gradientTransform="matrix(0.7071 0.7071 -5.6569 5.6569 1523.1354 -1373.1741)" gradientUnits="userSpaceOnUse">
		<stop  offset="0" style="stop-color:#F6F1E6"/>
		<stop  offset="3.990528e-02" style="stop-color:#F8F4EB"/>
		<stop  offset="0.1919" style="stop-color:#FCFAF6"/>
		<stop  offset="0.4056" style="stop-color:#FEFEFD"/>
		<stop  offset="0.9994" style="stop-color:#FFFFFF"/>
	</radialGradient>
	<rect x="37.9" y="37.9" class="st0" width="436.1" height="436.1"/>
</g>
<g id="Layer_1">
	<g id="Layer_2_1_" class="st1">
		<g id="Layer_10">
			
				<radialGradient id="SVGID_2_" cx="224.6849" cy="255.0834" r="224.3995" gradientTransform="matrix(0.7071 0.7071 -5.6569 5.6569 1508.7783 -1346.7625)" gradientUnits="userSpaceOnUse">
				<stop  offset="0" style="stop-color:#F6F1E6"/>
				<stop  offset="3.990528e-02" style="stop-color:#F8F4EB"/>
				<stop  offset="0.1919" style="stop-color:#FCFAF6"/>
				<stop  offset="0.4056" style="stop-color:#FEFEFD"/>
				<stop  offset="0.9994" style="stop-color:#FFFFFF"/>
			</radialGradient>
			<path class="st2" d="M16,17.1v476c0,1,1.3,1.5,1.9,0.7l415.2-476c0.6-0.7,0.1-1.8-0.8-1.8H17.1C16.5,16,16,16.5,16,17.1z"/>
			
				<radialGradient id="SVGID_3_" cx="256" cy="256.8134" r="239.5937" gradientTransform="matrix(0.7071 0.7071 -5.6569 5.6569 1527.7366 -1376.9618)" gradientUnits="userSpaceOnUse">
				<stop  offset="0" style="stop-color:#F6F1E6"/>
				<stop  offset="3.990528e-02" style="stop-color:#F8F4EB"/>
				<stop  offset="0.1919" style="stop-color:#FCFAF6"/>
				<stop  offset="0.4056" style="stop-color:#FEFEFD"/>
				<stop  offset="0.9994" style="stop-color:#FFFFFF"/>
			</radialGradient>
			<path class="st3" d="M34.1,495.7c-0.2,0.2-0.5,0.3-0.8,0.3H16h478.9c0.6,0,1.1-0.5,1.1-1.1V18.7c0-1-1.2-1.5-1.9-0.8L34.1,495.7z
				"/>
		</g>
	</g>
</g>
</svg>
