<svg xmlns="http://www.w3.org/2000/svg" xmlns:xlink="http://www.w3.org/1999/xlink" viewBox="0 0 301.56 269.38"><defs><style>.cls-1{fill:#655284;}.cls-2{fill:#cabfd7;}.cls-3{fill:#191928;}.cls-4{fill:url(#linear-gradient);}.cls-5{fill:url(#linear-gradient-2);}.cls-6{fill:url(#linear-gradient-3);}.cls-7{fill:#c5a059;}.cls-8{fill:url(#linear-gradient-4);}</style><linearGradient id="linear-gradient" x1="279.53" y1="234.72" x2="263.43" y2="218.06" gradientUnits="userSpaceOnUse"><stop offset="0" stop-opacity="0"/><stop offset="0.11" stop-color="#080810" stop-opacity="0.43"/><stop offset="0.25" stop-color="#0e0e1b" stop-opacity="0.76"/><stop offset="0.45" stop-color="#112" stop-opacity="0.95"/><stop offset="1" stop-color="#121224"/></linearGradient><linearGradient id="linear-gradient-2" x1="164.33" y1="256.11" x2="170.14" y2="223.16" gradientUnits="userSpaceOnUse"><stop offset="0" stop-opacity="0"/><stop offset="0.11" stop-color="#080810" stop-opacity="0.43"/><stop offset="0.25" stop-color="#0e0e1b" stop-opacity="0.76"/><stop offset="0.45" stop-color="#112" stop-opacity="0.95"/><stop offset="1" stop-color="#121224"/></linearGradient><linearGradient id="linear-gradient-3" x1="23.02" y1="234.92" x2="27.24" y2="204.92" gradientUnits="userSpaceOnUse"><stop offset="0" stop-opacity="0"/><stop offset="0.03" stop-color="#080810" stop-opacity="0.43"/><stop offset="0.08" stop-color="#0e0e1b" stop-opacity="0.76"/><stop offset="0.15" stop-color="#112" stop-opacity="0.95"/><stop offset="0.32" stop-color="#121224"/></linearGradient><linearGradient id="linear-gradient-4" x1="125.25" y1="236.92" x2="125.25" y2="43.19" gradientUnits="userSpaceOnUse"><stop offset="0" stop-color="#322b27" stop-opacity="0.96"/><stop offset="0.05" stop-color="#27211e" stop-opacity="0.97"/><stop offset="0.16" stop-color="#151211" stop-opacity="0.98"/><stop offset="0.29" stop-color="#090807" stop-opacity="0.99"/><stop offset="0.48" stop-color="#020202"/><stop offset="1"/></linearGradient></defs><g id="Layer_2" data-name="Layer 2"><g id="Layer_2-2" data-name="Layer 2"><polygon class="cls-1" points="0 201.34 49.95 208.14 187.56 43.19 153.03 0 0 201.34"/></g><g id="Layer_3" data-name="Layer 3"><polygon class="cls-2" points="200.43 59.76 188.47 79.99 112.43 213.62 244.56 236.28 252.83 228.01 200.43 59.76"/></g><g id="Layer_4" data-name="Layer 4"><polygon class="cls-3" points="200.43 59.76 301.56 185.72 254.28 226.17 200.43 59.76"/></g><g id="Layer_5" data-name="Layer 5"><polyline class="cls-4" points="244.56 236.28 243.64 269.38 301.56 208.14 301.56 185.72 244.56 236.28"/><polygon class="cls-5" points="104.81 212.38 85.15 242.15 243.64 269.38 244.56 236.28 104.81 212.38"/><polygon class="cls-6" points="0 201.34 0 231.69 50.57 236.28 50.14 208.14 0 201.34"/></g><g id="Layer_6" data-name="Layer 6"><polygon class="cls-7" points="200.43 59.76 50.2 236.92 95.11 243.64 200.43 59.76"/></g><g id="Layer_7" data-name="Layer 7"><polygon class="cls-8" points="200.55 59.18 187.56 43.19 49.95 208.14 50.2 236.92 200.55 59.18"/></g></g></svg>