<!-- Generator: Adobe Illustrator 24.1.0, SVG Export Plug-In  -->
<svg version="1.1" xmlns="http://www.w3.org/2000/svg" xmlns:xlink="http://www.w3.org/1999/xlink" x="0px" y="0px" width="24px"
	 height="24px" viewBox="0 0 64 55.43" style="enable-background:new 0 0 64 55.43;" xml:space="preserve">
<defs>
</defs>
<g>
	<g>
		<path d="M30.38,17.49l7.59,9.37l7.59,9.37l-11.91,1.89l-11.91,1.89l4.32-11.26L30.38,17.49 M30.32,17.11l-4.44,11.57l-4.44,11.57
			l12.24-1.94l12.24-1.94l-7.8-9.63L30.32,17.11L30.32,17.11z"/>
	</g>
	<g>
		<path d="M30.4,16.33l8.25,10.56l8.25,10.56l-13.27,1.87l-13.27,1.87l5.02-12.43L30.4,16.33 M30.34,15.9l-5.16,12.77l-5.16,12.77
			l13.64-1.92l13.64-1.92l-8.48-10.85L30.34,15.9L30.34,15.9z"/>
	</g>
	<g>
		<path d="M30.44,15.03l8.96,11.89l8.96,11.89l-14.78,1.81l-14.78,1.81l5.82-13.71L30.44,15.03 M30.38,14.56L24.4,28.65l-5.98,14.09
			l15.19-1.87L48.81,39L39.6,26.78L30.38,14.56L30.38,14.56z"/>
	</g>
	<g>
		<path d="M30.52,13.59l9.73,13.39l9.73,13.39L33.51,42.1l-16.45,1.73l6.73-15.11L30.52,13.59 M30.46,13.07L23.54,28.6l-6.92,15.54
			l16.91-1.78l16.91-1.78l-10-13.76L30.46,13.07L30.46,13.07z"/>
	</g>
	<g>
		<path d="M30.63,12l10.54,15.06l10.54,15.06l-18.31,1.6l-18.31,1.6l7.77-16.66L30.63,12 M30.57,11.41l-7.99,17.13L14.6,45.66
			l18.82-1.65l18.82-1.65L41.41,26.89L30.57,11.41L30.57,11.41z"/>
	</g>
	<g>
		<path d="M30.78,10.23L42.2,27.16L53.62,44.1l-20.38,1.42l-20.38,1.42l8.95-18.36L30.78,10.23 M30.73,9.57l-9.2,18.87l-9.2,18.87
			l20.94-1.46l20.94-1.46L42.47,26.98L30.73,9.57L30.73,9.57z"/>
	</g>
	<g>
		<path d="M30.98,8.27L43.34,27.3L55.7,46.34l-22.66,1.19l-22.66,1.19l10.3-20.22L30.98,8.27 M30.94,7.54L20.35,28.32L9.76,49.11
			l23.3-1.22l23.3-1.22L43.65,27.1L30.94,7.54L30.94,7.54z"/>
	</g>
	<g>
		<path d="M31.24,6.09l13.36,21.39l13.36,21.39l-25.2,0.88l-25.2,0.88l11.84-22.27L31.24,6.09 M31.22,5.28L19.05,28.17L6.88,51.05
			l25.9-0.9l25.9-0.9L44.95,27.26L31.22,5.28L31.22,5.28z"/>
	</g>
	<g>
		<path d="M31.58,3.68l14.43,24.02l14.43,24.02L32.43,52.2L4.41,52.69L18,28.18L31.58,3.68 M31.56,2.78L17.6,27.96L3.64,53.15
			l28.8-0.5l28.8-0.5L46.4,27.46L31.56,2.78L31.56,2.78z"/>
	</g>
	<g>
		<path d="M32,1l15.57,26.96l15.57,26.96H32H0.87l15.57-26.96L32,1 M32,0L16,27.71L0,55.43h32h32L48,27.71L32,0L32,0z"/>
	</g>
</g>
</svg>
