<!-- Generator: Adobe Illustrator 24.1.0, SVG Export Plug-In  -->
<svg version="1.1" xmlns="http://www.w3.org/2000/svg" xmlns:xlink="http://www.w3.org/1999/xlink" x="0px" y="0px"
	 width="457.73px" height="393.78px" viewBox="0 0 457.73 393.78" style="enable-background:new 0 0 457.73 393.78;"
	 xml:space="preserve">
<defs>
</defs>
<g id="rTylLs.tif_1_">
	<g>
		<path d="M330.22,207.56c-0.09,12.98-4.34,24.74-11.84,34.9c-9.94,13.48-20.51,26.55-31.54,39.16
			c-24.17,27.64-48.66,55.02-73.35,82.21c-6.78,7.46-14.13,14.65-22.2,20.65c-16.72,12.44-35.45,12.34-52.24,0.09
			c-6.8-4.96-13.21-10.72-18.82-16.99c-32.88-36.8-65.56-73.78-98.09-110.9c-4.89-5.58-9.01-11.94-12.83-18.34
			c-12.23-20.51-12.69-41.57,0.08-61.72c7.96-12.56,17.34-24.37,27.17-35.56c29.17-33.2,58.77-66.03,88.49-98.75
			c4.85-5.35,10.72-10.04,16.81-13.94c15.28-9.78,31.26-9.99,46.4-0.02c7.82,5.15,15.12,11.54,21.38,18.52
			c32.76,36.46,65.25,73.17,97.52,110.07c10.32,11.8,19.05,24.8,21.93,40.74C329.71,200.93,329.86,204.26,330.22,207.56z
			 M299.26,208.25c-1.86-5.38-2.75-10.06-5-13.97c-3.54-6.16-7.47-12.26-12.15-17.58c-31.69-36.09-63.57-72.01-95.55-107.85
			c-4.18-4.68-9-8.87-13.96-12.73c-5.42-4.22-9.56-4.09-15,0.02c-3.83,2.89-7.63,5.98-10.82,9.54
			c-31.83,35.52-63.59,71.11-95.21,106.81c-4.83,5.45-8.99,11.51-13.21,17.47c-8.13,11.48-8.19,23.14-0.12,34.72
			c3.04,4.36,5.92,8.88,9.41,12.85c29.84,33.95,59.73,67.86,89.79,101.62c5.84,6.55,12.18,12.74,18.81,18.48
			c6.47,5.6,11.17,5.5,17.82,0c5.23-4.32,10.23-9.04,14.76-14.09c26.55-29.55,53.05-59.14,79.3-88.95
			c8.22-9.33,16.05-19.09,23.23-29.23C294.99,220.27,296.75,213.87,299.26,208.25z"/>
		<path d="M367.17,0.01c24.58,0,49.17-0.05,73.75,0.02c8.94,0.03,15.58,5.48,16.64,13.32c1.23,9.14-4.42,16.8-13.56,18.27
			c-1.63,0.26-3.31,0.29-4.96,0.29c-47.84,0.01-95.67,0.04-143.51-0.05c-2.93-0.01-6.04-0.37-8.75-1.4
			c-6.99-2.66-10.96-10.12-9.69-17.26c1.36-7.65,7.64-13.1,15.84-13.13c24.75-0.11,49.5-0.04,74.25-0.04
			C367.17,0.03,367.17,0.02,367.17,0.01z"/>
	</g>
</g>
</svg>
