<!-- Generator: Adobe Illustrator 24.1.0, SVG Export Plug-In  -->
<svg version="1.1" xmlns="http://www.w3.org/2000/svg" xmlns:xlink="http://www.w3.org/1999/xlink" x="0px" y="0px" width="64px"
	 height="71.65px" viewBox="0 0 64 71.65" style="enable-background:new 0 0 64 71.65;" xml:space="preserve">
<defs>
</defs>
<path d="M43.97,51.33c2.79,2.49,5.58,4.97,8.95,7.98c-3.69,3.54-6.82,6.83-10.26,9.76c-4.18,3.55-9.75,3.5-13.8-0.4
	c-8.76-8.43-17.39-17-25.81-25.76c-4.19-4.35-4.01-10.09,0.27-14.49c8.27-8.48,16.66-16.84,25.2-25.04
	c4.77-4.58,10.49-4.45,15.24,0.12C49.44,8.96,55,14.57,60.48,20.25c3.74,3.88,4.85,9.33,1.63,12.92
	c-5.63,6.27-12.06,11.84-18.15,17.7c-2.32-2.52-4.64-5.03-7.65-8.3c5.26-5.13,10.29-10.03,14.89-14.52
	c-5.29-5.22-10.44-10.3-15.13-14.93C28.54,20.68,20.7,28.56,13.39,35.9c7.42,7.49,15.17,15.31,23.26,23.48
	C38.94,56.87,41.46,54.1,43.97,51.33z"/>
</svg>
