<!-- Generator: Adobe Illustrator 24.1.0, SVG Export Plug-In  -->
<svg version="1.1" xmlns="http://www.w3.org/2000/svg" xmlns:xlink="http://www.w3.org/1999/xlink" x="0px" y="0px" width="40px"
	 height="44.78px" viewBox="0 0 40 44.78" style="enable-background:new 0 0 40 44.78;" xml:space="preserve">
<style type="text/css">
	.st0{fill:#102542;}
</style>
<defs>
</defs>
<g>
	<path class="st0" d="M27.48,32.08c1.74,1.55,3.49,3.11,5.6,4.98c-2.31,2.21-4.26,4.27-6.41,6.1c-2.62,2.22-6.09,2.19-8.63-0.25
		C12.56,37.64,7.17,32.28,1.9,26.81c-2.62-2.72-2.51-6.31,0.17-9.06c5.17-5.3,10.41-10.52,15.75-15.65
		c2.98-2.86,6.56-2.78,9.52,0.07C30.9,5.6,34.38,9.11,37.8,12.66c2.33,2.42,3.03,5.83,1.02,8.08c-3.52,3.92-7.54,7.4-11.34,11.06
		c-1.45-1.57-2.9-3.14-4.78-5.19c3.29-3.2,6.43-6.27,9.31-9.07c-3.31-3.26-6.52-6.44-9.46-9.33c-4.7,4.72-9.61,9.65-14.18,14.24
		c4.64,4.68,9.48,9.57,14.54,14.67C24.34,35.54,25.91,33.81,27.48,32.08z"/>
</g>
</svg>
