<?xml version="1.0" encoding="utf-8"?>
<!-- Generator: Adobe Illustrator 24.1.0, SVG Export Plug-In . SVG Version: 6.00 Build 0)  -->
<svg version="1.1" id="Layer_1" xmlns="http://www.w3.org/2000/svg" xmlns:xlink="http://www.w3.org/1999/xlink" x="0px" y="0px"
	 viewBox="0 0 40 44.8" style="enable-background:new 0 0 40 44.8;" xml:space="preserve">
<style type="text/css">
	.st0{fill:#663399;}
</style>
<g>
	<path class="st0" d="M26,30.1c1.4,1.2,2.8,2.5,4.5,4c-1.8,1.8-3.4,3.4-5.1,4.9c-2.1,1.8-4.9,1.8-6.9-0.2C14,34.6,9.7,30.3,5.5,25.9
		c-2.1-2.2-2-5,0.1-7.2c4.1-4.2,8.3-8.4,12.6-12.5c2.4-2.3,5.2-2.2,7.6,0.1c2.8,2.7,5.6,5.6,8.4,8.4c1.9,1.9,2.4,4.7,0.8,6.5
		c-2.8,3.1-6,5.9-9.1,8.8c-1.2-1.3-2.3-2.5-3.8-4.2c2.6-2.6,5.1-5,7.4-7.3C27,15.9,24.4,13.4,22,11c-3.8,3.8-7.7,7.7-11.3,11.4
		c3.7,3.7,7.6,7.7,11.6,11.7C23.5,32.9,24.7,31.5,26,30.1z"/>
</g>
</svg>
