<?xml version="1.0" encoding="utf-8"?>
<!-- Generator: Adobe Illustrator 24.1.0, SVG Export Plug-In . SVG Version: 6.00 Build 0)  -->
<svg version="1.1" id="Layer_1" xmlns="http://www.w3.org/2000/svg" xmlns:xlink="http://www.w3.org/1999/xlink" x="0px" y="0px"
	 viewBox="0 0 550.1 440.4" style="enable-background:new 0 0 550.1 440.4;" xml:space="preserve">
<g>
	<path d="M99.5,156.9c2.2,0,3.6,0,5,0c146.8,0,293.6,0,440.4-0.1c4.3,0,5.2,1.1,5.2,5.3c-0.2,38.8-0.2,77.6,0,116.4
		c0,4.1-1.1,5.1-5.1,5.1c-95.7-0.1-191.4,0-287.1,0c-51.4,0-102.8-0.1-154.2-0.1c-1.1,0-2.3,0-3.9,0c7-7.2,13.7-13.8,20.2-20.6
		c1.4-1.4,3-1,4.6-1c65.6,0,131.2,0,196.9,0c67.5,0,135.1-0.1,202.6,0.1c3.7,0,4.6-0.9,4.5-4.6c-0.2-24.9-0.2-49.8,0-74.7
		c0-3.8-1.1-4.5-4.6-4.5c-132.4,0.1-264.9,0.1-397.3,0.2c-4.3,0-7.5-1.1-10.4-4.3C111.2,168.3,105.5,163,99.5,156.9z"/>
	<path d="M101.8,124.8c6-6.1,12.1-12.2,18-18.3c1.6-1.7,3.5-1.3,5.4-1.3c64.1,0,128.3,0,192.4,0c68.7,0,137.4,0,206.2,0.1
		c4,0,5-1,5-5c-0.2-26.2-0.1-52.4-0.2-78.6c-1-2.9-3.5-1.6-5.3-1.6C390.6,20,257.9,20,125.2,20c-1.8,0-3.5,0.2-5.3,0.2
		c-6.4-5.6-12.2-11.8-18.1-18c0.8-0.4,1-1.1,1-1.9c2.8-0.1,5.6-0.3,8.4-0.3c143.7,0,287.4,0,431.2,0c2.2,0,4.4,0.1,6.6,0.2
		c0.3,0.3,0.6,0.6,0.9,1c0,25.5,0.1,51.1,0.1,76.6c0,15.9-0.1,31.9-0.2,47.8c-0.3,0.3-0.6,0.6-0.9,0.9c-10.5,0.1-21,0.3-31.5,0.3
		c-135,0-270,0-405,0c-3.2,0-6.5-0.2-9.7-0.3C102.7,125.8,102.5,125.2,101.8,124.8z"/>
	<path d="M120.5,334.5c-7.4-6.1-13.4-13.7-20.4-19.9c0.1-1.2,0.7-1.1,1.3-1.1c140.9,0,281.8,0,422.7,0c7.4,0,14.8,0.1,22.2,0
		c2.7-0.1,3.8,0.4,3.8,3.5c-0.1,39.7-0.1,79.4,0,119.1c0,3.6-1.1,4.3-4.4,4.3c-34.2-0.1-68.4-0.1-102.7,0c-2.9,0-3.8-0.7-3.7-3.6
		c0.3-5.6,0.2-11.2,0.3-16.9c28.3,0,56.6,0,84.8,0c5.8,0,5.8-0.1,5.8-5.6c0-25,0-50,0-75.1c0-5.5-0.1-5.6-5.8-5.6
		c-133.1,0-266.2,0-399.3,0C123.6,333.7,121.8,333.1,120.5,334.5z"/>
	<path d="M128.1,379.3c-20,19.6-39.8,39.4-59.6,59.2c-1.2,1.2-2.4,1.9-4.2,1.9c-21.2-0.1-42.3,0-64.1,0C5,434,9.4,428,13.9,422
		c10.8-14.1,21.5-28.2,32.4-42.2c2-2.6,0.6-3.9-0.7-5.6c-14.5-19.1-29-38.2-43.4-57.3c-0.6-1-1.2-1.9-2.2-3.4h3.6
		c19.9,0,39.7,0.1,59.6,0.1c2.3,0,4.1,0.5,5.9,2.2c19.6,19.8,39.3,39.4,59.1,59.1C129.8,376.5,130,377.4,128.1,379.3z"/>
	<path d="M128,66.1c-19.7,19.4-39.4,39-59,58.5c-1.1,1.1-2.1,2.3-4.1,2.3c-20.9-0.2-41.8-0.2-62.7-0.3c-0.3-0.3-0.6-0.6-1-0.9
		C16,106.1,30.8,86.6,45.7,67.2c2-2.5,1.7-4.1,0-6.3C31.2,41.7,16.7,22.4,2.2,3.2C1.8,2.6,1.5,2,1.1,1.3c0.4-0.3,0.8-0.7,1.1-1
		C23.1,0.2,44,0.2,64.9,0.1c1.5,0,2.4,0.8,3.4,1.7c19.9,19.9,39.9,39.8,59.9,59.5C130,63.3,129.9,64.2,128,66.1z"/>
	<path d="M128.9,222c-20.5,19.9-40.2,40.5-61.1,60.1c-22.2,0-44.3,0-66.5,0c14.7-19.3,29.2-38.6,44-57.8c2.2-2.8,2.3-4.6,0.1-7.4
		C31,198,16.7,179,2.3,160c-0.6-0.8-1.2-1.6-1.8-2.5c1.3-1.2,2.7-0.6,3.9-0.6c19.5,0,39.1,0,58.6-0.1c2.5,0,4.4,0.6,6.2,2.4
		c19.7,19.7,39.4,39.3,59.1,59C129.3,219.2,130.9,220,128.9,222z"/>
	<path d="M99.8,440.3c7.1-7.2,13.7-13.9,20.2-20.7c1.4-1.4,2.9-1.2,4.5-1.2c58.2,0,116.4,0.1,174.7,0.1c37.6,0,75.3,0,112.9-0.2
		c3.8,0,4.8,1,4.6,4.7c-0.3,4.6-0.3,9.2,0,13.8c0.2,3-0.9,3.6-3.7,3.6c-30.4-0.1-60.7-0.1-91.1-0.1
		C248,440.3,174.2,440.3,99.8,440.3z"/>
	<path d="M120.5,334.5c1.4-1.4,3.1-0.8,4.6-0.8c133.1,0,266.2,0,399.3,0c5.8,0,5.8,0.1,5.8,5.6c0,25,0,50,0,75.1
		c0,5.5-0.1,5.6-5.8,5.6c-28.3,0-56.6,0-84.8,0c0.5-2.7,2.6-1.3,3.8-1.3c26.5-0.1,53,0,79.5,0c5.7,0,5.7,0,5.7-5.9
		c0-24.3-0.1-48.6,0.1-72.8c0-3.6-0.5-4.9-4.7-4.9c-79.4,0.1-158.7,0.1-238.1,0.1c-54.3,0-108.7,0-163,0
		C122.1,335,121.2,335.3,120.5,334.5z"/>
	<path d="M119.7,20.1c1.8-0.1,3.5-0.2,5.3-0.2c132.7,0,265.4,0,398.1,0.1c1.8,0,4.3-1.3,5.3,1.6c-66.5,0-133-0.1-199.5-0.1
		c-68.1,0-136.3,0-204.4,0C122.9,21.4,120.9,22.2,119.7,20.1z"/>
	<path d="M67.8,282.1c-0.7,1.5-2.1,1.3-3.4,1.3c-20.3,0-40.6,0-61,0c-0.9,0-2.1,0.8-2.6-0.7c0-0.1,0.1-0.2,0.2-0.3
		c0.1-0.1,0.2-0.2,0.4-0.2C23.5,282.1,45.6,282.1,67.8,282.1z"/>
	<path d="M102.7,0.3c0,0.8-0.2,1.5-1,1.9c-0.7-0.4-1.7-0.8-1.4-1.8C100.4,0.1,101.8,0.3,102.7,0.3z"/>
	<path d="M101.8,124.8c0.7,0.4,0.9,1,0.9,1.8c-0.8,0.1-1.7,0.6-2.2-0.3C100.3,126,101.3,125.3,101.8,124.8z"/>
	<path d="M2.2,0.3C1.9,0.6,1.5,1,1.1,1.3C1,1,0.8,0.7,0.7,0.4C1.2,0.3,1.7,0.3,2.2,0.3z"/>
	<path d="M2.2,126.6c-0.5,0-1-0.1-1.4-0.1c0.2-0.3,0.3-0.6,0.5-0.8C1.6,125.9,1.9,126.3,2.2,126.6z"/>
	<path d="M549.9,1.2c-0.3-0.3-0.6-0.6-0.9-1C549.7,0.1,550,0.5,549.9,1.2z"/>
	<path d="M548.9,126.6c0.3-0.3,0.6-0.6,0.9-0.9C549.9,126.4,549.6,126.7,548.9,126.6z"/>
</g>
</svg>
