<!-- Generator: Adobe Illustrator 24.1.0, SVG Export Plug-In  -->
<svg version="1.1" xmlns="http://www.w3.org/2000/svg" xmlns:xlink="http://www.w3.org/1999/xlink" x="0px" y="0px" width="55.7px"
	 height="57.27px" viewBox="0 0 55.7 57.27" style="enable-background:new 0 0 55.7 57.27;" xml:space="preserve">
<defs>
</defs>
<g id="_x31_Vg6j4.tif_1_">
	<g>
		<path d="M20.83,45.21c-1.28,0-2.52,0-3.76,0c-0.85,0-1.01-0.13-1.23-0.93c-1.32-4.76-2.64-9.52-3.95-14.28
			c-0.27-0.99,0.04-1.39,1.06-1.39c5.61,0,11.22,0,16.83,0c1.23,0,1.23,0,1.68,1.17c0.72-0.25,1.45-0.5,2.17-0.76
			c0.75-0.26,1.5-0.54,2.25-0.8c0.65-0.22,1.12-0.08,1.29,0.4c0.2,0.52-0.05,0.95-0.72,1.19c-1.5,0.54-3,1.07-4.53,1.62
			c0.02,0.18,0.03,0.33,0.07,0.47c1.02,3.69,2.05,7.38,3.05,11.08c0.12,0.46,0.32,0.58,0.76,0.57c1.34-0.03,2.69-0.05,4.03-0.03
			c0.28,0,0.61,0.15,0.83,0.34c2.83,2.48,5.64,4.97,8.45,7.47c0.95,0.85,2.02,1.07,3.19,0.56c1.15-0.51,1.71-1.45,1.71-2.69
			c0-4.62,0.01-9.24-0.03-13.85c-0.01-1.8-1.29-3.42-3.1-4.06c-1.37-0.49-2.76-0.93-4.15-1.39c-0.94-0.32-1.01-0.39-1.01-1.36
			c-0.03-3.76-0.06-7.52-0.1-11.28c0-0.25,0-0.5,0-0.78c-1,0.13-1.92,0.27-2.85,0.37c-4.26,0.46-8.47,0.19-12.61-1
			c-0.17-0.05-0.34-0.11-0.49-0.19c-0.43-0.23-0.53-0.63-0.38-1.05c0.15-0.41,0.5-0.6,0.94-0.5c0.43,0.1,0.86,0.24,1.32,0.37
			c0.09-0.63,0.14-1.23,0.28-1.81c0.79-3.27,2.82-5.38,6.03-6.36c0.28-0.08,0.52-0.29,0.76-0.47c0.73-0.54,1.42-1.14,2.18-1.62
			C41.3,3.88,41.79,4.1,42,4.56c0.2,0.44,0.06,0.87-0.44,1.11c-2.1,1.02-2.78,2.87-2.96,5.01c-0.04,0.43,0,0.86,0,1.29
			c0,0.5-0.25,0.82-0.76,0.86c-0.51,0.04-0.89-0.23-0.89-0.72c0.02-1.08,0.13-2.16,0.21-3.25c0.01-0.15,0.05-0.3,0.08-0.46
			c-2.07,0.46-3.82,3.29-3.93,6.42c0.69,0.11,1.39,0.24,2.09,0.31c3.67,0.37,7.31,0.2,10.92-0.6c0.4-0.09,0.54-0.25,0.51-0.66
			c-0.16-2.52-1.38-4.32-3.64-5.43c-0.23-0.11-0.47-0.19-0.69-0.32c-0.43-0.24-0.62-0.61-0.4-1.08c0.21-0.45,0.58-0.64,1.06-0.45
			c2.85,1.1,4.68,3.09,5.23,6.13c0.13,0.7,0.1,1.43,0.13,2.15c0.02,0.56-0.24,0.95-0.8,1.05c-0.39,0.07-0.45,0.28-0.44,0.61
			c0.04,3.76,0.07,7.52,0.09,11.28c0,0.39,0.16,0.54,0.5,0.65c1.18,0.38,2.36,0.79,3.54,1.18c2.79,0.93,4.32,3.72,4.28,6.01
			c-0.07,4.54,0,9.08-0.02,13.62c-0.01,2.67-2.14,4.66-4.81,4.54c-1.14-0.05-2.09-0.54-2.93-1.29c-2.55-2.27-5.11-4.51-7.65-6.78
			c-0.43-0.39-0.86-0.57-1.45-0.56c-2.75,0.03-5.49,0.01-8.24,0.01c-0.23,0-0.46,0-0.71,0c-0.33,2.17-1.84,2.49-3.63,2.34
			c0.77,1.82,3.27,3.01,5.27,2.54c0-0.94,0-1.89,0-2.84c0-0.21-0.01-0.43,0.03-0.64c0.09-0.49,0.4-0.75,0.91-0.7
			c0.48,0.04,0.73,0.34,0.75,0.81c0.02,0.6,0.01,1.21,0.01,1.81c0,2.57,0,5.14,0,7.72c0,0.74-0.49,1.17-1.1,0.97
			c-0.49-0.16-0.6-0.57-0.6-1.03c0-1.23-0.03-2.46,0.01-3.68c0.02-0.52-0.15-0.67-0.66-0.65c-2.35,0.09-4.23-0.85-5.66-2.7
			c-0.13-0.17-0.28-0.33-0.4-0.5c-0.48-0.69-1-1.16-1.97-1.17c-0.93-0.01-1.57-0.71-1.87-1.62C20.92,45.67,20.89,45.46,20.83,45.21z
			 M13.8,30.34c0.01,0.15,0,0.25,0.03,0.34c1.15,4.16,2.3,8.32,3.47,12.47c0.05,0.17,0.33,0.37,0.52,0.38
			c0.84,0.04,1.68-0.01,2.51,0.03c0.42,0.02,0.56-0.14,0.65-0.53c0.24-1.04,1.05-1.75,2.11-1.78c1.54-0.04,3.08-0.05,4.61,0.01
			c1.02,0.04,1.68,0.65,2.02,1.59c0.08,0.21,0.12,0.44,0.18,0.65c1.17,0,2.31,0,3.48,0c-0.02-0.17-0.03-0.29-0.06-0.39
			c-1.13-4.1-2.27-8.21-3.39-12.31c-0.12-0.42-0.34-0.48-0.71-0.48c-4.97,0.01-9.94,0.01-14.9,0.01
			C14.17,30.31,14.02,30.33,13.8,30.34z M25.38,42.88c-0.66,0-1.32-0.01-1.98,0c-0.57,0.02-0.81,0.27-0.82,0.83
			c-0.01,0.45,0,0.89,0,1.34c-0.01,0.53,0.27,0.82,0.77,0.83c1.34,0.02,2.68,0.02,4.02,0c0.54-0.01,0.81-0.32,0.81-0.86
			c0-0.43,0.01-0.85,0-1.28c-0.02-0.59-0.26-0.85-0.86-0.87C26.67,42.86,26.02,42.88,25.38,42.88z"/>
		<path d="M17.79,25.17c-3.51,0-7.01,0-10.52,0c-2.77,0-4.94-1.11-6.37-3.52c-0.57-0.95-0.87-2-0.88-3.11
			c-0.01-3.92-0.07-7.83,0.01-11.75c0.07-3.75,2.82-6.62,6.57-6.7c5.55-0.12,11.1-0.12,16.65,0c3.81,0.08,6.51,2.96,6.66,6.77
			c0.03,0.88,0.02,1.75,0.01,2.63c-0.01,0.66-0.33,1.01-0.88,1c-0.52-0.01-0.8-0.36-0.82-0.99c-0.03-1.15,0.05-2.31-0.12-3.44
			c-0.38-2.49-2.47-4.31-4.99-4.32c-5.43-0.04-10.87-0.04-16.3,0C3.95,1.75,1.72,4.03,1.69,6.96c-0.04,3.76-0.05,7.52,0,11.28
			c0.04,3.04,2.35,5.23,5.42,5.24c7.17,0.01,14.34,0,21.5,0c0.89,0,1.29,0.25,1.31,0.81c0.02,0.58-0.43,0.88-1.32,0.88
			C25,25.17,21.4,25.17,17.79,25.17z"/>
		<path d="M46.92,41.2c0-1,0-1.9,0-2.81c0-0.53,0-1.05,0.01-1.58c0.01-0.59,0.31-0.93,0.81-0.94c0.52-0.01,0.87,0.33,0.88,0.94
			c0.01,0.84-0.02,1.68-0.03,2.51c-0.01,0.86,0,1.71-0.04,2.57c-0.01,0.37,0.1,0.63,0.43,0.81c0.29,0.16,0.55,0.36,0.81,0.57
			c0.43,0.33,0.52,0.85,0.24,1.23c-0.29,0.38-0.74,0.46-1.19,0.16c-0.97-0.65-1.92-1.33-2.88-1.99c-1.15-0.8-2.32-1.58-3.45-2.4
			c-0.93-0.67-1.9-0.81-2.97-0.37c-0.84,0.35-1.71,0.66-2.56,0.98c-0.69,0.26-1.16,0.14-1.36-0.34c-0.22-0.53,0.03-0.96,0.73-1.23
			c0.89-0.34,1.78-0.67,2.67-1.01c1.56-0.6,3.01-0.42,4.38,0.53c1.04,0.72,2.08,1.45,3.12,2.17C46.61,41.06,46.72,41.09,46.92,41.2z
			"/>
		<path d="M35.69,20.7c0,0.6-0.01,1.21,0,1.81c0.01,0.81,0.38,1.4,1.1,1.79c0.69,0.37,1.37,0.74,2.03,1.15
			c0.68,0.42,1.36,0.58,2.15,0.28c0.72-0.27,1.33,0.27,1.12,0.95c-0.07,0.24-0.32,0.5-0.55,0.6c-1.06,0.46-2.12,0.41-3.14-0.14
			c-0.7-0.38-1.37-0.83-2.08-1.17c-1.59-0.77-2.35-2.02-2.34-3.77c0.01-1.03,0-2.06,0.02-3.09c0.01-0.69,0.32-1.02,0.86-1.02
			c0.55,0.01,0.82,0.34,0.82,1.04C35.69,19.65,35.69,20.17,35.69,20.7C35.69,20.7,35.69,20.7,35.69,20.7z"/>
		<path d="M21.37,12.37c-0.87-0.8-1.76-1.59-2.62-2.41c-0.46-0.44-0.5-0.97-0.14-1.33c0.36-0.36,0.87-0.32,1.33,0.14
			c1.01,1.02,2.02,2.05,3.02,3.09c0.48,0.5,0.48,0.92,0,1.42c-1.01,1.05-2.04,2.09-3.07,3.12c-0.44,0.44-0.91,0.46-1.28,0.1
			c-0.35-0.34-0.33-0.88,0.1-1.29c0.86-0.84,1.75-1.65,2.63-2.47C21.35,12.61,21.36,12.49,21.37,12.37z"/>
		<path d="M8.59,12.61c0.73,0.89,1.42,1.71,2.1,2.54c0.44,0.54,0.46,1.06,0.06,1.39c-0.42,0.35-0.89,0.25-1.35-0.3
			c-0.82-0.99-1.64-1.98-2.45-2.98c-0.48-0.59-0.46-0.92,0.08-1.47c0.98-1,1.96-2.01,2.95-3c0.47-0.47,0.96-0.53,1.33-0.18
			C11.7,9,11.66,9.47,11.15,9.99C10.32,10.85,9.47,11.71,8.59,12.61z"/>
		<path d="M13.15,17.15c-0.82,0-1.22-0.59-0.95-1.18c0.2-0.44,0.45-0.86,0.69-1.29c1.11-2.03,2.22-4.06,3.33-6.09
			c0.22-0.4,0.54-0.69,0.98-0.52c0.27,0.1,0.55,0.38,0.64,0.65c0.07,0.22-0.07,0.56-0.21,0.81c-1.13,2.09-2.27,4.17-3.41,6.25
			c-0.17,0.31-0.3,0.64-0.52,0.91C13.52,16.91,13.25,17.06,13.15,17.15z"/>
	</g>
</g>
</svg>
