<!-- Generator: Adobe Illustrator 24.1.0, SVG Export Plug-In  -->
<svg version="1.1" xmlns="http://www.w3.org/2000/svg" xmlns:xlink="http://www.w3.org/1999/xlink" x="0px" y="0px" width="23.86px"
	 height="11.59px" viewBox="0 0 23.86 11.59" style="enable-background:new 0 0 23.86 11.59;" xml:space="preserve">
<style type="text/css">
	.st0{fill:#F2F0EB;}
</style>
<defs>
</defs>
<g>
	<path class="st0" d="M23.86,10.52v0.13c0,0.52-1.26,0.94-2.8,0.94H2.79C1.25,11.59,0,11.17,0,10.65v-0.13
		c0-0.51,1.25-0.93,2.79-0.93h18.27C22.6,9.59,23.86,10.01,23.86,10.52z"/>
	<path class="st0" d="M23.86,5.79c0,0.27-0.34,0.52-0.88,0.71s-1.29,0.29-2.11,0.29H2.98C1.34,6.79,0,6.34,0,5.79
		c0-0.27,0.34-0.52,0.88-0.71s1.29-0.29,2.11-0.29h17.9C22.52,4.79,23.86,5.25,23.86,5.79z"/>
	<path class="st0" d="M0,1c0-0.28,0.34-0.53,0.88-0.71S2.17,0,2.98,0h17.9c1.64,0,2.98,0.45,2.98,1c0,0.28-0.34,0.52-0.88,0.7
		S21.7,2,20.88,2H2.98C1.34,2,0,1.55,0,1z"/>
</g>
</svg>
