<!-- Generator: Adobe Illustrator 24.1.0, SVG Export Plug-In  -->
<svg version="1.1" xmlns="http://www.w3.org/2000/svg" xmlns:xlink="http://www.w3.org/1999/xlink" x="0px" y="0px" width="24px"
	 height="16px" viewBox="0 0 24 16" style="enable-background:new 0 0 24 16;" xml:space="preserve">
<style type="text/css">
	.st0{fill:#080808;}
</style>
<defs>
</defs>
<g>
	<g>
		<path class="st0" d="M24,13.65v0.28c0,1.14-1.27,2.07-2.82,2.07H2.81C1.26,16,0,15.07,0,13.93v-0.28c0-1.13,1.26-2.06,2.81-2.06
			h18.37C22.73,11.59,24,12.52,24,13.65z"/>
		<path class="st0" d="M24,8c0,0.6-0.34,1.16-0.88,1.56c-0.54,0.4-1.3,0.65-2.12,0.65H3c-1.65,0-3-1-3-2.21
			c0-0.6,0.34-1.16,0.88-1.56C1.42,6.04,2.18,5.79,3,5.79h18C22.65,5.79,24,6.79,24,8z"/>
		<path class="st0" d="M0,2.21C0,1.6,0.34,1.05,0.88,0.65C1.42,0.25,2.18,0,3,0h18c1.65,0,3,0.99,3,2.21c0,0.61-0.34,1.15-0.88,1.55
			c-0.54,0.4-1.3,0.65-2.12,0.65H3C1.35,4.41,0,3.42,0,2.21z"/>
	</g>
</g>
</svg>
