<?xml version="1.0" encoding="utf-8"?>
<!-- Generator: Adobe Illustrator 24.1.0, SVG Export Plug-In . SVG Version: 6.00 Build 0)  -->
<svg version="1.1" xmlns="http://www.w3.org/2000/svg" xmlns:xlink="http://www.w3.org/1999/xlink" x="0px" y="0px"
	 viewBox="0 0 12 12" style="enable-background:new 0 0 12 12;" xml:space="preserve">
<style type="text/css">
	.st0{fill:url(#SVGID_1_);}
	.st1{fill:url(#SVGID_2_);}
	.st2{fill:url(#SVGID_3_);}
	.st3{fill:url(#SVGID_4_);}
</style>
<g id="Layer_2">
</g>
<g id="Layer_3">
	<linearGradient id="SVGID_1_" gradientUnits="userSpaceOnUse" x1="5.2472" y1="0.7528" x2="0.7528" y2="5.2472">
		<stop  offset="1.300711e-03" style="stop-color:#FFFFFF;stop-opacity:0"/>
		<stop  offset="1" style="stop-color:#F2F0EB"/>
	</linearGradient>
	<path class="st0" d="M4.6,5.5H1.4c-0.5,0-0.9-0.4-0.9-0.9V1.4c0-0.5,0.4-0.9,0.9-0.9h3.3c0.5,0,0.9,0.4,0.9,0.9v3.3
		C5.5,5.1,5.1,5.5,4.6,5.5z"/>
	<linearGradient id="SVGID_2_" gradientUnits="userSpaceOnUse" x1="5.2824" y1="6.7526" x2="0.7876" y2="11.2474">
		<stop  offset="1.300711e-03" style="stop-color:#FFFFFF;stop-opacity:0"/>
		<stop  offset="1" style="stop-color:#F2F0EB"/>
	</linearGradient>
	<path class="st1" d="M4.7,11.5H1.4c-0.5,0-0.9-0.4-0.9-0.9V7.4c0-0.5,0.4-0.9,0.9-0.9h3.3c0.5,0,0.9,0.4,0.9,0.9v3.3
		C5.5,11.1,5.1,11.5,4.7,11.5z"/>
	<linearGradient id="SVGID_3_" gradientUnits="userSpaceOnUse" x1="10.3363" y1="1.6637" x2="6.5735" y2="5.4265">
		<stop  offset="1.300711e-03" style="stop-color:#FFFFFF;stop-opacity:0"/>
		<stop  offset="0.109" style="stop-color:#FCFCFB;stop-opacity:0.1079"/>
		<stop  offset="0.5531" style="stop-color:#F5F3EF;stop-opacity:0.5525"/>
		<stop  offset="1" style="stop-color:#F2F0EB"/>
	</linearGradient>
	<path class="st2" d="M11.4,3.6L9.6,5.4c-0.3,0.3-0.8,0.3-1.1,0L6.6,3.6c-0.3-0.3-0.3-0.8,0-1.1l1.9-1.9c0.3-0.3,0.8-0.3,1.1,0
		l1.9,1.9C11.7,2.7,11.7,3.3,11.4,3.6z"/>
	<linearGradient id="SVGID_4_" gradientUnits="userSpaceOnUse" x1="11.2646" y1="6.6805" x2="6.7354" y2="11.2097">
		<stop  offset="1.300711e-03" style="stop-color:#FFFFFF;stop-opacity:0"/>
		<stop  offset="1" style="stop-color:#F2F0EB"/>
	</linearGradient>
	<path class="st3" d="M10.7,11.4H7.3c-0.4,0-0.8-0.4-0.8-0.8V7.2c0-0.4,0.4-0.8,0.8-0.8h3.4c0.4,0,0.8,0.4,0.8,0.8v3.4
		C11.5,11.1,11.1,11.4,10.7,11.4z"/>
</g>
</svg>
