<!-- Generator: Adobe Illustrator 24.1.0, SVG Export Plug-In  -->
<svg version="1.1" xmlns="http://www.w3.org/2000/svg" xmlns:xlink="http://www.w3.org/1999/xlink" x="0px" y="0px" width="24px"
	 height="24px" viewBox="0 0 64.5 58.5" style="enable-background:new 0 0 64.5 58.5;" xml:space="preserve">
<style type="text/css">
	.st0{fill:none;stroke:#000000;stroke-width:0.5;stroke-miterlimit:10;}
</style>
<defs>
</defs>
<g>
	<g>
		<path class="st0" d="M41.92,9.86l-18.37,2.91c-1.68,0.27-3.28-0.89-3.55-2.58l0,0c-0.27-1.68,0.89-3.28,2.58-3.55l18.37-2.91
			c1.68-0.27,3.28,0.89,3.55,2.58v0C44.76,7.99,43.6,9.59,41.92,9.86z"/>
	</g>
	<g>
		<path class="st0" d="M42.96,10.22L22.5,13.1c-1.88,0.26-3.63-1.06-3.89-2.93v0c-0.26-1.88,1.06-3.63,2.93-3.89L42,3.4
			c1.88-0.26,3.63,1.06,3.89,2.93l0,0C46.15,8.21,44.84,9.96,42.96,10.22z"/>
	</g>
	<g>
		<path class="st0" d="M44.11,10.65l-22.79,2.8c-2.09,0.26-4.01-1.24-4.26-3.33v0c-0.26-2.09,1.24-4.01,3.33-4.26l22.79-2.8
			c2.09-0.26,4.01,1.24,4.26,3.33l0,0C47.7,8.47,46.2,10.39,44.11,10.65z"/>
	</g>
	<g>
		<path class="st0" d="M45.38,11.15l-25.37,2.67c-2.33,0.24-4.43-1.46-4.67-3.78l0,0C15.09,7.7,16.8,5.6,19.12,5.35l25.37-2.67
			c2.33-0.24,4.43,1.46,4.67,3.78l0,0C49.41,8.8,47.7,10.9,45.38,11.15z"/>
	</g>
	<g>
		<path class="st0" d="M46.78,11.72l-28.24,2.47c-2.59,0.23-4.89-1.71-5.12-4.29v0c-0.23-2.59,1.71-4.89,4.29-5.12l28.24-2.47
			c2.59-0.23,4.89,1.71,5.12,4.29v0C51.3,9.19,49.37,11.49,46.78,11.72z"/>
	</g>
	<g>
		<path class="st0" d="M48.32,12.39l-31.42,2.2c-2.88,0.2-5.4-1.99-5.6-4.87l0,0c-0.2-2.88,1.99-5.4,4.87-5.6l31.42-2.2
			c2.88-0.2,5.4,1.99,5.6,4.87v0C53.4,9.67,51.2,12.19,48.32,12.39z"/>
	</g>
	<g>
		<path class="st0" d="M50.03,13.16l-34.94,1.83c-3.2,0.17-5.96-2.32-6.13-5.52l0,0c-0.17-3.2,2.32-5.96,5.52-6.13l34.94-1.83
			c3.2-0.17,5.96,2.32,6.13,5.52l0,0C55.71,10.23,53.23,12.99,50.03,13.16z"/>
	</g>
	<g>
		<path class="st0" d="M51.9,14.05L13.05,15.4c-3.56,0.12-6.58-2.69-6.7-6.25l0,0c-0.12-3.56,2.69-6.58,6.25-6.7L51.45,1.1
			c3.56-0.12,6.58,2.69,6.7,6.25v0C58.28,10.91,55.47,13.92,51.9,14.05z"/>
	</g>
	<g>
		<path class="st0" d="M53.97,15.07l-43.19,0.75c-3.96,0.07-7.26-3.11-7.32-7.07l0,0C3.39,4.79,6.57,1.5,10.53,1.43l43.19-0.75
			c3.96-0.07,7.26,3.11,7.32,7.07v0C61.11,11.71,57.93,15,53.97,15.07z"/>
	</g>
	<g>
		<path class="st0" d="M56.25,16.25h-48c-4.4,0-8-3.6-8-8v0c0-4.4,3.6-8,8-8h48c4.4,0,8,3.6,8,8v0
			C64.25,12.65,60.65,16.25,56.25,16.25z"/>
	</g>
</g>
<g>
	<g>
		<path class="st0" d="M41.92,30.86l-18.37,2.91c-1.68,0.27-3.28-0.89-3.55-2.58l0,0c-0.27-1.68,0.89-3.28,2.58-3.55l18.37-2.91
			c1.68-0.27,3.28,0.89,3.55,2.58v0C44.76,28.99,43.6,30.59,41.92,30.86z"/>
	</g>
	<g>
		<path class="st0" d="M42.96,31.22L22.5,34.1c-1.88,0.26-3.63-1.06-3.89-2.93v0c-0.26-1.88,1.06-3.63,2.93-3.89L42,24.4
			c1.88-0.26,3.63,1.06,3.89,2.93l0,0C46.15,29.21,44.84,30.96,42.96,31.22z"/>
	</g>
	<g>
		<path class="st0" d="M44.11,31.65l-22.79,2.8c-2.09,0.26-4.01-1.24-4.26-3.33v0c-0.26-2.09,1.24-4.01,3.33-4.26l22.79-2.8
			c2.09-0.26,4.01,1.24,4.26,3.33l0,0C47.7,29.47,46.2,31.39,44.11,31.65z"/>
	</g>
	<g>
		<path class="st0" d="M45.38,32.15l-25.37,2.67c-2.33,0.24-4.43-1.46-4.67-3.78l0,0c-0.24-2.33,1.46-4.43,3.78-4.67l25.37-2.67
			c2.33-0.24,4.43,1.46,4.67,3.78l0,0C49.41,29.8,47.7,31.9,45.38,32.15z"/>
	</g>
	<g>
		<path class="st0" d="M46.78,32.72l-28.24,2.47c-2.59,0.23-4.89-1.71-5.12-4.29v0c-0.23-2.59,1.71-4.89,4.29-5.12l28.24-2.47
			c2.59-0.23,4.89,1.71,5.12,4.29v0C51.3,30.19,49.37,32.49,46.78,32.72z"/>
	</g>
	<g>
		<path class="st0" d="M48.32,33.39l-31.42,2.2c-2.88,0.2-5.4-1.99-5.6-4.87l0,0c-0.2-2.88,1.99-5.4,4.87-5.6l31.42-2.2
			c2.88-0.2,5.4,1.99,5.6,4.87v0C53.4,30.67,51.2,33.19,48.32,33.39z"/>
	</g>
	<g>
		<path class="st0" d="M50.03,34.16l-34.94,1.83c-3.2,0.17-5.96-2.32-6.13-5.52l0,0c-0.17-3.2,2.32-5.96,5.52-6.13l34.94-1.83
			c3.2-0.17,5.96,2.32,6.13,5.52l0,0C55.71,31.23,53.23,33.99,50.03,34.16z"/>
	</g>
	<g>
		<path class="st0" d="M51.9,35.05L13.05,36.4c-3.56,0.12-6.58-2.69-6.7-6.25l0,0c-0.12-3.56,2.69-6.58,6.25-6.7l38.86-1.36
			c3.56-0.12,6.58,2.69,6.7,6.25v0C58.28,31.91,55.47,34.92,51.9,35.05z"/>
	</g>
	<g>
		<path class="st0" d="M53.97,36.07l-43.19,0.75c-3.96,0.07-7.26-3.11-7.32-7.07l0,0c-0.07-3.96,3.11-7.26,7.07-7.32l43.19-0.75
			c3.96-0.07,7.26,3.11,7.32,7.07v0C61.11,32.71,57.93,36,53.97,36.07z"/>
	</g>
	<g>
		<path class="st0" d="M56.25,37.25h-48c-4.4,0-8-3.6-8-8v0c0-4.4,3.6-8,8-8h48c4.4,0,8,3.6,8,8v0
			C64.25,33.65,60.65,37.25,56.25,37.25z"/>
	</g>
</g>
<g>
	<g>
		<path class="st0" d="M42.11,51.83L23.36,54.8c-1.58,0.25-3.07-0.84-3.32-2.42L19.97,52c-0.25-1.58,0.84-3.07,2.42-3.32l18.75-2.97
			c1.58-0.25,3.07,0.84,3.32,2.42l0.06,0.38C44.78,50.08,43.69,51.58,42.11,51.83z"/>
	</g>
	<g>
		<path class="st0" d="M43.17,52.19l-20.89,2.94c-1.76,0.25-3.4-0.99-3.65-2.75l-0.06-0.43c-0.25-1.76,0.99-3.4,2.75-3.65
			l20.89-2.94c1.76-0.25,3.4,0.99,3.65,2.75l0.06,0.43C46.17,50.3,44.93,51.95,43.17,52.19z"/>
	</g>
	<g>
		<path class="st0" d="M44.35,52.62l-23.26,2.86c-1.96,0.24-3.76-1.17-4-3.12l-0.06-0.47c-0.24-1.96,1.17-3.76,3.12-4l23.26-2.86
			c1.96-0.24,3.76,1.17,4,3.12l0.06,0.47C47.71,50.58,46.31,52.38,44.35,52.62z"/>
	</g>
	<g>
		<path class="st0" d="M45.64,53.12l-25.9,2.72c-2.18,0.23-4.15-1.37-4.38-3.55l-0.06-0.53c-0.23-2.18,1.37-4.15,3.55-4.38
			l25.9-2.72c2.18-0.23,4.15,1.37,4.38,3.55l0.06,0.53C49.42,50.92,47.82,52.89,45.64,53.12z"/>
	</g>
	<g>
		<path class="st0" d="M47.07,53.7l-28.82,2.52c-2.43,0.21-4.59-1.6-4.8-4.03L13.4,51.6c-0.21-2.43,1.6-4.59,4.03-4.8l28.82-2.52
			c2.43-0.21,4.59,1.6,4.8,4.03l0.05,0.59C51.31,51.32,49.5,53.48,47.07,53.7z"/>
	</g>
	<g>
		<path class="st0" d="M48.65,54.36l-32.07,2.24c-2.7,0.19-5.06-1.87-5.25-4.57l-0.05-0.65c-0.19-2.7,1.87-5.06,4.57-5.25
			l32.07-2.24c2.7-0.19,5.06,1.87,5.25,4.57l0.05,0.65C53.41,51.81,51.35,54.18,48.65,54.36z"/>
	</g>
	<g>
		<path class="st0" d="M50.39,55.14l-35.67,1.87c-3,0.16-5.59-2.17-5.75-5.17l-0.04-0.73c-0.16-3,2.17-5.59,5.17-5.75l35.67-1.87
			c3-0.16,5.59,2.17,5.75,5.17l0.04,0.73C55.72,52.4,53.39,54.98,50.39,55.14z"/>
	</g>
	<g>
		<path class="st0" d="M52.31,56.03l-39.67,1.39c-3.34,0.12-6.17-2.52-6.28-5.86l-0.03-0.81c-0.12-3.34,2.52-6.17,5.86-6.28
			l39.67-1.39c3.34-0.12,6.17,2.52,6.28,5.86l0.03,0.81C58.28,53.09,55.65,55.92,52.31,56.03z"/>
	</g>
	<g>
		<path class="st0" d="M54.42,57.06l-44.09,0.77c-3.71,0.06-6.8-2.92-6.87-6.63l-0.02-0.9c-0.06-3.71,2.92-6.8,6.63-6.87l44.09-0.77
			c3.71-0.06,6.8,2.92,6.87,6.63l0.02,0.9C61.12,53.91,58.13,57,54.42,57.06z"/>
	</g>
	<g>
		<path class="st0" d="M56.75,58.25h-49c-4.12,0-7.5-3.37-7.5-7.5v-1c0-4.12,3.37-7.5,7.5-7.5h49c4.12,0,7.5,3.37,7.5,7.5v1
			C64.25,54.88,60.88,58.25,56.75,58.25z"/>
	</g>
</g>
</svg>
