<?xml version="1.0" encoding="utf-8"?>
<!-- Generator: Adobe Illustrator 24.1.0, SVG Export Plug-In . SVG Version: 6.00 Build 0)  -->
<svg version="1.1" id="Layer_1" xmlns="http://www.w3.org/2000/svg" xmlns:xlink="http://www.w3.org/1999/xlink" x="0px" y="0px"
	 viewBox="0 0 34.9 56" style="enable-background:new 0 0 34.9 56;" xml:space="preserve">
<g>
	<path d="M20.3,41.9c-1.6,0.7-3.1,1.4-4.7,2c-1.1,0.5-2.2,1-3.3,1.4c-0.1,0.1-0.3,0.1-0.5,0.1c0-0.1-0.1-0.2-0.1-0.3
		c0-2.1,0-4.2,0-6.4c0-0.2-0.1-0.3-0.3-0.4c-0.8-0.3-1.3-0.9-1.2-1.6c0-0.7,0.5-1.2,1.3-1.5c0.2-0.1,0.2-0.1,0.2-0.3
		c0-1.4,0-2.7,0-4.1c0-0.1-0.1-0.2-0.2-0.2c-0.8-0.3-1.3-0.8-1.3-1.5c0-0.8,0.4-1.3,1.3-1.7c0.2-0.1,0.2-0.1,0.2-0.3
		c0-1.3,0-2.6,0-4c0-0.2-0.1-0.2-0.2-0.3c-0.9-0.3-1.3-0.9-1.3-1.6c0-0.7,0.4-1.2,1.3-1.6c0.1,0,0.2-0.1,0.2-0.2c0-0.8,0-1.6,0-2.5
		c-0.2,0-0.3,0-0.4,0c-2,0-4,0-6,0c0,0-0.1,0-0.1,0c-0.1,0-0.2-0.1-0.3-0.1C5,17.1,5,17,5.1,16.9c0.3-0.3,0.7-0.5,1-0.8
		c3.7-2.8,7.4-5.5,11.1-8.3c0.3-0.2,0.4-0.2,0.6,0c3.7,2.8,7.5,5.6,11.2,8.4c0.3,0.2,0.6,0.5,0.9,0.7c0,0,0.1,0.1,0.1,0.1
		c0,0-0.1,0.1-0.2,0.1c-1.4,0-2.8,0-4.1,0c-0.1-0.4-0.1-0.8-0.2-1.2c0.2,0,0.4,0,0.5,0c-2.9-2.2-5.7-4.4-8.6-6.6
		c-2.9,2.2-5.8,4.4-8.7,6.5c0.1,0,0.1,0,0.2,0c1.2,0,2.5,0,3.7,0c0.4,0,0.6,0.1,0.6,0.4c0,1,0,2.1,0,3.1c0,0.2,0,0.3,0.3,0.4
		c0.1,0,0.3,0.1,0.4,0.2c1.8-0.9,3.5-1.7,5.2-2.6c0.2-0.1,0.2-0.2,0.1-0.3c-0.1-0.8,0.4-1.4,1.4-1.8c0.9-0.3,2-0.2,2.7,0.4
		c1.1,0.8,0.9,2.1-0.5,2.7c-0.3,0.1-0.3,0.2-0.3,0.4c0,1.5,0,3,0,4.4c0,0.2,0,0.3,0.3,0.3c0.9,0.3,1.3,0.9,1.3,1.6
		c0,0.7-0.5,1.2-1.4,1.5c-0.2,0.1-0.2,0.1-0.2,0.3c0,1.3,0,2.6,0,3.9c0,0.1,0,0.2,0.2,0.3c0.9,0.3,1.4,0.9,1.4,1.6
		c0,0.7-0.5,1.3-1.4,1.5c-0.2,0.1-0.2,0.1-0.2,0.3c0,1.3,0,2.7,0,4c0,0.1,0,0.2,0.2,0.3c1.3,0.5,1.8,1.6,1.1,2.5
		c-0.7,0.9-2.4,1.1-3.5,0.5C20.4,42,20.4,42,20.3,41.9z M20.3,18.3c-1.6,0.8-3.2,1.6-4.8,2.4c-0.4,0.2-0.7,0.4-0.6,0.8
		c0,0.1,0,0.2,0.2,0.3c1.5,0.6,3.1,1.3,4.6,1.9c0.3,0.2,0.6,0.3,1,0c0,0,0.1,0,0.2-0.1c0.1-0.1,0.2-0.1,0.2-0.2c0-1.5,0-3.1,0-4.6
		c0-0.1-0.1-0.2-0.1-0.2C20.7,18.5,20.5,18.4,20.3,18.3z M20.2,39.3c0.2-0.1,0.4-0.2,0.5-0.3c0.2-0.1,0.3-0.2,0.3-0.4
		c0-1.2,0-2.5,0-3.7c0-0.3,0-0.5-0.4-0.6c-0.1,0-0.3-0.1-0.4-0.2c-1.7,0.7-3.4,1.5-5.1,2.2C14.8,36.5,15,36.8,15,37
		c0,0.1,0.1,0.2,0.3,0.2c0.8,0.4,1.7,0.7,2.5,1C18.6,38.6,19.4,39,20.2,39.3z M20.2,31.6c0.3-0.1,0.5-0.2,0.7-0.3
		c0.1,0,0.1-0.1,0.1-0.2c0-1.4,0-2.7,0-4.1c0-0.1-0.1-0.2-0.1-0.2c-0.2-0.1-0.5-0.2-0.7-0.3c-1.7,0.7-3.4,1.5-5.1,2.2
		c-0.1,0-0.1,0.1-0.2,0.2c-0.1,0.3,0.1,0.6,0.5,0.7c0.2,0,0.3,0.1,0.5,0.2C17.4,30.4,18.8,31,20.2,31.6z M14.3,30.4
		c-0.2,0.1-0.4,0.2-0.6,0.3c-0.2,0.1-0.2,0.1-0.2,0.3c0,1.2,0,2.4,0,3.6c0,0.4,0,0.7,0.5,0.8c0.1,0,0.2,0.1,0.2,0.1
		c1.6-0.7,3.2-1.4,4.7-2c0.4-0.2,0.7-0.4,0.6-0.8c0-0.1-0.1-0.2-0.2-0.2C17.7,31.8,16,31.1,14.3,30.4z M14.2,27.8
		c1.6-0.7,3.2-1.4,4.8-2.1c0.4-0.2,0.6-0.3,0.5-0.6c0-0.1,0-0.2-0.2-0.3c-1.2-0.5-2.4-1-3.7-1.5c-0.5-0.2-0.9-0.4-1.4-0.6
		c-0.2,0.1-0.4,0.2-0.6,0.3c-0.2,0.1-0.2,0.2-0.2,0.3c0,1.2,0,2.4,0,3.7c0,0.3,0,0.6,0.5,0.7C14,27.7,14.1,27.8,14.2,27.8z
		 M14.3,38.1c-0.2,0.1-0.4,0.2-0.7,0.3c-0.2,0.1-0.2,0.1-0.2,0.3c0,1.4,0,2.8,0,4.2c0,0.2,0,0.4,0,0.6c0.1,0,0.2-0.1,0.3-0.1
		c1.7-0.7,3.5-1.5,5.2-2.2c0.4-0.1,0.7-0.2,0.6-0.7c0-0.1,0-0.2-0.2-0.3c-0.6-0.2-1.1-0.5-1.7-0.7C16.5,39,15.4,38.5,14.3,38.1z
		 M21.9,32.1c-0.6,0-1,0.4-1,0.8c0,0.4,0.5,0.7,1,0.7c0.6,0,1.1-0.4,1.1-0.8C23,32.5,22.5,32.1,21.9,32.1z M23,40.6
		c0-0.4-0.5-0.8-1.1-0.8c-0.5,0-1,0.4-1,0.8c0,0.4,0.5,0.8,1,0.8C22.5,41.4,23,41,23,40.6z M12.6,36c-0.6,0-1,0.4-1,0.8
		c0,0.4,0.5,0.8,1,0.8c0.5,0,1-0.4,1-0.8C13.6,36.4,13.1,36,12.6,36z M22,24.5c-0.6,0-1.1,0.3-1.1,0.7c0,0.4,0.5,0.8,1,0.8
		c0.6,0,1.1-0.3,1.1-0.7C23,24.8,22.5,24.5,22,24.5z M12.6,20.7c-0.6,0-1,0.3-1,0.8c0,0.4,0.5,0.8,1.1,0.8c0.5,0,1-0.4,1-0.8
		C13.6,21,13.1,20.7,12.6,20.7z M12.6,29.9c0.6,0,1-0.4,1-0.8c0-0.4-0.5-0.8-1-0.8c-0.6,0-1.1,0.4-1.1,0.8
		C11.6,29.5,12,29.9,12.6,29.9z M21.8,17.7c0.5,0,1-0.4,1-0.8c0-0.4-0.5-0.8-1-0.8c-0.5,0-1,0.4-1,0.8
		C20.8,17.4,21.3,17.7,21.8,17.7z"/>
</g>
</svg>
