<!-- Generator: Adobe Illustrator 24.1.0, SVG Export Plug-In  -->
<svg version="1.1" xmlns="http://www.w3.org/2000/svg" xmlns:xlink="http://www.w3.org/1999/xlink" x="0px" y="0px" width="56px"
	 height="34.94px" viewBox="0 0 56 34.94" style="enable-background:new 0 0 56 34.94;" xml:space="preserve">
<defs>
</defs>
<g>
	<path d="M25.9,5.95c0.54-0.04,1.04-0.02,1.56,0.13c5.46,1.64,4.84,14.15,7.15,18.53c0.26,0.49,0.66,0.99,1.22,1.14
		c0.32,0.09,0.69,0.03,0.97-0.16c1.22-0.83,1.76-4.25,2.06-5.67c0.37-1.77,0.94-4.02,2.56-5.07c0.05-0.03,0.09-0.06,0.14-0.08
		c0.05-0.03,0.09-0.05,0.14-0.08c0.05-0.02,0.1-0.05,0.15-0.07c0.05-0.02,0.1-0.04,0.15-0.06s0.1-0.04,0.15-0.05
		c0.05-0.02,0.1-0.03,0.15-0.05c0.05-0.01,0.1-0.03,0.16-0.04c0.05-0.01,0.11-0.02,0.16-0.03c0.05-0.01,0.11-0.02,0.16-0.02
		c0.05-0.01,0.11-0.01,0.16-0.02c0.05,0,0.11-0.01,0.16-0.01c0.05,0,0.11,0,0.16,0c0.05,0,0.11,0,0.16,0.01
		c0.05,0,0.11,0.01,0.16,0.02c0.05,0.01,0.11,0.01,0.16,0.02c0.05,0.01,0.11,0.02,0.16,0.03c1.12,0.27,1.99,1.24,2.58,2.18
		c-0.48,0.56-0.92,1.02-1.6,1.35c-0.34-0.29-0.59-0.65-0.97-0.9c-0.27-0.17-0.58-0.26-0.9-0.19c-1.4,0.33-1.71,2.72-1.96,3.87
		c-0.17,0.79-0.34,1.6-0.55,2.38c-0.27,0.99-0.64,2.04-1.2,2.91c-0.58,0.92-1.39,1.7-2.49,1.93c-0.95,0.2-1.86-0.03-2.65-0.57
		c-2.32-1.6-2.94-5.81-3.4-8.39c-0.36-2.37-1.28-7.89-2.76-9.71c-0.4-0.49-0.89-0.84-1.53-0.88c-0.73-0.05-1.26,0.31-1.7,0.87
		c-1.82,2.3-2.83,8.82-4.16,11.84c-0.35,0.8-0.81,1.54-1.47,2.13c-0.68,0.61-1.54,0.94-2.46,0.87c-1.9-0.13-2.8-1.55-3.58-3.09
		c-0.25-0.5-0.49-1.04-0.87-1.46c-0.67-0.76-1.55-0.71-2.48-0.75c-0.03-0.8,0-1.61,0-2.41c0.7-0.01,1.44-0.06,2.13,0.07
		c1.83,0.34,2.65,2.08,3.38,3.59c0.24,0.5,0.48,1.05,0.94,1.38c0.25,0.18,0.55,0.26,0.86,0.21c0.49-0.08,0.82-0.45,1.06-0.86
		c0.47-0.79,0.72-1.79,1-2.66c0.39-1.26,0.76-2.53,1.12-3.8c0.6-2.11,1.14-4.29,2.42-6.11C23.47,7.1,24.49,6.2,25.9,5.95z"/>
	<path d="M10.25,0.12c0.81-0.15,1.85-0.04,2.68-0.03l0,2.68c-1.27-0.01-2.84-0.16-3.99,0.47c-2.37,1.29-1.69,5.42-1.79,7.71
		c-0.01,0.35-0.05,0.69-0.11,1.04c-0.06,0.34-0.14,0.68-0.24,1.01c-0.69,2.25-1.84,3.44-3.87,4.52c0.8,0.37,1.52,0.78,2.15,1.41
		c2.36,2.34,2.07,5.34,2.08,8.38c0.01,1.37,0.11,3.08,1.17,4.09c1.17,1.11,3.11,0.87,4.59,0.86c0,0.85,0.08,1.77-0.02,2.6
		l-0.09,0.07c-0.85,0.01-1.71,0.04-2.57-0.01c-1.33-0.08-2.6-0.49-3.61-1.38c-4.03-3.55-0.32-9.82-3.35-13.19
		c-0.89-0.99-1.96-1.31-3.25-1.39c-0.01-0.48-0.13-2.33,0.06-2.7c0.25-0.51,3.35-0.15,4.21-3.33C5.27,9.35,3.46,5.08,6.14,1.95
		C7.18,0.74,8.69,0.24,10.25,0.12z"/>
	<path d="M43.15,0.06c0.96-0.08,2.01-0.1,2.96,0.02c0.14,0.02,0.28,0.04,0.42,0.07c0.14,0.03,0.28,0.06,0.41,0.09
		c0.14,0.04,0.27,0.08,0.4,0.12c0.13,0.04,0.27,0.09,0.4,0.15c0.13,0.05,0.26,0.11,0.39,0.17c0.13,0.06,0.25,0.13,0.37,0.2
		c0.12,0.07,0.24,0.15,0.36,0.22c0.12,0.08,0.23,0.16,0.34,0.25c4.19,3.29,0.56,9.69,3.24,13.08c0.91,1.15,2.17,1.41,3.55,1.56
		L56,18.98c-0.29,0.01-0.58,0.02-0.87,0.06c-2.11,0.27-3.32,1.95-3.64,3.95c-0.36,2.28,0.16,4.66-0.23,6.93
		c-0.18,1.03-0.61,2.06-1.25,2.9c-1,1.3-2.42,1.88-4.01,2.09c-0.96,0.04-1.93,0.05-2.89,0.01c-0.02-0.89-0.01-1.78-0.01-2.66
		c1.31,0,2.83,0.15,4.03-0.48c1.78-0.95,1.75-3.2,1.75-4.94c0-0.98-0.04-1.97,0.01-2.95c0.01-0.33,0.05-0.66,0.1-0.99
		c0.06-0.33,0.13-0.65,0.23-0.96c0.65-2.19,1.8-3.37,3.77-4.43c-1.19-0.59-2.11-1.36-2.84-2.47c-0.14-0.21-0.27-0.43-0.39-0.65
		c-0.12-0.22-0.23-0.45-0.32-0.69c-0.09-0.23-0.18-0.47-0.25-0.72c-0.07-0.24-0.13-0.49-0.17-0.74c-0.44-2.52,0.63-6.62-1.34-8.55
		c-1.19-1.17-3.06-0.96-4.59-0.97C43.09,2.24,42.98,0.36,43.15,0.06z"/>
</g>
</svg>
