<!-- Generator: Adobe Illustrator 24.1.0, SVG Export Plug-In  -->
<svg version="1.1" xmlns="http://www.w3.org/2000/svg" xmlns:xlink="http://www.w3.org/1999/xlink" x="0px" y="0px"
	 width="425.74px" height="421.08px" viewBox="0 0 425.74 421.08" style="enable-background:new 0 0 425.74 421.08;"
	 xml:space="preserve">
<style type="text/css">
	.st0{fill:#080808;}
</style>
<defs>
</defs>
<g id="NpeXaU.tif_1_">
	<g>
		<path class="st0" d="M210.68,0.16c45.22,0,90.45-0.45,135.66,0.16c28.23,0.38,50.81,12.92,67.05,36.15
			c8.09,11.58,12.27,24.6,12.3,38.82c0.02,10.97,0.09,21.95,0,32.92c-0.07,8.15-5.03,13.58-12.12,13.54
			c-7.07-0.05-12.01-5.57-12.06-13.64c-0.06-9.64-0.33-19.3,0.04-28.92c1.1-28.65-22.16-50.49-48.62-54.04
			c-3.62-0.49-7.29-0.75-10.94-0.75c-87.61-0.04-175.23-0.07-262.84-0.01c-22.55,0.01-40.12,9.06-49.74,30.04
			C26.4,61,24.71,68.78,24.65,76.04c-0.4,50.7-0.36,101.41-0.15,152.11c0.12,28.88,21.69,50.63,50.63,51.49
			c10.3,0.3,20.61,0.08,30.92,0.12c1.66,0.01,3.34,0,4.97,0.25c6.32,0.99,10.62,5.84,10.68,11.88c0.05,6.05-4.16,11.81-10.46,11.94
			c-18.22,0.38-36.6,2.3-54.59-2.29c-32.59-8.31-55.87-36.67-56.21-70.22C-0.1,178.47-0.2,125.59,0.45,72.73
			C0.95,32.65,34.13,0.55,74.52,0.24C119.91-0.1,165.3,0.16,210.68,0.16z"/>
		<path class="st0" d="M245.75,320.92c-13.78-8.32-27.11-16.38-40.45-24.43c-6.68-4.03-13.41-8-20.06-12.09
			c-7.06-4.35-9.13-11.07-5.49-17.31c3.69-6.32,10.95-7.75,18.23-3.38c22.5,13.51,44.98,27.05,67.4,40.71
			c2.86,1.74,4.95,1.99,8.01,0.11c18.81-11.58,37.76-22.95,56.76-34.22c2.83-1.68,3.67-3.43,3.47-6.72
			c-1.48-25.12,17.91-46.38,42.56-46.93c25.35-0.57,46.01,19.39,45.95,44.4c-0.05,25.22-21.25,45.45-46.56,44.27
			c-12.39-0.58-22.61-6.01-31.23-15.25c-8.53,5.15-16.89,10.19-25.25,15.23c-8.38,5.06-16.77,10.11-26.01,15.68
			c16.62,10.04,32.69,19.74,48.91,29.54c7.65-9.48,16.99-15.55,28.9-17.59c22.99-3.95,46.34,12.44,50.47,35.63
			c4.25,23.9-11.33,47.22-34.53,51.65c-27.88,5.33-52.76-14.55-53.28-42.79c-0.06-3.05-1.24-4.41-3.51-5.77
			c-18.95-11.36-37.9-22.72-56.75-34.24c-2.74-1.67-4.68-1.83-7.54-0.08c-22.53,13.78-45.18,27.38-67.82,40.97
			c-7.39,4.44-14.95,2.79-18.43-3.84c-3.25-6.19-1.13-12.7,5.77-16.88c18.47-11.19,37-22.28,55.49-33.43
			C242.28,323.22,243.77,322.2,245.75,320.92z M397.67,260.93c-0.02-11.06-8.91-20.01-19.92-20.07
			c-10.87-0.06-20.04,9.02-20.12,19.93c-0.08,11.17,9.15,20.44,20.23,20.3C388.9,280.95,397.69,272,397.67,260.93z M397.67,376.92
			c0.05-11.08-8.67-20.03-19.73-20.23c-11.04-0.21-20.36,9.07-20.31,20.22c0.05,10.92,9.16,20.01,20.04,20.01
			C388.67,396.91,397.62,387.96,397.67,376.92z"/>
		<path class="st0" d="M158.19,152.31c0-16.61-0.13-33.22,0.03-49.82c0.13-13.25,8.1-23.13,19.84-25c7.25-1.16,13.31,1.68,18.9,5.93
			c17.83,13.58,35.67,27.15,53.5,40.72c2.91,2.21,5.84,4.4,8.72,6.64c14.18,11.02,14.61,29.61,0.53,40.89
			c-17.75,14.22-35.82,28.04-53.75,42.04c-3.01,2.35-6.04,4.68-9.04,7.04c-7.61,5.99-15.95,8.34-25.06,4.02
			c-9.38-4.45-13.43-12.68-13.6-22.63C157.99,185.53,158.2,168.92,158.19,152.31z M246.43,151.31
			c-21.4-16.17-42.17-31.87-63.49-47.97c0,32.89,0,64.66,0,97.43C204.37,184.08,225.1,167.93,246.43,151.31z"/>
	</g>
</g>
</svg>
