<!-- Generator: Adobe Illustrator 24.1.0, SVG Export Plug-In  -->
<svg version="1.1" xmlns="http://www.w3.org/2000/svg" xmlns:xlink="http://www.w3.org/1999/xlink" x="0px" y="0px" width="40px"
	 height="40.36px" viewBox="0 0 40 40.36" style="enable-background:new 0 0 40 40.36;" xml:space="preserve">
<style type="text/css">
	.st0{fill:#102542;}
</style>
<defs>
</defs>
<g id="_x33_lPDRk_2_">
	<g>
		<path class="st0" d="M20.1,40.01c-3.05,0-5.9-0.63-8.62-1.89c-0.09-0.04-0.22-0.06-0.32-0.04C7.78,38.83,4.39,39.58,1,40.33
			c-0.28,0.06-0.34,0-0.3-0.28c0.33-1.98,0.66-3.97,0.99-5.95c0.24-1.45,0.49-2.9,0.73-4.36c0.01-0.09-0.01-0.2-0.06-0.28
			c-1.22-2.3-1.99-4.75-2.25-7.34c-0.47-4.73,0.56-9.12,3.18-13.09c3.03-4.58,7.26-7.5,12.63-8.58c6.58-1.32,12.46,0.3,17.49,4.75
			c3.23,2.85,5.28,6.45,6.13,10.67c1.22,6.04-0.04,11.56-3.8,16.44c-2.95,3.84-6.87,6.22-11.6,7.26
			C22.8,39.87,21.43,40.02,20.1,40.01z M4.75,36.06c0.07-0.01,0.11-0.02,0.15-0.03c2.22-0.52,4.44-1.05,6.66-1.57
			c0.19-0.05,0.35-0.04,0.53,0.06c2.64,1.43,5.47,2.07,8.46,2.01c1.13-0.03,2.25-0.2,3.35-0.46c8.7-2.11,14.16-10.88,12.2-19.63
			C34.22,7.98,26.16,2.41,17.6,3.66c-3.72,0.55-6.91,2.19-9.51,4.91c-3.96,4.12-5.48,9.88-4.12,15.42c0.41,1.68,1.09,3.25,1.99,4.73
			c0.05,0.09,0.09,0.21,0.07,0.31c-0.36,2.02-0.73,4.04-1.1,6.07C4.87,35.41,4.81,35.72,4.75,36.06z"/>
		<path class="st0" d="M13.55,10.36c0.19,0.01,0.39,0.02,0.58,0.03c0.35,0.02,0.63,0.17,0.8,0.48c0.14,0.26,0.26,0.53,0.37,0.8
			c0.4,1.04,0.78,2.08,1.17,3.11c0.04,0.11,0.09,0.22,0.14,0.33c0.13,0.29,0.12,0.57-0.01,0.85c-0.28,0.61-0.75,1.06-1.19,1.54
			c-0.07,0.08-0.15,0.15-0.23,0.23c-0.3,0.3-0.35,0.55-0.13,0.91c0.44,0.71,0.87,1.42,1.37,2.09c1.4,1.85,3.17,3.23,5.31,4.14
			c0.48,0.2,0.77,0.16,1.11-0.22c0.54-0.62,1.07-1.25,1.6-1.87c0.21-0.25,0.46-0.37,0.78-0.28c0.22,0.06,0.43,0.14,0.63,0.24
			c1.2,0.62,2.4,1.25,3.6,1.87c0.37,0.19,0.52,0.45,0.49,0.86c-0.06,0.68-0.2,1.34-0.48,1.96c-0.08,0.17-0.19,0.34-0.32,0.48
			c-0.8,0.88-1.79,1.46-2.96,1.68c-0.98,0.18-1.96,0.07-2.92-0.23c-1.85-0.57-3.66-1.24-5.29-2.31c-1.91-1.26-3.5-2.87-4.87-4.69
			c-0.9-1.2-1.76-2.43-2.42-3.78c-0.47-0.95-0.8-1.95-0.86-3.02c-0.1-1.89,0.59-3.47,1.99-4.73c0.36-0.32,0.79-0.47,1.27-0.48
			C13.26,10.35,13.4,10.35,13.55,10.36C13.55,10.35,13.55,10.35,13.55,10.36z"/>
	</g>
</g>
</svg>
